<?xml version="1.0" encoding="UTF-8"?>
<svg xmlns="http://www.w3.org/2000/svg" xmlns:xlink="http://www.w3.org/1999/xlink" version="1.2" >
<font id="Roboto Condensed Italic">
<font-face  font-family="Roboto Condensed" units-per-em="2048" ascent="2146" descent="-555" font-style="italic" font-weight="400" font-stretch="condensed" slope="-12" cap-height="1456" x-height="1082" underline-position="-150" underline-thickness="100" />
<missing-glyph  horiz-adv-x="436" d="" />
<glyph glyph-name="NULL" d="" />
<glyph glyph-name="nonmarkingreturn" unicode="&#xd;" horiz-adv-x="436" d="" />
<glyph glyph-name="space" unicode="&#x20;" horiz-adv-x="436" d="" />
<glyph glyph-name="quotedbl" unicode="&#x22;" horiz-adv-x="578" d="M373 1311 L276 1057 L181 1057 L221 1302 L263 1560 L413 1560 L373 1311 Z M636 1311 L539 1057 L445 1057 L486 1309 L527 1560 L676 1560 L636 1311 Z " />
<glyph glyph-name="numbersign" unicode="&#x23;" horiz-adv-x="1028" d="M557 410 L379 410 L236 0 L100 0 L243 410 L56 410 L82 540 L288 540 L417 908 L217 908 L243 1040 L463 1040 L608 1456 L744 1456 L599 1040 L777 1040 L922 1456 L1058 1456 L913 1040 L1082 1040 L1056 908 L867 908 L739 540 L922 540 L896 410 L693 410 L551 0 L414 0 L557 410 Z M424 540 L602 540 L731 908 L553 908 L424 540 Z " />
<glyph glyph-name="dollar" unicode="&#x24;" horiz-adv-x="965" d="M659 370 Q675 469 642 529.5 Q609 590 512 645 Q352 715 282.5 812.5 Q213 910 241 1082 Q268 1251 366 1353 Q464 1455 608 1473 L642 1685 L771 1685 L736 1470 Q866 1444 927 1325 Q988 1206 958 1014 L757 1014 Q779 1155 748.5 1236 Q718 1317 641 1317 Q564 1317 510.5 1251 Q457 1185 441 1084 Q425 984 457 925.5 Q489 867 591 809 Q751 736 819 639.5 Q887 543 860 372 Q831 197 731.5 98.5 Q632 0 481 -17 L450 -210 L322 -210 L353 -16 Q215 3 136.5 112.5 Q58 222 92 432 L292 432 Q266 268 310 203 Q354 138 439 138 Q521 138 582 203 Q643 268 659 370 Z " />
<glyph glyph-name="percent" unicode="&#x25;" horiz-adv-x="1299" d="M247 1176 Q274 1312 359.5 1394.5 Q445 1477 567 1477 Q679 1477 735.5 1389 Q792 1301 767 1176 L752 1099 Q724 963 639.5 881.5 Q555 800 433 800 Q320 800 263 887 Q206 974 232 1099 L247 1176 Z M373 1099 Q357 1020 377.5 970 Q398 920 457 920 Q510 920 552.5 973 Q595 1026 611 1099 L626 1176 Q641 1255 621 1306 Q601 1357 543 1357 Q490 1357 446 1303 Q402 1249 388 1176 L373 1099 Z M676 357 Q703 492 788.5 574.5 Q874 657 996 657 Q1109 657 1165 569.5 Q1221 482 1196 357 L1181 279 Q1153 142 1069 60.5 Q985 -21 863 -21 Q750 -21 692.5 66.5 Q635 154 661 279 L676 357 Z M803 279 Q787 200 808.5 149.5 Q830 99 887 99 Q942 99 983.5 151.5 Q1025 204 1041 279 L1056 357 Q1072 437 1051 487 Q1030 537 972 537 Q919 537 875.5 483.5 Q832 430 818 357 L803 279 Z M338 113 L247 176 L1048 1314 L1137 1251 L338 113 Z " />
<glyph glyph-name="ampersand" unicode="&#x26;" horiz-adv-x="1132" d="M58 383 Q78 509 151 597.5 Q224 686 360 784 Q310 883 291 962.5 Q272 1042 286 1125 Q313 1297 412.5 1387 Q512 1477 661 1477 Q789 1477 860.5 1386.5 Q932 1296 912 1169 Q895 1069 843 999.5 Q791 930 700 864 L590 780 L803 392 L809 393 Q847 450 874.5 522 Q902 594 916 675 L1078 675 Q1056 539 1008.5 432 Q961 325 885 241 L1018 0 L784 0 L729 101 Q648 41 564.5 10 Q481 -21 394 -21 Q218 -21 123.5 91.5 Q29 204 58 383 Z M424 133 Q480 133 541.5 156.5 Q603 180 661 226 L427 656 L405 639 Q332 567 301 504.5 Q270 442 262 388 Q244 274 286 203.5 Q328 133 424 133 Z M475 1127 Q467 1075 479.5 1021.5 Q492 968 523 904 L631 983 Q686 1023 710.5 1067 Q735 1111 743 1164 Q753 1230 724.5 1275.5 Q696 1321 636 1321 Q576 1321 532 1264.5 Q488 1208 475 1127 Z " />
<glyph glyph-name="quotesingle" unicode="&#x27;" horiz-adv-x="315" d="M373 1334 L275 1055 L181 1055 L223 1321 L262 1560 L410 1560 L373 1334 Z " />
<glyph glyph-name="parenleft" unicode="&#x28;" horiz-adv-x="588" d="M140 590 Q203 985 371 1257.5 Q539 1530 704 1623 L710 1622 L728 1515 Q607 1413 491 1171 Q375 929 321 592 L318 572 Q261 222 300 -11 Q339 -244 429 -355 L377 -458 L371 -458 Q237 -365 156.5 -87 Q76 191 138 574 L140 590 Z " />
<glyph glyph-name="parenright" unicode="&#x29;" horiz-adv-x="591" d="M499 573 Q435 177 265.5 -93.5 Q96 -364 -71 -458 L-77 -458 L-98 -356 Q22 -253 139.5 -9.5 Q257 234 311 571 L314 591 Q369 938 328 1175 Q287 1412 202 1520 L256 1622 L262 1622 Q395 1531 478 1247.5 Q561 964 501 589 L499 573 Z " />
<glyph glyph-name="asterisk" unicode="&#x2a;" horiz-adv-x="782" d="M402 984 L167 1080 L238 1220 L468 1101 L528 1456 L670 1456 L587 1095 L859 1216 L874 1075 L594 975 L707 697 L574 610 L481 905 L273 616 L174 700 L402 984 Z " />
<glyph glyph-name="plus" unicode="&#x2b;" horiz-adv-x="987" d="M657 774 L981 774 L946 600 L623 600 L532 146 L337 146 L428 600 L104 600 L139 774 L462 774 L549 1206 L744 1206 L657 774 Z " />
<glyph glyph-name="comma" unicode="&#x2c;" horiz-adv-x="392" d="M217 24 L33 -271 L-86 -271 L31 31 L68 214 L255 214 L217 24 Z " />
<glyph glyph-name="hyphen" unicode="&#x2d;" horiz-adv-x="584" d="M526 542 L99 542 L130 697 L557 697 L526 542 Z " />
<glyph glyph-name="period" unicode="&#x2e;" horiz-adv-x="489" d="M251 0 L50 0 L91 203 L292 203 L251 0 Z " />
<glyph glyph-name="slash" unicode="&#x2f;" horiz-adv-x="672" d="M59 -125 L-98 -125 L676 1456 L833 1456 L59 -125 Z " />
<glyph glyph-name="zero" unicode="0" horiz-adv-x="965" d="M897 563 Q836 262 706 120.5 Q576 -21 395 -21 Q228 -21 147.5 132.5 Q67 286 123 563 L188 892 Q248 1192 379 1334.5 Q510 1477 692 1477 Q858 1477 937.5 1322.5 Q1017 1168 962 892 L897 563 Z M768 921 Q810 1132 781.5 1225.5 Q753 1319 663 1314 L657 1315 Q576 1319 505 1217 Q434 1115 395 921 L318 535 Q275 325 304 229.5 Q333 134 424 140 L430 139 Q510 134 581 237 Q652 340 691 535 L768 921 Z " />
<glyph glyph-name="one" unicode="1" horiz-adv-x="965" d="M524 -2 L324 -2 L575 1253 L302 1234 L328 1365 L815 1457 L524 -2 Z " />
<glyph glyph-name="two" unicode="2" horiz-adv-x="965" d="M812 0 L30 0 L52 135 L517 661 Q630 797 679.5 886.5 Q729 976 744 1061 Q763 1181 729.5 1251 Q696 1321 617 1321 Q522 1321 457 1240 Q392 1159 371 1023 L179 1023 L177 1029 Q203 1224 329 1350.5 Q455 1477 642 1477 Q806 1477 890.5 1363.5 Q975 1250 946 1067 Q924 936 846.5 819 Q769 702 627 549 L310 159 L313 154 L837 154 L812 0 Z " />
<glyph glyph-name="three" unicode="3" horiz-adv-x="965" d="M382 776 L389 818 L524 818 Q614 818 668.5 886 Q723 954 742 1068 Q761 1191 727.5 1256 Q694 1321 606 1321 Q531 1321 468 1253 Q405 1185 388 1076 L198 1076 L196 1082 Q220 1258 341.5 1367.5 Q463 1477 627 1477 Q794 1477 883 1368.5 Q972 1260 942 1066 Q925 965 862.5 877 Q800 789 703 744 Q798 701 835 609.5 Q872 518 854 402 Q821 197 693.5 88 Q566 -21 389 -21 Q232 -21 134 88 Q36 197 68 392 L268 392 Q248 272 289 202.5 Q330 133 416 133 Q503 133 567.5 203 Q632 273 653 400 Q675 542 637 603.5 Q599 665 499 665 L364 665 L382 776 Z " />
<glyph glyph-name="four" unicode="4" horiz-adv-x="965" d="M778 497 L924 497 L893 342 L747 342 L679 0 L479 0 L547 342 L47 342 L64 456 L765 1456 L970 1456 L778 497 Z M268 497 L578 497 L709 1153 L703 1155 L681 1121 L268 497 Z " />
<glyph glyph-name="five" unicode="5" horiz-adv-x="965" d="M172 654 L367 1456 L992 1456 L965 1289 L507 1289 L402 857 Q443 895 492.5 919.5 Q542 944 600 946 Q766 948 838.5 818.5 Q911 689 875 465 Q839 240 721 109.5 Q603 -21 413 -21 Q262 -21 168 84.5 Q74 190 106 387 L303 391 Q282 263 319.5 198 Q357 133 437 133 Q525 133 587 221.5 Q649 310 674 463 Q698 614 664 700 Q630 786 539 786 Q463 786 416 748 Q369 710 342 637 L172 654 Z " />
<glyph glyph-name="six" unicode="6" horiz-adv-x="965" d="M727 1477 Q788 1477 845 1460 Q902 1443 944 1414 L882 1265 Q845 1292 803 1306 Q761 1320 703 1320 Q593 1320 500.5 1201.5 Q408 1083 377 888 L372 856 Q428 908 497 937.5 Q566 967 641 967 Q793 967 865 830 Q937 693 903 482 Q866 254 740.5 116.5 Q615 -21 442 -21 Q269 -21 174.5 133.5 Q80 288 124 558 L175 874 Q220 1155 374 1316 Q528 1477 727 1477 Z M568 818 Q498 818 440 781 Q382 744 343 681 L322 546 Q289 343 330.5 237.5 Q372 132 466 132 Q546 132 612.5 234.5 Q679 337 703 482 Q728 636 692.5 727 Q657 818 568 818 Z " />
<glyph glyph-name="seven" unicode="7" horiz-adv-x="965" d="M1019 1300 Q775 1023 663.5 772 Q552 521 459 139 L424 0 L225 0 L258 139 Q346 492 484 773.5 Q622 1055 824 1300 L206 1300 L231 1456 L1044 1456 L1019 1300 Z " />
<glyph glyph-name="eight" unicode="8" horiz-adv-x="965" d="M976 1076 Q951 953 882 867.5 Q813 782 714 742 Q804 695 847 603 Q890 511 867 392 Q824 179 698.5 79 Q573 -21 394 -21 Q228 -21 135.5 87 Q43 195 83 392 Q110 525 188 617 Q266 709 379 750 Q299 795 263 880.5 Q227 966 250 1076 Q290 1280 407.5 1378.5 Q525 1477 692 1477 Q843 1477 928 1370.5 Q1013 1264 976 1076 Z M669 399 Q694 527 655 598.5 Q616 670 531 670 Q451 670 380 593.5 Q309 517 286 399 Q259 266 297 199.5 Q335 133 425 133 Q504 133 574 205 Q644 277 669 399 Z M773 1071 Q796 1187 765 1254 Q734 1321 661 1321 Q591 1321 531.5 1252.5 Q472 1184 450 1071 Q426 951 456.5 887.5 Q487 824 563 824 Q631 824 690.5 892 Q750 960 773 1071 Z " />
<glyph glyph-name="nine" unicode="9" horiz-adv-x="965" d="M379 133 Q478 133 561 236.5 Q644 340 675 531 L685 594 Q635 526 572.5 492 Q510 458 442 458 Q282 458 203.5 594 Q125 730 162 957 Q199 1189 330.5 1333 Q462 1477 626 1477 Q801 1477 890 1331.5 Q979 1186 937 918 L876 538 Q832 262 690 120.5 Q548 -21 355 -21 Q298 -21 234 -5.5 Q170 10 120 39 L170 187 Q217 158 266 145.5 Q315 133 379 133 Z M488 610 Q558 610 616.5 655 Q675 700 713 771 L740 938 Q771 1134 735 1227.5 Q699 1321 604 1321 Q529 1321 458 1215 Q387 1109 363 957 Q337 797 369.5 703.5 Q402 610 488 610 Z " />
<glyph glyph-name="colon" unicode="&#x3a;" horiz-adv-x="471" d="M251 0 L50 0 L91 203 L292 203 L251 0 Z M427 878 L226 878 L267 1081 L468 1081 L427 878 Z " />
<glyph glyph-name="semicolon" unicode="&#x3b;" horiz-adv-x="465" d="M423 879 L222 879 L263 1082 L464 1082 L423 879 Z M255 24 L71 -271 L-48 -271 L69 31 L106 214 L293 214 L255 24 Z " />
<glyph glyph-name="less" unicode="&#x3c;" horiz-adv-x="866" d="M299 567 L234 553 L234 547 L293 533 L714 293 L675 101 L73 477 L94 581 L104 628 L855 1002 L817 810 L299 567 Z " />
<glyph glyph-name="equal" unicode="&#x3d;" horiz-adv-x="967" d="M905 808 L206 808 L238 968 L937 968 L905 808 Z M821 390 L122 390 L154 550 L853 550 L821 390 Z " />
<glyph glyph-name="greater" unicode="&#x3e;" horiz-adv-x="884" d="M189 814 L227 1002 L850 628 L841 583 L829 521 L820 476 L47 101 L85 290 L624 537 L688 550 L688 556 L631 571 L189 814 Z " />
<glyph glyph-name="question" unicode="&#x3f;" horiz-adv-x="831" d="M282 408 Q309 541 347 598.5 Q385 656 494 750 Q579 841 628.5 913 Q678 985 698 1083 Q720 1200 690 1258 Q660 1316 581 1316 Q521 1316 461 1258.5 Q401 1201 381 1103 L189 1103 L187 1109 Q218 1282 337 1379.5 Q456 1477 613 1477 Q773 1477 853.5 1370.5 Q934 1264 899 1086 Q871 947 796.5 848.5 Q722 750 599 641 Q543 590 521.5 543 Q500 496 483 408 L282 408 Z M404 0 L199 0 L239 198 L444 198 L404 0 Z " />
<glyph glyph-name="at" unicode="&#x40;" horiz-adv-x="1569" d="M1493 509 Q1442 293 1314 136 Q1186 -21 993 -21 Q931 -21 892 25 Q853 71 850 154 Q792 67 725 23.5 Q658 -20 582 -20 Q476 -20 436 101.5 Q396 223 449 416 Q521 671 650.5 825.5 Q780 980 921 980 Q1007 980 1063 952 Q1119 924 1173 873 L1170 870 L1174 870 L1015 293 Q985 177 999 135 Q1013 93 1049 100 L1055 99 Q1146 94 1233 212.5 Q1320 331 1364 509 Q1454 885 1363 1095 Q1272 1305 993 1305 Q751 1305 539.5 1074 Q328 843 244 478 Q154 108 250.5 -112.5 Q347 -333 610 -333 Q679 -333 762.5 -311.5 Q846 -290 905 -257 L914 -364 Q849 -406 757 -429.5 Q665 -453 582 -453 Q275 -453 138 -199.5 Q1 54 100 478 Q200 903 449 1162.5 Q698 1422 1020 1422 Q1323 1422 1456 1172.5 Q1589 923 1493 509 Z M615 416 Q577 273 587.5 194 Q598 115 658 115 Q707 115 757.5 146.5 Q808 178 860 258 Q861 265 863 273 Q865 281 868 293 L1015 830 Q996 841 974.5 847 Q953 853 928 853 Q834 853 753.5 742 Q673 631 615 416 Z " />
<glyph glyph-name="A" unicode="A" horiz-adv-x="1098" d="M757 368 L323 368 L149 0 L-54 0 L663 1456 L856 1456 L987 0 L784 0 L757 368 Z M400 529 L745 529 L701 1149 L695 1150 L400 529 Z " />
<glyph glyph-name="B" unicode="B" horiz-adv-x="1083" d="M53 0 L344 1456 L735 1456 Q920 1456 1016.5 1356 Q1113 1256 1075 1064 Q1052 953 987.5 875.5 Q923 798 826 764 Q933 738 973.5 641 Q1014 544 988 412 Q945 198 819 99 Q693 0 497 0 L53 0 Z M390 679 L285 154 L528 154 Q622 154 692.5 221.5 Q763 289 788 411 Q814 542 782.5 610.5 Q751 679 654 679 L390 679 Z M419 825 L636 825 Q720 828 785.5 889.5 Q851 951 873 1060 Q898 1188 855.5 1244 Q813 1300 704 1300 L514 1300 L419 825 Z " />
<glyph glyph-name="C" unicode="C" horiz-adv-x="1077" d="M1004 459 L1006 453 Q948 226 824 102.5 Q700 -21 501 -21 Q305 -21 191.5 159 Q78 339 132 603 L184 863 Q242 1156 385 1316.5 Q528 1477 732 1477 Q928 1477 1036 1341.5 Q1144 1206 1116 978 L917 978 Q935 1142 885.5 1231.5 Q836 1321 712 1321 Q604 1321 514.5 1193 Q425 1065 385 865 L333 603 Q289 388 340.5 260.5 Q392 133 518 133 Q627 133 695.5 212 Q764 291 812 459 L1004 459 Z " />
<glyph glyph-name="D" unicode="D" horiz-adv-x="1110" d="M53 0 L344 1456 L695 1456 Q906 1456 1031 1273 Q1156 1090 1103 823 L1061 616 Q1002 319 847 159.5 Q692 0 469 0 L53 0 Z M514 1300 L285 154 L494 154 Q624 154 721.5 280.5 Q819 407 861 616 L903 826 Q945 1040 876 1170 Q807 1300 658 1300 L514 1300 Z " />
<glyph glyph-name="E" unicode="E" horiz-adv-x="981" d="M900 676 L389 676 L285 154 L878 154 L847 0 L53 0 L344 1456 L1132 1456 L1101 1300 L514 1300 L420 831 L931 831 L900 676 Z " />
<glyph glyph-name="F" unicode="F" horiz-adv-x="983" d="M894 647 L383 647 L254 0 L53 0 L344 1456 L1139 1456 L1108 1300 L514 1300 L414 802 L925 802 L894 647 Z " />
<glyph glyph-name="G" unicode="G" horiz-adv-x="1152" d="M973 207 Q908 120 786.5 49.5 Q665 -21 498 -21 Q293 -21 180 120.5 Q67 262 118 514 L204 946 Q257 1216 408 1346.5 Q559 1477 775 1477 Q974 1477 1071 1362 Q1168 1247 1136 1048 L1134 1043 L943 1043 Q965 1179 917.5 1250 Q870 1321 747 1321 Q630 1321 535 1224 Q440 1127 405 948 L318 514 Q278 315 335 224 Q392 133 529 133 Q619 133 683 169.5 Q747 206 783 259 L849 590 L618 590 L647 737 L1079 737 L973 207 Z " />
<glyph glyph-name="H" unicode="H" horiz-adv-x="1198" d="M974 0 L775 0 L903 642 L382 642 L254 0 L53 0 L344 1456 L545 1456 L413 797 L934 797 L1066 1456 L1265 1456 L974 0 Z " />
<glyph glyph-name="I" unicode="I" horiz-adv-x="502" d="M265 0 L65 0 L356 1456 L556 1456 L265 0 Z " />
<glyph glyph-name="J" unicode="J" horiz-adv-x="954" d="M827 1456 L1027 1456 L819 417 Q776 202 650.5 90.5 Q525 -21 356 -21 Q189 -21 101 89.5 Q13 200 56 408 L257 408 Q227 261 263 197 Q299 133 387 133 Q458 133 525.5 211 Q593 289 619 417 L827 1456 Z " />
<glyph glyph-name="K" unicode="K" horiz-adv-x="1027" d="M479 654 L372 654 L242 0 L41 0 L332 1456 L533 1456 L406 824 L522 824 L955 1456 L1215 1456 L655 732 L939 0 L709 0 L479 654 Z " />
<glyph glyph-name="L" unicode="L" horiz-adv-x="919" d="M285 154 L823 154 L792 0 L53 0 L344 1456 L545 1456 L285 154 Z " />
<glyph glyph-name="M" unicode="M" horiz-adv-x="1423" d="M597 1456 L676 270 L682 269 L1236 1456 L1495 1456 L1204 0 L1005 0 L1117 559 L1243 1100 L1237 1102 L691 0 L559 0 L454 1099 L448 1099 L359 559 L247 0 L48 0 L339 1456 L597 1456 Z " />
<glyph glyph-name="N" unicode="N" horiz-adv-x="1199" d="M974 0 L774 0 L473 1069 L467 1068 L254 0 L53 0 L344 1456 L545 1456 L847 391 L853 392 L1065 1456 L1265 1456 L974 0 Z " />
<glyph glyph-name="O" unicode="O" horiz-adv-x="1152" d="M1091 596 Q1032 303 878 141 Q724 -21 506 -21 Q305 -21 191.5 160.5 Q78 342 131 607 L182 859 Q240 1152 389 1314.5 Q538 1477 752 1477 Q957 1477 1075 1294 Q1193 1111 1141 847 L1091 596 Z M942 849 Q984 1063 921.5 1190 Q859 1317 720 1317 Q603 1317 513 1191.5 Q423 1066 382 861 L331 607 Q288 390 346 263.5 Q404 137 537 137 Q659 137 754 263 Q849 389 891 596 L942 849 Z " />
<glyph glyph-name="P" unicode="P" horiz-adv-x="1093" d="M369 574 L254 0 L53 0 L344 1456 L804 1456 Q986 1456 1078.5 1332 Q1171 1208 1133 1015 Q1091 803 959 688.5 Q827 574 628 574 L369 574 Z M400 730 L659 730 Q758 730 833 812.5 Q908 895 932 1013 Q958 1144 920 1222 Q882 1300 773 1300 L514 1300 L400 730 Z " />
<glyph glyph-name="Q" unicode="Q" horiz-adv-x="1167" d="M1093 596 Q1060 435 998 312 Q936 189 849 110 L1003 -110 L851 -221 L691 12 Q648 -4 602 -12.5 Q556 -21 508 -21 Q307 -21 193.5 160.5 Q80 342 133 607 L184 859 Q242 1152 391 1314.5 Q540 1477 754 1477 Q959 1477 1077 1294 Q1195 1111 1143 847 L1093 596 Z M944 849 Q986 1063 923.5 1190 Q861 1317 722 1317 Q605 1317 515 1191.5 Q425 1066 384 861 L333 607 Q290 390 348 263.5 Q406 137 539 137 Q661 137 756 263 Q851 389 893 596 L944 849 Z " />
<glyph glyph-name="R" unicode="R" horiz-adv-x="1118" d="M379 627 L254 0 L53 0 L344 1455 L779 1455 Q964 1455 1056.5 1346 Q1149 1237 1110 1041 Q1085 918 1018.5 834.5 Q952 751 846 706 Q939 667 970 578.5 Q1001 490 977 365 L952 238 Q937 168 938.5 112 Q940 56 966 23 L961 0 L754 0 Q728 33 732 99 Q736 165 752 240 L777 363 Q802 492 764.5 559.5 Q727 627 636 627 L379 627 Z M410 782 L634 782 Q741 782 812.5 850 Q884 918 908 1037 Q935 1169 896 1234.5 Q857 1300 748 1300 L514 1300 L410 782 Z " />
<glyph glyph-name="S" unicode="S" horiz-adv-x="1034" d="M756 333 Q779 450 735 515 Q691 580 557 647 Q367 723 285 827.5 Q203 932 241 1120 Q275 1293 399 1385 Q523 1477 696 1477 Q885 1477 987.5 1357 Q1090 1237 1049 1029 L848 1029 Q874 1163 824 1242 Q774 1321 665 1321 Q588 1321 523.5 1262.5 Q459 1204 443 1122 Q419 1002 461.5 941 Q504 880 653 809 Q838 732 915.5 627 Q993 522 956 335 Q920 157 795.5 68 Q671 -21 492 -21 Q305 -21 181 86.5 Q57 194 107 420 L109 425 L302 425 Q269 261 338.5 197 Q408 133 523 133 Q600 133 669.5 190.5 Q739 248 756 333 Z " />
<glyph glyph-name="T" unicode="T" horiz-adv-x="979" d="M1117 1300 L764 1300 L504 0 L304 0 L564 1300 L213 1300 L244 1456 L1148 1456 L1117 1300 Z " />
<glyph glyph-name="U" unicode="U" horiz-adv-x="1115" d="M1209 1456 L1007 447 Q959 206 815 92.5 Q671 -21 466 -21 Q281 -21 177.5 101.5 Q74 224 119 447 L321 1456 L519 1456 L317 447 Q284 281 333.5 207 Q383 133 497 133 Q606 133 690.5 210.5 Q775 288 807 447 L1009 1456 L1209 1456 Z " />
<glyph glyph-name="V" unicode="V" horiz-adv-x="1080" d="M500 322 L506 243 L512 242 L543 321 L1003 1456 L1215 1456 L566 0 L373 0 L191 1456 L404 1456 L500 322 Z " />
<glyph glyph-name="W" unicode="W" horiz-adv-x="1487" d="M1052 432 L1058 432 L1404 1456 L1600 1456 L1089 0 L904 0 L837 1020 L831 1021 L435 0 L251 0 L207 1456 L403 1456 L423 433 L429 432 L823 1456 L982 1456 L1052 432 Z " />
<glyph glyph-name="X" unicode="X" horiz-adv-x="1073" d="M606 889 L612 888 L944 1456 L1180 1456 L706 735 L962 0 L722 0 L566 581 L560 581 L218 0 L-19 0 L466 735 L223 1456 L457 1456 L606 889 Z " />
<glyph glyph-name="Y" unicode="Y" horiz-adv-x="1061" d="M594 762 L600 761 L1017 1456 L1240 1456 L646 522 L542 0 L343 0 L451 539 L233 1456 L457 1456 L594 762 Z " />
<glyph glyph-name="Z" unicode="Z" horiz-adv-x="953" d="M250 154 L833 154 L802 0 L18 0 L20 125 L765 1301 L250 1301 L281 1456 L1024 1456 L1000 1335 L250 154 Z " />
<glyph glyph-name="bracketleft" unicode="&#x5b;" horiz-adv-x="495" d="M639 1519 L501 1519 L231 -167 L369 -167 L345 -319 L4 -319 L323 1672 L664 1672 L639 1519 Z " />
<glyph glyph-name="backslash" unicode="&#x5c;" horiz-adv-x="715" d="M234 1456 L428 1456 L603 -125 L408 -125 L234 1456 Z " />
<glyph glyph-name="bracketright" unicode="&#x5d;" horiz-adv-x="495" d="M220 1672 L564 1672 L245 -319 L-99 -319 L-75 -167 L66 -167 L336 1519 L195 1519 L220 1672 Z " />
<glyph glyph-name="asciicircum" unicode="&#x5e;" horiz-adv-x="734" d="M284 729 L115 729 L501 1456 L644 1456 L739 729 L572 729 L527 1173 L527 1215 L521 1216 L504 1173 L284 729 Z " />
<glyph glyph-name="underscore" unicode="&#x5f;" horiz-adv-x="769" d="M638 -152 L-100 -152 L-70 0 L668 0 L638 -152 Z " />
<glyph glyph-name="grave" unicode="&#x60;" horiz-adv-x="580" d="M590 1211 L424 1211 L242 1477 L472 1477 L590 1211 Z " />
<glyph glyph-name="a" unicode="a" horiz-adv-x="922" d="M552 0 Q550 40 550 74 Q550 108 554 141 Q497 69 424.5 24 Q352 -21 275 -21 Q153 -21 91.5 67 Q30 155 59 297 Q92 462 207.5 545.5 Q323 629 509 629 L649 629 L671 740 Q691 845 662.5 897.5 Q634 950 557 950 Q494 950 441 899.5 Q388 849 374 775 L183 776 L181 782 Q203 915 320.5 1008.5 Q438 1102 600 1102 Q744 1102 825 1006 Q906 910 872 738 L771 236 Q758 170 754 114 Q750 58 755 0 L552 0 Z M352 135 Q413 135 476.5 177 Q540 219 579 281 L623 503 L481 503 Q401 503 339 442 Q277 381 261 298 Q245 220 268 177.5 Q291 135 352 135 Z " />
<glyph glyph-name="b" unicode="b" horiz-adv-x="960" d="M895 490 Q843 233 738.5 106 Q634 -21 469 -21 Q396 -21 338 19.5 Q280 60 245 132 L203 0 L29 0 L341 1560 L542 1560 L429 1000 Q478 1050 536 1076 Q594 1102 660 1102 Q814 1102 882 933.5 Q950 765 899 511 L895 490 Z M699 511 Q738 710 713 827 Q688 944 585 944 Q527 944 476.5 899.5 Q426 855 386 782 L282 261 Q297 201 337 168.5 Q377 136 443 136 Q537 136 598.5 228.5 Q660 321 695 490 L699 511 Z " />
<glyph glyph-name="c" unicode="c" horiz-adv-x="889" d="M426 133 Q494 133 553 191.5 Q612 250 628 348 L807 348 L809 342 Q786 183 668.5 81 Q551 -21 402 -21 Q216 -21 131.5 117.5 Q47 256 80 465 L104 614 Q139 833 262.5 967.5 Q386 1102 581 1102 Q733 1102 816 991 Q899 880 871 703 L684 703 Q702 815 667 880.5 Q632 946 556 946 Q452 946 389.5 851 Q327 756 305 614 L281 465 Q257 313 286.5 223 Q316 133 426 133 Z " />
<glyph glyph-name="d" unicode="d" horiz-adv-x="960" d="M103 548 Q158 825 266 963.5 Q374 1102 539 1102 Q606 1102 661 1069.5 Q716 1037 752 977 L869 1560 L1069 1560 L757 0 L582 0 L590 96 Q538 38 476 8.5 Q414 -21 344 -21 Q194 -21 122.5 136 Q51 293 98 527 L103 548 Z M299 527 Q262 346 291 241 Q320 136 420 136 Q475 136 524 175 Q573 214 613 282 L719 812 Q702 873 663.5 908.5 Q625 944 565 944 Q473 944 406.5 836.5 Q340 729 304 548 L299 527 Z " />
<glyph glyph-name="e" unicode="e" horiz-adv-x="899" d="M417 -21 Q239 -21 146 114 Q53 249 87 456 L112 614 Q147 834 275.5 968 Q404 1102 573 1102 Q743 1102 820.5 975 Q898 848 865 639 L843 499 L293 499 L286 456 Q262 310 304 221.5 Q346 133 454 133 Q531 133 594 160 Q657 187 716 237 L759 111 Q701 53 613 16 Q525 -21 417 -21 Z M548 946 Q470 946 406.5 860 Q343 774 316 644 L667 644 L674 685 Q693 804 662.5 875 Q632 946 548 946 Z " />
<glyph glyph-name="f" unicode="f" horiz-adv-x="607" d="M97 0 L284 937 L151 937 L180 1082 L313 1082 L341 1221 Q378 1405 473.5 1493 Q569 1581 716 1581 Q742 1581 771 1575 Q800 1569 834 1560 L785 1411 Q770 1416 750.5 1419 Q731 1422 708 1422 Q649 1422 605 1369 Q561 1316 542 1221 L514 1082 L691 1082 L662 937 L485 937 L298 0 L97 0 Z " />
<glyph glyph-name="g" unicode="g" horiz-adv-x="960" d="M103 548 Q157 824 266.5 963 Q376 1102 542 1102 Q616 1102 674 1065 Q732 1028 766 960 L804 1082 L977 1082 L765 19 Q719 -205 591.5 -321 Q464 -437 271 -437 Q210 -437 137.5 -415.5 Q65 -394 15 -359 L88 -207 Q130 -238 184.5 -255.5 Q239 -273 301 -273 Q398 -273 467 -194.5 Q536 -116 564 20 L575 75 Q526 27 469 3 Q412 -21 348 -21 Q197 -21 124 136.5 Q51 294 98 527 L103 548 Z M299 527 Q263 347 292.5 241.5 Q322 136 423 136 Q480 136 528.5 173.5 Q577 211 616 279 L723 815 Q706 875 667.5 909.5 Q629 944 568 944 Q476 944 408 836 Q340 728 304 548 L299 527 Z " />
<glyph glyph-name="h" unicode="h" horiz-adv-x="960" d="M418 958 L423 954 Q475 1025 544 1063.5 Q613 1102 690 1102 Q820 1102 880 992.5 Q940 883 896 662 L764 0 L563 0 L696 664 Q728 824 700.5 884 Q673 944 591 944 Q537 944 484 907 Q431 870 388 807 L227 0 L26 0 L338 1560 L539 1560 L418 958 Z " />
<glyph glyph-name="i" unicode="i" horiz-adv-x="455" d="M242 0 L42 0 L258 1082 L458 1082 L242 0 Z M515 1366 L315 1366 L354 1560 L554 1560 L515 1366 Z " />
<glyph glyph-name="j" unicode="j" horiz-adv-x="459" d="M466 1082 L235 -74 Q197 -259 106 -348 Q15 -437 -123 -437 Q-149 -437 -172.5 -432.5 Q-196 -428 -222 -419 L-180 -264 Q-165 -270 -146.5 -274 Q-128 -278 -112 -278 Q-65 -278 -25 -226.5 Q15 -175 35 -74 L266 1082 L466 1082 Z M520 1369 L319 1369 L357 1560 L558 1560 L520 1369 Z " />
<glyph glyph-name="k" unicode="k" horiz-adv-x="893" d="M409 496 L329 496 L230 0 L30 0 L342 1560 L542 1560 L360 651 L438 651 L743 1082 L970 1082 L973 1077 L585 596 L805 0 L572 0 L409 496 Z " />
<glyph glyph-name="l" unicode="l" horiz-adv-x="455" d="M242 0 L42 0 L354 1560 L554 1560 L242 0 Z " />
<glyph glyph-name="m" unicode="m" horiz-adv-x="1462" d="M412 946 Q468 1022 540.5 1062 Q613 1102 700 1102 Q777 1102 828.5 1053 Q880 1004 894 907 Q952 1000 1029 1051 Q1106 1102 1199 1102 Q1322 1102 1378.5 986.5 Q1435 871 1390 643 L1261 0 L1060 0 L1189 644 Q1224 822 1200.5 883 Q1177 944 1099 944 Q1040 944 985.5 889.5 Q931 835 892 748 Q888 720 886 706.5 Q884 693 881 678 L745 0 L545 0 L674 644 Q708 816 683.5 880 Q659 944 583 944 Q527 944 478 906 Q429 868 389 802 L229 0 L30 0 L246 1082 L429 1082 L412 946 Z " />
<glyph glyph-name="n" unicode="n" horiz-adv-x="960" d="M408 933 Q467 1015 540.5 1058.5 Q614 1102 697 1102 Q824 1102 882 995 Q940 888 897 671 L763 0 L562 0 L696 669 Q727 830 700.5 887 Q674 944 590 944 Q536 944 483.5 904.5 Q431 865 387 797 L228 0 L27 0 L243 1082 L427 1082 L408 933 Z " />
<glyph glyph-name="o" unicode="o" horiz-adv-x="960" d="M105 609 Q140 833 268 967.5 Q396 1102 586 1102 Q765 1102 854 962 Q943 822 909 609 L887 471 Q851 246 723.5 112.5 Q596 -21 408 -21 Q227 -21 137.5 118 Q48 257 83 471 L105 609 Z M283 471 Q258 317 293 225 Q328 133 432 133 Q528 133 595 229 Q662 325 686 471 L708 609 Q732 760 697.5 853 Q663 946 561 946 Q462 946 395 850 Q328 754 305 609 L283 471 Z " />
<glyph glyph-name="p" unicode="p" horiz-adv-x="960" d="M893 487 Q842 232 737 105.5 Q632 -21 469 -21 Q398 -21 342 9 Q286 39 249 95 L147 -416 L-54 -416 L245 1082 L425 1082 L416 988 Q466 1044 527.5 1073 Q589 1102 659 1102 Q811 1102 879.5 932 Q948 762 898 508 L893 487 Z M697 508 Q736 704 707.5 824 Q679 944 579 944 Q525 944 476.5 904 Q428 864 389 797 L279 246 Q296 191 334.5 162 Q373 133 437 133 Q529 133 594 227.5 Q659 322 692 487 L697 508 Z " />
<glyph glyph-name="q" unicode="q" horiz-adv-x="960" d="M103 548 Q158 825 266 963.5 Q374 1102 539 1102 Q610 1102 666.5 1068 Q723 1034 758 971 L794 1082 L968 1082 L669 -416 L468 -416 L567 79 Q518 30 462 4.5 Q406 -21 344 -21 Q194 -21 122.5 136 Q51 293 98 527 L103 548 Z M299 527 Q262 346 291 239.5 Q320 133 420 133 Q473 133 519.5 168 Q566 203 604 266 L717 830 Q699 884 661 915 Q623 946 565 946 Q473 946 406.5 837.5 Q340 729 304 548 L299 527 Z " />
<glyph glyph-name="r" unicode="r" horiz-adv-x="616" d="M658 911 L567 916 Q513 916 466.5 877 Q420 838 384 768 L230 0 L29 0 L245 1082 L428 1082 L413 938 L418 935 Q463 1014 522 1058 Q581 1102 649 1102 Q667 1102 686.5 1098.5 Q706 1095 718 1090 L658 911 Z " />
<glyph glyph-name="s" unicode="s" horiz-adv-x="860" d="M565 271 Q575 336 544 378 Q513 420 413 473 Q264 537 198 611 Q132 685 151 802 Q172 931 279.5 1016.5 Q387 1102 542 1102 Q695 1102 778 1006.5 Q861 911 835 771 L833 766 L640 766 Q652 846 621 900 Q590 954 519 954 Q452 954 403.5 910 Q355 866 347 810 Q336 746 364 711.5 Q392 677 497 618 Q650 557 716 479.5 Q782 402 763 281 Q740 142 631 60.5 Q522 -21 361 -21 Q196 -21 110 82 Q24 185 51 319 L53 324 L241 324 Q227 219 269.5 172.5 Q312 126 387 126 Q457 126 505.5 167 Q554 208 565 271 Z " />
<glyph glyph-name="t" unicode="t" horiz-adv-x="612" d="M553 1351 L499 1082 L658 1082 L629 937 L470 937 L342 293 Q324 203 340 170.5 Q356 138 395 138 Q416 138 437 141 Q458 144 485 150 L477 10 Q441 -4 399 -12.5 Q357 -21 313 -21 Q208 -21 158.5 55.5 Q109 132 142 293 L270 937 L137 937 L166 1082 L299 1082 L353 1351 L553 1351 Z " />
<glyph glyph-name="u" unicode="u" horiz-adv-x="960" d="M584 0 L599 133 Q542 57 471.5 18 Q401 -21 318 -21 Q187 -21 127 94 Q67 209 114 443 L241 1082 L441 1082 L313 441 Q277 263 300 199.5 Q323 136 398 136 Q464 136 519 172.5 Q574 209 617 276 L778 1082 L979 1082 L763 0 L584 0 Z " />
<glyph glyph-name="v" unicode="v" horiz-adv-x="863" d="M400 325 L402 249 L408 249 L435 325 L727 1082 L934 1082 L453 0 L276 0 L140 1082 L348 1082 L400 325 Z " />
<glyph glyph-name="w" unicode="w" horiz-adv-x="1256" d="M867 363 L873 362 L1149 1082 L1341 1082 L889 0 L725 0 L686 708 L680 710 L359 0 L193 0 L174 1082 L365 1082 L358 371 L364 369 L685 1082 L829 1082 L867 363 Z " />
<glyph glyph-name="x" unicode="x" horiz-adv-x="863" d="M465 688 L471 687 L691 1082 L920 1082 L563 548 L756 0 L528 0 L430 407 L424 408 L196 0 L-32 0 L336 548 L149 1082 L376 1082 L465 688 Z " />
<glyph glyph-name="y" unicode="y" horiz-adv-x="863" d="M397 373 L398 313 L404 312 L750 1082 L968 1082 L358 -168 Q301 -279 222.5 -358 Q144 -437 27 -437 Q4 -437 -23.5 -431.5 Q-51 -426 -77 -419 L-25 -269 Q-14 -271 3.5 -273 Q21 -275 31 -275 Q82 -275 127.5 -222.5 Q173 -170 203 -105 L258 3 L156 1082 L374 1082 L397 373 Z " />
<glyph glyph-name="z" unicode="z" horiz-adv-x="836" d="M239 154 L711 154 L680 0 L-7 0 L19 128 L626 925 L186 925 L217 1082 L877 1082 L852 956 L239 154 Z " />
<glyph glyph-name="braceleft" unicode="&#x7b;" horiz-adv-x="578" d="M370 -373 Q222 -318 174.5 -198 Q127 -78 155 91 L189 303 Q207 419 179.5 480 Q152 541 73 541 L91 657 L96 687 Q171 687 220.5 749.5 Q270 812 288 923 L322 1138 Q350 1315 434 1430.5 Q518 1546 682 1597 L688 1596 L707 1489 Q624 1453 577.5 1362.5 Q531 1272 510 1138 L476 923 Q458 812 406.5 732 Q355 652 270 611 Q339 567 366 486 Q393 405 377 303 L343 91 Q320 -48 337.5 -134.5 Q355 -221 429 -258 L370 -373 Z " />
<glyph glyph-name="bar" unicode="&#x7c;" horiz-adv-x="440" d="M175 -270 L40 -270 L316 1456 L451 1456 L175 -270 Z " />
<glyph glyph-name="braceright" unicode="&#x7d;" horiz-adv-x="578" d="M-77 -264 Q6 -227 53 -137.5 Q100 -48 123 85 L157 297 Q174 410 226.5 490 Q279 570 368 609 Q294 650 266.5 730.5 Q239 811 256 917 L290 1132 Q312 1270 293.5 1358 Q275 1446 203 1483 L261 1597 Q408 1542 455.5 1422.5 Q503 1303 476 1132 L442 917 Q423 800 450.5 740.5 Q478 681 558 681 L552 644 L535 535 Q459 535 409.5 471 Q360 407 343 297 L309 85 Q280 -90 196 -206 Q112 -322 -51 -373 L-57 -372 L-77 -264 Z " />
<glyph glyph-name="asciitilde" unicode="&#x7e;" horiz-adv-x="1119" d="M1061 745 Q1037 598 951 500 Q865 402 758 402 Q690 402 635.5 436.5 Q581 471 527 544 Q492 594 461 618 Q430 642 392 642 Q347 642 303.5 585.5 Q260 529 247 446 L112 466 Q135 613 218.5 708 Q302 803 411 803 Q476 803 533.5 766.5 Q591 730 644 662 Q677 610 707.5 587 Q738 564 777 564 Q822 564 865.5 622.5 Q909 681 923 765 L1061 745 Z " />
<glyph glyph-name="exclamdown" unicode="&#xa1;" horiz-adv-x="467" d="M169 -374 L-32 -374 L162 596 L363 596 L169 -374 Z M418 869 L217 869 L259 1082 L460 1082 L418 869 Z " />
<glyph glyph-name="cent" unicode="&#xa2;" horiz-adv-x="957" d="M447 133 Q515 133 574 191.5 Q633 250 649 348 L828 348 L831 342 Q810 199 711 101 Q612 3 480 -16 L435 -245 L274 -245 L321 -8 Q187 29 130 158.5 Q73 288 101 465 L125 614 Q156 815 264 946 Q372 1077 542 1098 L587 1318 L748 1318 L701 1087 Q809 1053 862 950 Q915 847 892 703 L705 703 Q723 815 688 880.5 Q653 946 577 946 Q473 946 410.5 851 Q348 756 326 614 L302 465 Q278 313 307.5 223 Q337 133 447 133 Z " />
<glyph glyph-name="sterling" unicode="&#xa3;" horiz-adv-x="998" d="M450 618 L427 477 Q407 379 368 296 Q329 213 275 154 L872 154 L841 0 L46 0 L77 154 L83 154 Q124 167 163 266.5 Q202 366 224 473 L248 618 L118 618 L148 773 L274 773 L319 1036 Q363 1255 477.5 1366 Q592 1477 753 1477 Q910 1477 987 1367.5 Q1064 1258 1029 1082 L828 1082 Q854 1213 822.5 1267 Q791 1321 722 1321 Q659 1321 602.5 1245 Q546 1169 520 1036 L476 773 L784 773 L754 618 L450 618 Z " />
<glyph glyph-name="currency" unicode="&#xa4;" horiz-adv-x="1240" d="M871 105 Q794 44 708 12 Q622 -20 534 -20 Q453 -20 382 14.5 Q311 49 258 113 L115 -26 L23 92 L181 244 Q149 323 142 415.5 Q135 508 156 608 Q177 720 221.5 817 Q266 914 329 993 L234 1144 L373 1264 L462 1122 Q536 1176 618.5 1205 Q701 1234 785 1234 Q862 1234 930.5 1201 Q999 1168 1053 1109 L1212 1265 L1303 1144 L1133 979 Q1165 899 1173 804.5 Q1181 710 1161 608 Q1139 501 1097.5 407.5 Q1056 314 999 237 L1092 92 L954 -27 L871 105 Z M307 608 Q264 397 339.5 265 Q415 133 565 133 Q701 133 836.5 273 Q972 413 1011 608 Q1052 817 977 948.5 Q902 1080 754 1080 Q617 1080 481 940 Q345 800 307 608 Z " />
<glyph glyph-name="yen" unicode="&#xa5;" horiz-adv-x="1032" d="M592 835 L598 834 L976 1456 L1199 1456 L721 726 L953 726 L922 571 L640 571 L614 439 L896 439 L865 284 L583 284 L526 0 L325 0 L382 284 L96 284 L127 439 L413 439 L439 571 L153 571 L184 726 L425 726 L240 1456 L463 1456 L592 835 Z " />
<glyph glyph-name="brokenbar" unicode="&#xa6;" horiz-adv-x="436" d="M-18 -270 L139 514 L327 514 L170 -270 L-18 -270 Z M364 698 L176 698 L327 1456 L515 1456 L364 698 Z " />
<glyph glyph-name="section" unicode="&#xa7;" horiz-adv-x="1052" d="M956 444 Q936 345 882.5 277 Q829 209 747 171 Q800 121 817.5 52 Q835 -17 816 -118 Q779 -301 652.5 -392.5 Q526 -484 335 -484 Q162 -484 54 -380.5 Q-54 -277 -10 -56 L190 -54 Q159 -209 212.5 -269 Q266 -329 366 -329 Q456 -329 526 -269.5 Q596 -210 615 -120 Q633 -25 592 22.5 Q551 70 410 129 Q227 192 152.5 283 Q78 374 112 546 Q131 643 184.5 712 Q238 781 320 820 Q267 870 249.5 939.5 Q232 1009 253 1109 Q288 1286 416.5 1381.5 Q545 1477 735 1477 Q915 1477 1007 1362.5 Q1099 1248 1059 1047 L859 1047 Q884 1172 844.5 1246.5 Q805 1321 704 1321 Q607 1321 539 1261 Q471 1201 454 1111 Q433 1008 471.5 961.5 Q510 915 656 857 Q842 791 915.5 702.5 Q989 614 956 444 Z M551 697 Q519 707 493.5 717 Q468 727 447 738 Q396 715 361.5 667 Q327 619 315 556 Q293 449 331 401.5 Q369 354 515 292 Q542 282 566.5 272 Q591 262 614 253 Q667 275 705 323 Q743 371 756 434 Q775 532 733 583 Q691 634 551 697 Z " />
<glyph glyph-name="dieresis" unicode="&#xa8;" horiz-adv-x="914" d="M895 1271 L693 1271 L723 1456 L925 1456 L895 1271 Z M485 1271 L283 1271 L313 1456 L515 1456 L485 1271 Z " />
<glyph glyph-name="copyright" unicode="&#xa9;" horiz-adv-x="1383" d="M974 596 L976 590 Q954 434 869 358 Q784 282 651 282 Q521 282 456 389.5 Q391 497 419 669 L438 788 Q466 967 561.5 1071 Q657 1175 794 1175 Q920 1175 984.5 1093.5 Q1049 1012 1026 861 L899 861 Q915 967 884 1013 Q853 1059 775 1059 Q698 1059 640.5 983 Q583 907 564 789 L545 669 Q524 541 556 469 Q588 397 670 397 Q744 397 791.5 444.5 Q839 492 855 596 L974 596 Z M235 729 Q189 448 305 267 Q421 86 631 86 Q830 86 1010 273.5 Q1190 461 1233 729 Q1277 1008 1161 1187.5 Q1045 1367 836 1367 Q636 1367 456.5 1180.5 Q277 994 235 729 Z M135 729 Q187 1056 393.5 1266 Q600 1476 853 1476 Q1092 1476 1237 1258.5 Q1382 1041 1333 729 Q1280 401 1072.5 190 Q865 -21 614 -21 Q374 -21 229 197.5 Q84 416 135 729 Z " />
<glyph glyph-name="ordfeminine" unicode="&#xaa;" horiz-adv-x="762" d="M559 706 Q557 730 557.5 754.5 Q558 779 561 804 Q524 755 473 723.5 Q422 692 360 692 Q271 692 227.5 754.5 Q184 817 205 920 Q228 1035 306 1090.5 Q384 1146 518 1146 L626 1146 L638 1202 Q653 1277 637 1314 Q621 1351 575 1351 Q525 1351 487 1319 Q449 1287 438 1231 L311 1243 L309 1249 Q326 1353 405.5 1415 Q485 1477 600 1477 Q701 1477 753 1404.5 Q805 1332 779 1201 L716 887 Q705 833 701 790.5 Q697 748 700 706 L559 706 Z M419 814 Q456 814 507 847 Q558 880 581 919 L606 1043 L498 1043 Q441 1043 398 1007.5 Q355 972 346 924 Q334 868 352 841 Q370 814 419 814 Z " />
<glyph glyph-name="guillemotleft" unicode="&#xab;" horiz-adv-x="831" d="M268 516 L388 123 L252 123 L98 508 L99 514 L100 521 L101 527 L409 911 L545 911 L268 516 Z M562 516 L682 123 L546 123 L392 508 L393 514 L394 521 L395 527 L703 911 L839 911 L562 516 Z " />
<glyph glyph-name="logicalnot" unicode="&#xac;" horiz-adv-x="938" d="M832 649 L831 649 L778 378 L619 378 L672 649 L160 649 L188 792 L860 792 L832 649 Z " />
<glyph glyph-name="registered" unicode="&#xae;" horiz-adv-x="1384" d="M134 729 Q186 1056 393 1266 Q600 1476 853 1476 Q1092 1476 1237 1258.5 Q1382 1041 1333 729 Q1280 401 1072.5 190 Q865 -21 614 -21 Q374 -21 228.5 197.5 Q83 416 134 729 Z M234 729 Q188 448 304 267 Q420 86 631 86 Q830 86 1009.5 273.5 Q1189 461 1232 729 Q1276 1008 1160.5 1187.5 Q1045 1367 836 1367 Q635 1367 455.5 1180.5 Q276 994 234 729 Z M600 660 L545 316 L421 316 L557 1166 L793 1166 Q916 1166 980 1100 Q1044 1034 1025 911 Q1014 846 978.5 799.5 Q943 753 883 723 Q934 695 951.5 641.5 Q969 588 958 515 L949 459 Q942 416 940 384.5 Q938 353 942 332 L940 316 L814 316 Q810 338 814.5 379.5 Q819 421 826 460 L834 514 Q846 593 824 626.5 Q802 660 736 660 L600 660 Z M618 776 L741 776 Q800 776 845.5 811 Q891 846 901 908 Q914 988 886 1019.5 Q858 1051 774 1051 L662 1051 L618 776 Z " />
<glyph glyph-name="&amp;#xaf;" unicode="&#xaf;" horiz-adv-x="857" d="M878 1324 L268 1324 L289 1456 L899 1456 L878 1324 Z " />
<glyph glyph-name="&amp;#x2c9;" unicode="&#x2c9;" horiz-adv-x="857" d="M878 1324 L268 1324 L289 1456 L899 1456 L878 1324 Z " />
<glyph glyph-name="degree" unicode="&#xb0;" horiz-adv-x="685" d="M279 1216 Q301 1329 381 1403 Q461 1477 554 1477 Q638 1477 690.5 1398.5 Q743 1320 722 1216 Q699 1101 621 1030 Q543 959 451 959 Q365 959 311 1034.5 Q257 1110 279 1216 Z M394 1216 Q381 1153 404.5 1115.5 Q428 1078 475 1078 Q516 1078 555.5 1117.5 Q595 1157 607 1216 Q620 1280 597.5 1318.5 Q575 1357 530 1357 Q487 1357 446 1316 Q405 1275 394 1216 Z " />
<glyph glyph-name="plusminus" unicode="&#xb1;" horiz-adv-x="953" d="M643 873 L935 873 L910 716 L618 716 L552 302 L372 302 L438 716 L137 716 L162 873 L463 873 L529 1280 L709 1280 L643 873 Z M736 21 L63 21 L94 176 L767 176 L736 21 Z " />
<glyph glyph-name="twosuperior" unicode="&#xb2;" horiz-adv-x="723" d="M648 667 L157 667 L181 788 L482 1055 Q546 1115 569.5 1154 Q593 1193 602 1238 Q613 1294 599 1325 Q585 1356 541 1356 Q496 1356 461.5 1320 Q427 1284 417 1230 L270 1230 L268 1236 Q284 1343 366 1411 Q448 1479 567 1479 Q672 1479 725.5 1415 Q779 1351 757 1237 Q740 1153 689.5 1096 Q639 1039 520 937 L378 794 L381 788 L672 788 L648 667 Z " />
<glyph glyph-name="threesuperior" unicode="&#xb3;" horiz-adv-x="724" d="M392 1130 L490 1130 Q538 1130 570.5 1160.5 Q603 1191 614 1245 Q624 1296 605 1325.5 Q586 1355 536 1355 Q495 1355 462 1327 Q429 1299 421 1255 L276 1255 L274 1261 Q290 1365 370 1421.5 Q450 1478 558 1478 Q669 1478 730.5 1417.5 Q792 1357 771 1250 Q759 1189 720.5 1143.5 Q682 1098 626 1074 Q677 1050 699.5 1002 Q722 954 709 888 Q685 770 602.5 712.5 Q520 655 398 655 Q293 655 227 714.5 Q161 774 188 886 L190 891 L339 891 Q327 836 348.5 806 Q370 776 421 776 Q468 776 506 807.5 Q544 839 555 892 Q568 960 546 988.5 Q524 1017 467 1017 L369 1017 L385 1096 L392 1130 Z " />
<glyph glyph-name="acute" unicode="&#xb4;" horiz-adv-x="605" d="M442 1478 L663 1478 L665 1472 L396 1212 L237 1212 L442 1478 Z " />
<glyph glyph-name="mu" unicode="&#xb5;" horiz-adv-x="1007" d="M461 1082 L336 456 Q296 257 322.5 195.5 Q349 134 430 134 Q496 134 548.5 172 Q601 210 639 281 L799 1082 L999 1082 L783 0 L599 0 L609 77 Q564 28 511 3.5 Q458 -21 397 -21 Q351 -21 314.5 -5 Q278 11 254 44 L162 -416 L-38 -416 L261 1082 L461 1082 Z " />
<glyph glyph-name="paragraph" unicode="&#xb6;" horiz-adv-x="868" d="M441 0 L545 520 L478 520 Q303 520 219 652 Q135 784 176 988 Q219 1208 346.5 1332 Q474 1456 665 1456 L933 1456 L642 0 L441 0 Z " />
<glyph glyph-name="periodcentered" unicode="&#xb7;" horiz-adv-x="496" d="M377 606 L177 606 L220 820 L420 820 L377 606 Z " />
<glyph glyph-name="cedilla" unicode="&#xb8;" horiz-adv-x="454" d="M188 2 L167 -56 Q217 -66 243 -107 Q269 -148 253 -228 Q232 -332 154 -386 Q76 -440 -49 -438 L-54 -435 L-38 -329 Q7 -329 43 -303.5 Q79 -278 89 -228 Q99 -175 77 -157 Q55 -139 -11 -132 L40 2 L188 2 Z " />
<glyph glyph-name="onesuperior" unicode="&#xb9;" horiz-adv-x="482" d="M401 665 L244 665 L377 1331 L275 1328 L300 1454 L563 1477 L401 665 Z " />
<glyph glyph-name="ordmasculine" unicode="&#xba;" horiz-adv-x="779" d="M251 1143 Q283 1299 375 1388 Q467 1477 597 1477 Q716 1477 777 1382 Q838 1287 809 1143 L786 1026 Q754 868 662.5 780 Q571 692 442 692 Q322 692 260 786 Q198 880 228 1026 L251 1143 Z M369 1026 Q349 926 373 870.5 Q397 815 467 815 Q528 815 577.5 874.5 Q627 934 646 1026 L669 1143 Q689 1239 664.5 1295 Q640 1351 572 1351 Q510 1351 460 1291 Q410 1231 392 1143 L369 1026 Z " />
<glyph glyph-name="guillemotright" unicode="&#xbb;" horiz-adv-x="831" d="M325 946 L479 560 L477 554 L478 554 L475 541 L167 155 L31 155 L307 550 L189 946 L325 946 Z M631 946 L785 560 L783 554 L784 554 L781 541 L473 155 L337 155 L613 550 L495 946 L631 946 Z " />
<glyph glyph-name="onequarter" unicode="&#xbc;" horiz-adv-x="1267" d="M441 664 L284 664 L417 1330 L315 1327 L340 1453 L603 1476 L441 664 Z M289 121 L198 184 L999 1322 L1088 1259 L289 121 Z M1080 277 L1171 277 L1147 155 L1056 155 L1025 0 L870 0 L901 155 L568 155 L579 250 L1029 801 L1185 801 L1080 277 Z M745 277 L925 277 L988 593 L983 596 L971 580 L745 277 Z " />
<glyph glyph-name="onehalf" unicode="&#xbd;" horiz-adv-x="1335" d="M292 121 L201 184 L1002 1322 L1091 1259 L292 121 Z M434 664 L277 664 L410 1330 L308 1327 L333 1453 L596 1476 L434 664 Z M1130 0 L639 0 L663 121 L964 388 Q1028 448 1051.5 487 Q1075 526 1084 571 Q1095 627 1081 658 Q1067 689 1023 689 Q978 689 943.5 653 Q909 617 899 563 L752 563 L750 569 Q766 676 848 744 Q930 812 1049 812 Q1154 812 1207.5 748 Q1261 684 1239 570 Q1222 486 1171.5 429 Q1121 372 1002 270 L860 127 L863 121 L1154 121 L1130 0 Z " />
<glyph glyph-name="threequarters" unicode="&#xbe;" horiz-adv-x="1429" d="M451 121 L360 184 L1161 1322 L1250 1259 L451 121 Z M1231 277 L1322 277 L1298 155 L1207 155 L1176 0 L1021 0 L1052 155 L719 155 L730 250 L1180 801 L1336 801 L1231 277 Z M896 277 L1076 277 L1139 593 L1134 596 L1122 580 L896 277 Z M394 1131 L492 1131 Q540 1131 572.5 1161.5 Q605 1192 616 1246 Q626 1297 607 1326.5 Q588 1356 538 1356 Q497 1356 464 1328 Q431 1300 423 1256 L278 1256 L276 1262 Q292 1366 372 1422.5 Q452 1479 560 1479 Q671 1479 732.5 1418.5 Q794 1358 773 1251 Q761 1190 722.5 1144.5 Q684 1099 628 1075 Q679 1051 701.5 1003 Q724 955 711 889 Q687 771 604.5 713.5 Q522 656 400 656 Q295 656 229 715.5 Q163 775 190 887 L192 892 L341 892 Q329 837 350.5 807 Q372 777 423 777 Q470 777 508 808.5 Q546 840 557 893 Q570 961 548 989.5 Q526 1018 469 1018 L371 1018 L387 1097 L394 1131 Z " />
<glyph glyph-name="questiondown" unicode="&#xbf;" horiz-adv-x="853" d="M619 673 Q590 539 552 481 Q514 423 405 331 Q320 240 271 168 Q222 96 203 0 Q179 -117 208.5 -175 Q238 -233 318 -233 Q378 -233 438.5 -176 Q499 -119 520 -20 L712 -20 L714 -26 Q681 -199 561.5 -296.5 Q442 -394 286 -394 Q126 -394 46.5 -287.5 Q-33 -181 2 -3 Q29 134 103 232 Q177 330 300 440 Q356 490 377.5 536.5 Q399 583 418 673 L619 673 Z M496 1082 L700 1082 L661 883 L457 883 L496 1082 Z " />
<glyph glyph-name="AE" unicode="&#xc6;" horiz-adv-x="1576" d="M1439 0 L717 0 L777 361 L388 361 L160 0 L-79 0 L880 1456 L1681 1456 L1650 1299 L1134 1299 L1056 832 L1490 832 L1459 677 L1030 677 L943 155 L1470 155 L1439 0 Z M805 531 L914 1183 L909 1185 L495 531 L805 531 Z " />
<glyph glyph-name="multiply" unicode="&#xd7;" horiz-adv-x="945" d="M61 344 L408 682 L197 1019 L344 1138 L546 816 L877 1138 L976 1019 L630 682 L843 344 L696 225 L492 548 L160 225 L61 344 Z " />
<glyph glyph-name="Oslash" unicode="&#xd8;" horiz-adv-x="1157" d="M1046 527 Q990 251 837.5 115 Q685 -21 466 -21 Q404 -21 350 -6 Q296 9 252 39 L165 -90 L47 -90 L180 106 Q122 178 103.5 284.5 Q85 391 113 527 L193 927 Q248 1202 398.5 1339.5 Q549 1477 765 1477 Q846 1477 915.5 1450 Q985 1423 1036 1372 L1131 1512 L1249 1512 L1096 1286 Q1130 1215 1138.5 1124.5 Q1147 1034 1126 927 L1046 527 Z M311 527 Q295 450 292.5 391 Q290 332 300 295 L306 293 L925 1207 Q902 1263 853.5 1290 Q805 1317 733 1317 Q614 1317 521.5 1216.5 Q429 1116 392 930 L311 527 Z M927 930 Q934 965 938 996 Q942 1027 942 1048 L937 1050 L351 185 Q376 160 412.5 148.5 Q449 137 497 137 Q619 137 713.5 237.5 Q808 338 846 527 L927 930 Z " />
<glyph glyph-name="Thorn" unicode="&#xde;" horiz-adv-x="1016" d="M537 1456 L479 1166 L675 1166 Q858 1166 950 1044.5 Q1042 923 1006 738 Q965 534 834.5 421.5 Q704 309 504 309 L308 309 L246 0 L45 0 L336 1456 L537 1456 Z M448 1011 L339 464 L535 464 Q635 464 708.5 544.5 Q782 625 804 736 Q828 857 790.5 934 Q753 1011 644 1011 L448 1011 Z " />
<glyph glyph-name="germandbls" unicode="&#xdf;" horiz-adv-x="1042" d="M237 0 L37 0 L255 1088 Q300 1318 420.5 1430.5 Q541 1543 711 1543 Q840 1543 916 1455.5 Q992 1368 961 1210 Q936 1087 869 987 Q802 887 789 821 Q772 736 873 597.5 Q974 459 947 320 Q910 138 808 58.5 Q706 -21 541 -21 Q480 -21 414.5 -1 Q349 19 324 49 L394 203 Q422 175 466 153.5 Q510 132 561 132 Q629 132 679.5 182.5 Q730 233 747 313 Q766 408 663 544 Q560 680 588 819 Q607 917 677.5 1019.5 Q748 1122 764 1198 Q782 1289 754 1339 Q726 1389 675 1389 Q607 1389 544.5 1308.5 Q482 1228 454 1086 L237 0 Z " />
<glyph glyph-name="ae" unicode="&#xe6;" horiz-adv-x="1420" d="M933 -21 Q833 -21 759.5 25.5 Q686 72 647 157 Q585 81 488.5 30 Q392 -21 271 -21 Q134 -21 67 68 Q0 157 30 304 Q63 472 176.5 555 Q290 638 480 638 L643 638 L659 716 Q682 832 657.5 889 Q633 946 563 946 Q494 946 437.5 890.5 Q381 835 366 757 L178 773 L177 779 Q202 928 315.5 1015 Q429 1102 595 1102 Q675 1102 737 1070 Q799 1038 834 977 Q897 1038 972 1070 Q1047 1102 1131 1102 Q1291 1102 1365.5 971 Q1440 840 1398 623 L1373 499 L821 499 Q786 325 822 229 Q858 133 978 133 Q1052 133 1114 160.5 Q1176 188 1243 236 L1275 104 Q1222 57 1131.5 18 Q1041 -21 933 -21 Z M340 127 Q390 127 457.5 167 Q525 207 568 258 L616 501 L454 501 Q372 501 309 441.5 Q246 382 230 300 Q213 215 239.5 171 Q266 127 340 127 Z M1100 946 Q1021 946 956 861.5 Q891 777 856 644 L859 639 L1203 639 L1209 669 Q1235 800 1210 873 Q1185 946 1100 946 Z " />
<glyph glyph-name="eth" unicode="&#xf0;" horiz-adv-x="1002" d="M883 1292 Q952 1172 970 1006.5 Q988 841 947 637 L930 550 Q876 282 726 130.5 Q576 -21 390 -21 Q218 -21 122 119.5 Q26 260 67 462 Q116 707 250 837.5 Q384 968 568 968 Q630 968 684 938.5 Q738 909 771 859 L776 863 Q781 966 765.5 1047 Q750 1128 716 1189 L476 1041 L432 1135 L655 1272 Q628 1298 597 1319.5 Q566 1341 531 1360 L624 1517 Q682 1492 732 1457 Q782 1422 824 1376 L1034 1505 L1077 1411 L883 1292 Z M748 639 Q752 661 753 668 Q754 675 756 685 Q740 742 689.5 779.5 Q639 817 557 817 Q463 817 380.5 714 Q298 611 268 462 Q240 322 280.5 228 Q321 134 424 134 Q518 134 606 253 Q694 372 730 550 L748 639 Z " />
<glyph glyph-name="divide" unicode="&#xf7;" horiz-adv-x="969" d="M921 608 L103 608 L137 779 L955 779 L921 608 Z M691 999 L490 999 L529 1194 L730 1194 L691 999 Z M530 193 L329 193 L368 388 L569 388 L530 193 Z " />
<glyph glyph-name="oslash" unicode="&#xf8;" horiz-adv-x="961" d="M105 609 Q140 833 268 967.5 Q396 1102 586 1102 Q635 1102 678.5 1090 Q722 1078 759 1056 L852 1213 L971 1213 L836 987 Q889 919 908 821.5 Q927 724 909 609 L887 471 Q851 246 723.5 112.5 Q596 -21 408 -21 Q365 -21 326.5 -12 Q288 -3 255 13 L165 -139 L47 -139 L173 73 Q110 139 86 242 Q62 345 83 471 L105 609 Z M283 471 Q272 407 272 354.5 Q272 302 283 268 L289 267 L667 903 Q647 923 620.5 934.5 Q594 946 561 946 Q462 946 395 850 Q328 754 305 609 L283 471 Z M708 609 Q715 658 717 700.5 Q719 743 715 772 L709 774 L342 159 Q359 146 381.5 139.5 Q404 133 432 133 Q528 133 595 229 Q662 325 686 471 L708 609 Z " />
<glyph glyph-name="thorn" unicode="&#xfe;" horiz-adv-x="971" d="M898 487 Q847 232 742 105.5 Q637 -21 474 -21 Q403 -21 347 9 Q291 39 254 95 L152 -416 L-49 -416 L34 0 L50 83 L250 1082 L346 1560 L546 1560 L434 1003 Q483 1051 540.5 1076.5 Q598 1102 664 1102 Q816 1102 884.5 932 Q953 762 903 508 L898 487 Z M702 508 Q741 704 712.5 824 Q684 944 584 944 Q530 944 482 904 Q434 864 394 797 L284 246 Q301 191 340 162 Q379 133 442 133 Q534 133 599 227.5 Q664 322 697 487 L702 508 Z " />
<glyph glyph-name="Hbar" unicode="&#x126;" horiz-adv-x="1188" d="M1204 1159 L1314 1159 L1287 1026 L1178 1026 L973 0 L774 0 L902 642 L381 642 L253 0 L52 0 L257 1026 L152 1026 L179 1159 L283 1159 L343 1456 L544 1456 L484 1159 L1005 1159 L1065 1456 L1264 1456 L1204 1159 Z M412 797 L933 797 L979 1026 L458 1026 L412 797 Z " />
<glyph glyph-name="dotlessi" unicode="&#x131;" horiz-adv-x="462" d="M243 0 L42 0 L258 1082 L459 1082 L243 0 Z " />
<glyph glyph-name="kgreenlandic" unicode="&#x138;" horiz-adv-x="977" d="M415 457 L332 457 L241 0 L40 0 L256 1082 L457 1082 L366 629 L436 629 L791 1082 L1034 1082 L1036 1077 L595 577 L843 0 L588 0 L415 457 Z " />
<glyph glyph-name="Lslash" unicode="&#x141;" horiz-adv-x="879" d="M413 854 L636 931 L606 780 L383 703 L274 154 L812 154 L781 0 L42 0 L167 628 L67 593 L97 744 L197 779 L333 1456 L534 1456 L413 854 Z " />
<glyph glyph-name="lslash" unicode="&#x142;" horiz-adv-x="492" d="M436 886 L564 937 L534 786 L406 734 L259 0 L59 0 L188 647 L68 599 L98 750 L218 798 L371 1560 L571 1560 L436 886 Z " />
<glyph glyph-name="Eng" unicode="&#x14a;" horiz-adv-x="1177" d="M1257 1456 L951 -74 Q913 -259 821 -348 Q729 -437 591 -437 Q564 -437 539 -432.5 Q514 -428 489 -419 L530 -268 Q545 -273 567.5 -277 Q590 -281 608 -281 Q653 -281 691.5 -225.5 Q730 -170 750 -74 L765 0 L463 1054 L457 1054 L246 0 L45 0 L336 1456 L537 1456 L839 403 L845 403 L1056 1456 L1257 1456 Z " />
<glyph glyph-name="eng" unicode="&#x14b;" horiz-adv-x="960" d="M409 938 Q467 1017 539.5 1059.5 Q612 1102 693 1102 Q820 1102 878.5 994 Q937 886 893 666 L745 -74 Q707 -259 615 -348 Q523 -437 385 -437 Q358 -437 333 -432.5 Q308 -428 284 -419 L327 -262 Q340 -267 363 -271.5 Q386 -276 403 -276 Q447 -276 486 -222.5 Q525 -169 544 -74 L692 665 Q724 828 698.5 886 Q673 944 592 944 Q535 944 483.5 909 Q432 874 390 812 L228 0 L27 0 L243 1082 L427 1082 L409 938 Z " />
<glyph glyph-name="OE" unicode="&#x152;" horiz-adv-x="1616" d="M1445 0 L714 0 Q638 -10 584 -15.5 Q530 -21 477 -21 Q280 -21 176 147.5 Q72 316 124 576 L185 880 Q241 1162 400.5 1319.5 Q560 1477 775 1477 Q826 1477 885.5 1471 Q945 1465 1005 1456 L1730 1456 L1699 1300 L1112 1300 L1018 831 L1529 831 L1498 676 L987 676 L883 154 L1476 154 L1445 0 Z M508 134 Q550 134 594 137 Q638 140 680 147 L912 1308 Q872 1314 829.5 1318 Q787 1322 744 1322 Q625 1322 525.5 1205 Q426 1088 385 882 L324 576 Q279 353 329 243.5 Q379 134 508 134 Z " />
<glyph glyph-name="oe" unicode="&#x153;" horiz-adv-x="1517" d="M111 553 Q162 810 296 956 Q430 1102 620 1102 Q711 1102 778.5 1056.5 Q846 1011 886 930 Q954 1013 1038.5 1057.5 Q1123 1102 1215 1102 Q1380 1102 1454 970 Q1528 838 1486 625 L1461 499 L911 499 Q879 329 915 231 Q951 133 1058 133 Q1133 133 1198 160 Q1263 187 1324 237 L1361 111 Q1302 53 1212 16 Q1122 -21 1014 -21 Q922 -21 853 23 Q784 67 744 148 Q675 65 587.5 22 Q500 -21 398 -21 Q222 -21 139.5 134 Q57 289 105 526 L111 553 Z M305 526 Q268 343 296.5 238 Q325 133 429 133 Q523 133 598.5 245.5 Q674 358 708 526 L714 553 Q749 734 721 840 Q693 946 589 946 Q495 946 419 832 Q343 718 311 553 L305 526 Z M1184 946 Q1115 946 1049.5 860.5 Q984 775 945 644 L1292 644 L1297 672 Q1322 799 1295.5 872.5 Q1269 946 1184 946 Z " />
<glyph glyph-name="longs" unicode="&#x17f;" horiz-adv-x="448" d="M37 0 L281 1221 Q318 1405 413.5 1493 Q509 1581 655 1581 Q681 1581 711.5 1575 Q742 1569 775 1560 L725 1414 Q706 1419 690 1422 Q674 1425 652 1425 Q593 1425 547 1370.5 Q501 1316 482 1221 L238 0 L37 0 Z " />
<glyph glyph-name="florin" unicode="&#x192;" horiz-adv-x="608" d="M616 937 L453 937 L291 -74 Q262 -254 172.5 -345.5 Q83 -437 -54 -437 Q-81 -437 -105 -432.5 Q-129 -428 -153 -419 L-118 -268 Q-106 -273 -83 -277 Q-60 -281 -43 -281 Q3 -281 39 -226 Q75 -171 91 -74 L253 937 L120 937 L143 1082 L276 1082 L298 1221 Q326 1400 419 1490.5 Q512 1581 657 1581 Q685 1581 714.5 1575 Q744 1569 777 1560 L735 1411 Q718 1416 699 1419 Q680 1422 658 1422 Q597 1422 555 1369.5 Q513 1317 498 1221 L476 1082 L639 1082 L616 937 Z " />
<glyph glyph-name="Ohorn" unicode="&#x1a0;" horiz-adv-x="1171" d="M1044 527 Q988 251 835.5 115 Q683 -21 464 -21 Q266 -21 163 126 Q60 273 111 527 L191 927 Q246 1202 396.5 1339.5 Q547 1477 763 1477 Q870 1477 954 1431.5 Q1038 1386 1086 1301 Q1176 1323 1242 1409 Q1308 1495 1336 1631 L1504 1631 Q1463 1429 1369 1312.5 Q1275 1196 1133 1161 Q1141 1109 1138.5 1050.5 Q1136 992 1124 927 L1044 527 Z M925 930 Q965 1132 914.5 1224.5 Q864 1317 731 1317 Q612 1317 519.5 1216.5 Q427 1116 390 930 L309 527 Q268 322 316.5 229.5 Q365 137 495 137 Q617 137 711.5 237.5 Q806 338 844 527 L925 930 Z " />
<glyph glyph-name="ohorn" unicode="&#x1a1;" horiz-adv-x="981" d="M104 609 Q139 833 267 967.5 Q395 1102 585 1102 Q673 1102 741 1065.5 Q809 1029 852 963 Q917 988 964 1058 Q1011 1128 1032 1233 L1190 1233 Q1158 1078 1085 984.5 Q1012 891 899 858 Q914 802 916.5 739.5 Q919 677 908 609 L886 471 Q850 246 722.5 112.5 Q595 -21 407 -21 Q226 -21 136.5 118 Q47 257 82 471 L104 609 Z M282 471 Q257 317 292 225 Q327 133 431 133 Q527 133 594 229 Q661 325 685 471 L707 609 Q731 760 696.5 853 Q662 946 560 946 Q461 946 394 850 Q327 754 304 609 L282 471 Z " />
<glyph glyph-name="Uhorn" unicode="&#x1af;" horiz-adv-x="1192" d="M1209 1456 L1170 1264 L1175 1261 Q1258 1277 1318 1364 Q1378 1451 1407 1595 L1567 1595 L1569 1590 Q1527 1364 1421 1247 Q1315 1130 1140 1112 L1007 447 Q959 206 815 92.5 Q671 -21 466 -21 Q281 -21 177.5 101.5 Q74 224 119 447 L321 1456 L519 1456 L317 447 Q284 281 333.5 207 Q383 133 497 133 Q606 133 690.5 210.5 Q775 288 807 447 L1009 1456 L1209 1456 Z " />
<glyph glyph-name="uhorn" unicode="&#x1b0;" horiz-adv-x="1053" d="M1243 1196 L1245 1191 Q1215 1029 1139.5 944.5 Q1064 860 931 840 L763 0 L584 0 L599 133 Q542 57 471.5 18 Q401 -21 318 -21 Q187 -21 127 94 Q67 209 114 443 L241 1082 L441 1082 L313 441 Q277 263 300 199.5 Q323 136 398 136 Q464 136 519 172.5 Q574 209 617 276 L778 1082 L979 1082 L957 974 L963 972 Q1015 986 1051.5 1043 Q1088 1100 1107 1196 L1243 1196 Z " />
<glyph glyph-name="uni0237" unicode="&#x237;" horiz-adv-x="472" d="M472 1082 L241 -74 Q203 -259 112 -348 Q21 -437 -117 -437 Q-143 -437 -167.5 -432.5 Q-192 -428 -217 -419 L-175 -268 Q-161 -273 -139.5 -277 Q-118 -281 -100 -281 Q-55 -281 -16.5 -225.5 Q22 -170 42 -74 L273 1082 L472 1082 Z " />
<glyph glyph-name="schwa" unicode="&#x259;" horiz-adv-x="899" d="M561 1103 Q734 1103 820.5 950.5 Q907 798 862 569 L852 522 Q801 269 665 124.5 Q529 -20 359 -19 Q193 -19 120 111 Q47 241 90 456 L115 581 L663 581 Q694 750 658 849 Q622 948 516 948 Q442 948 376.5 920 Q311 892 252 844 L213 970 Q274 1027 363.5 1065 Q453 1103 561 1103 Z M390 134 Q458 134 524 219 Q590 304 630 437 L282 437 L277 410 Q251 281 278 207.5 Q305 134 390 134 Z " />
<glyph glyph-name="circumflex" unicode="&#x2c6;" horiz-adv-x="831" d="M856 1274 L851 1252 L690 1252 L605 1403 L459 1252 L301 1252 L306 1275 L566 1507 L684 1507 L856 1274 Z " />
<glyph glyph-name="caron" unicode="&#x2c7;" horiz-adv-x="787" d="M577 1359 L711 1509 L890 1509 L886 1492 L620 1252 L489 1252 L321 1491 L325 1509 L501 1509 L577 1359 Z " />
<glyph glyph-name="breve" unicode="&#x2d8;" horiz-adv-x="780" d="M814 1456 L816 1450 Q801 1328 716 1256 Q631 1184 505 1184 Q383 1184 319.5 1259 Q256 1334 280 1451 L282 1456 L432 1456 Q421 1387 442.5 1346.5 Q464 1306 525 1306 Q581 1306 616.5 1348.5 Q652 1391 663 1456 L814 1456 Z " />
<glyph glyph-name="dotaccent" unicode="&#x2d9;" horiz-adv-x="506" d="M516 1259 L303 1259 L343 1459 L556 1459 L516 1259 Z " />
<glyph glyph-name="ring" unicode="&#x2da;" horiz-adv-x="606" d="M303 1311 Q319 1394 379.5 1444.5 Q440 1495 515 1495 Q582 1495 624 1441 Q666 1387 651 1311 Q634 1226 575 1178 Q516 1130 442 1130 Q373 1130 330 1181.5 Q287 1233 303 1311 Z M394 1311 Q385 1267 404 1241 Q423 1215 459 1215 Q492 1215 521 1242 Q550 1269 559 1311 Q568 1357 551 1383.5 Q534 1410 498 1410 Q465 1410 433.5 1381.5 Q402 1353 394 1311 Z " />
<glyph glyph-name="ogonek" unicode="&#x2db;" horiz-adv-x="504" d="M247 0 Q187 -55 153 -99 Q119 -143 109 -197 Q101 -231 112 -255 Q123 -279 164 -279 Q185 -279 206.5 -271 Q228 -263 248 -252 L252 -369 Q219 -388 181 -400.5 Q143 -413 94 -413 Q17 -413 -27 -361 Q-71 -309 -54 -218 Q-37 -137 18 -70.5 Q73 -4 174 49 L247 0 Z " />
<glyph glyph-name="tilde" unicode="&#x2dc;" horiz-adv-x="818" d="M865 1484 Q849 1388 792.5 1327 Q736 1266 662 1266 Q608 1266 547.5 1315 Q487 1364 445 1364 Q415 1364 387.5 1330 Q360 1296 353 1248 L248 1276 Q263 1370 320.5 1433 Q378 1496 452 1496 Q495 1496 561 1446.5 Q627 1397 669 1397 Q699 1397 727 1431.5 Q755 1466 763 1515 L865 1484 Z " />
<glyph glyph-name="hungarumlaut" unicode="&#x2dd;" horiz-adv-x="690" d="M774 1518 L980 1518 L982 1512 L694 1252 L531 1252 L528 1258 L774 1518 Z M485 1518 L681 1518 L684 1512 L437 1252 L276 1252 L485 1518 Z " />
<glyph glyph-name="uni02F3" unicode="&#x2f3;" horiz-adv-x="564" d="M18 -228 Q31 -161 79 -120.5 Q127 -80 186 -80 Q239 -80 271.5 -123 Q304 -166 292 -228 Q278 -295 232 -333.5 Q186 -372 128 -372 Q73 -372 39 -330.5 Q5 -289 18 -228 Z M100 -228 Q94 -257 106.5 -275 Q119 -293 143 -293 Q164 -293 183.5 -274 Q203 -255 209 -228 Q215 -197 204 -178.5 Q193 -160 170 -160 Q148 -160 126.5 -179.5 Q105 -199 100 -228 Z " />
<glyph glyph-name="gravecomb" unicode="&#x300;" horiz-adv-x="26" d="M-202 1207 L-329 1207 L-412 1532 L-242 1532 L-202 1207 Z " />
<glyph glyph-name="acutecomb" unicode="&#x301;" horiz-adv-x="26" d="M-240 1535 L-72 1535 L-291 1210 L-411 1210 L-240 1535 Z " />
<glyph glyph-name="tildecomb" unicode="&#x303;" horiz-adv-x="27" d="M35 1484 Q19 1388 -37.5 1327 Q-94 1266 -168 1266 Q-222 1266 -282.5 1315 Q-343 1364 -385 1364 Q-415 1364 -442.5 1330 Q-470 1296 -477 1248 L-582 1276 Q-567 1370 -509.5 1433 Q-452 1496 -378 1496 Q-335 1496 -269 1446.5 Q-203 1397 -161 1397 Q-131 1397 -103 1431.5 Q-75 1466 -67 1515 L35 1484 Z " />
<glyph glyph-name="hook" unicode="&#x309;" horiz-adv-x="26" d="M-379 1245 L-359 1382 Q-294 1387 -266 1403 Q-238 1419 -231 1461 Q-222 1503 -252 1523 Q-282 1543 -335 1543 L-309 1646 Q-170 1646 -109 1599.5 Q-48 1553 -67 1462 Q-80 1393 -122 1355.5 Q-164 1318 -218 1310 L-231 1245 L-379 1245 Z " />
<glyph glyph-name="uni030F" unicode="&#x30f;" horiz-adv-x="26" d="M-229 1252 L-400 1252 L-586 1518 L-372 1518 L-229 1252 Z M18 1252 L-143 1252 L-287 1518 L-83 1518 L18 1252 Z " />
<glyph glyph-name="dotbelow" unicode="&#x323;" horiz-adv-x="26" d="M-509 -333 L-732 -333 L-692 -133 L-469 -133 L-509 -333 Z " />
<glyph glyph-name="tonos" unicode="&#x384;" horiz-adv-x="524" d="M487 1633 L685 1633 L456 1277 L358 1277 L487 1633 Z " />
<glyph glyph-name="dieresistonos" unicode="&#x385;" horiz-adv-x="903" d="M920 1274 L737 1274 L773 1456 L956 1456 L920 1274 Z M493 1274 L309 1274 L345 1456 L529 1456 L493 1274 Z M682 1722 L886 1722 L713 1472 L596 1472 L682 1722 Z " />
<glyph glyph-name="anoteleia" unicode="&#x387;" horiz-adv-x="497" d="M377 606 L177 606 L220 820 L420 820 L377 606 Z " />
<glyph glyph-name="Gamma" unicode="&#x393;" horiz-adv-x="945" d="M1058 1300 L514 1300 L254 0 L53 0 L344 1456 L1089 1456 L1058 1300 Z " />
<glyph glyph-name="&amp;#x394;" unicode="&#x394;" horiz-adv-x="1214" d="M722 1456 L915 1456 L1087 0 L-51 0 L722 1456 Z M236 154 L863 154 L759 1150 L753 1151 L236 154 Z " />
<glyph glyph-name="&amp;#x2206;" unicode="&#x2206;" horiz-adv-x="1214" d="M722 1456 L915 1456 L1087 0 L-51 0 L722 1456 Z M236 154 L863 154 L759 1150 L753 1151 L236 154 Z " />
<glyph glyph-name="Theta" unicode="&#x398;" horiz-adv-x="1157" d="M805 652 L452 652 L483 806 L836 806 L805 652 Z M1090 596 Q1031 303 877 141 Q723 -21 505 -21 Q304 -21 190.5 160.5 Q77 342 130 607 L181 859 Q239 1152 388 1314.5 Q537 1477 751 1477 Q956 1477 1074 1294 Q1192 1111 1140 847 L1090 596 Z M941 849 Q983 1063 920.5 1190 Q858 1317 719 1317 Q602 1317 512 1191.5 Q422 1066 381 861 L330 607 Q287 390 345 263.5 Q403 137 536 137 Q658 137 753 263 Q848 389 890 596 L941 849 Z " />
<glyph glyph-name="Lambda" unicode="&#x39b;" horiz-adv-x="1102" d="M703 1180 L697 1181 L162 0 L-45 0 L657 1456 L853 1456 L973 0 L766 0 L703 1180 Z " />
<glyph glyph-name="Xi" unicode="&#x39e;" horiz-adv-x="967" d="M47 154 L821 154 L790 0 L16 0 L47 154 Z M259 817 L870 817 L840 665 L229 665 L259 817 Z M317 1456 L1059 1456 L1028 1301 L286 1301 L317 1456 Z " />
<glyph glyph-name="Pi" unicode="&#x3a0;" horiz-adv-x="1199" d="M975 0 L776 0 L1036 1300 L514 1300 L254 0 L53 0 L344 1456 L1266 1456 L975 0 Z " />
<glyph glyph-name="Sigma" unicode="&#x3a3;" horiz-adv-x="967" d="M714 729 L253 159 L256 154 L846 154 L815 0 L-15 0 L10 126 L503 741 L251 1329 L276 1456 L1076 1456 L1045 1301 L483 1301 L719 756 L714 729 Z " />
<glyph glyph-name="Phi" unicode="&#x3a6;" horiz-adv-x="1254" d="M898 1273 Q1082 1269 1185.5 1113.5 Q1289 958 1243 726 Q1192 473 1036.5 327.5 Q881 182 680 179 L644 0 L445 0 L481 179 Q295 181 191 335.5 Q87 490 134 724 Q184 977 340 1123.5 Q496 1270 699 1273 L736 1456 L935 1456 L898 1273 Z M331 724 Q293 536 340 438.5 Q387 341 509 347 L515 347 L665 1102 L659 1105 Q550 1108 457.5 1002 Q365 896 331 724 Z M1045 726 Q1082 912 1035.5 1010 Q989 1108 871 1105 L865 1104 L714 350 L720 347 Q826 343 918 448.5 Q1010 554 1045 726 Z " />
<glyph glyph-name="Psi" unicode="&#x3a8;" horiz-adv-x="1196" d="M709 512 L714 510 Q815 528 896.5 632.5 Q978 737 1012 905 L1122 1456 L1323 1456 L1213 905 Q1160 642 1018 501 Q876 360 674 339 L606 0 L407 0 L475 339 Q296 364 206 513.5 Q116 663 165 905 L275 1456 L475 1456 L365 905 Q328 723 366 623 Q404 523 502 508 L508 508 L698 1456 L897 1456 L709 512 Z " />
<glyph glyph-name="&amp;#x3a9;" unicode="&#x3a9;" horiz-adv-x="1131" d="M532 56 L552 155 L554 164 Q653 199 732.5 341 Q812 483 863 737 L886 848 Q932 1085 891.5 1202.5 Q851 1320 735 1320 Q629 1320 535 1193 Q441 1066 398 848 L375 737 Q320 465 345.5 332.5 Q371 200 462 164 L460 155 L440 56 L429 0 L26 0 L57 155 L271 155 Q187 248 156.5 402 Q126 556 162 737 L184 846 Q243 1144 400.5 1310.5 Q558 1477 766 1477 Q957 1477 1055.5 1299 Q1154 1121 1099 846 L1077 737 Q1039 545 949.5 394.5 Q860 244 742 155 L955 155 L924 0 L521 0 L532 56 Z " />
<glyph glyph-name="&amp;#x2126;" unicode="&#x2126;" horiz-adv-x="1131" d="M532 56 L552 155 L554 164 Q653 199 732.5 341 Q812 483 863 737 L886 848 Q932 1085 891.5 1202.5 Q851 1320 735 1320 Q629 1320 535 1193 Q441 1066 398 848 L375 737 Q320 465 345.5 332.5 Q371 200 462 164 L460 155 L440 56 L429 0 L26 0 L57 155 L271 155 Q187 248 156.5 402 Q126 556 162 737 L184 846 Q243 1144 400.5 1310.5 Q558 1477 766 1477 Q957 1477 1055.5 1299 Q1154 1121 1099 846 L1077 737 Q1039 545 949.5 394.5 Q860 244 742 155 L955 155 L924 0 L521 0 L532 56 Z " />
<glyph glyph-name="alpha" unicode="&#x3b1;" horiz-adv-x="958" d="M968 1081 L812 302 Q793 206 801 174 Q809 142 839 142 Q843 142 849 143.5 Q855 145 862 148 L852 6 Q824 -9 799.5 -15 Q775 -21 745 -21 Q682 -21 643.5 16.5 Q605 54 598 132 Q543 57 476.5 18 Q410 -21 332 -21 Q181 -21 115 126 Q49 273 96 507 L101 528 Q155 804 273 953 Q391 1102 557 1102 Q627 1102 676.5 1062 Q726 1022 753 948 L796 1081 L968 1081 Z M298 507 Q261 325 286.5 229 Q312 133 413 133 Q467 133 516.5 172 Q566 211 607 281 Q608 288 608.5 292.5 Q609 297 611 302 L709 792 Q696 864 664.5 905 Q633 946 577 946 Q485 946 412 827.5 Q339 709 303 528 L298 507 Z " />
<glyph glyph-name="beta" unicode="&#x3b2;" horiz-adv-x="1011" d="M721 1477 Q875 1477 958 1368 Q1041 1259 1007 1086 Q986 981 927.5 901 Q869 821 785 778 Q873 733 912 635.5 Q951 538 926 413 Q881 194 762.5 86.5 Q644 -21 476 -21 Q416 -21 359 0 Q302 21 260 63 L169 -395 L-32 -395 L258 1057 Q296 1247 428 1362 Q560 1477 721 1477 Z M533 845 L592 845 Q672 845 728 908.5 Q784 972 807 1083 Q827 1185 797.5 1253 Q768 1321 690 1321 Q618 1321 549.5 1245 Q481 1169 459 1057 L291 217 Q316 176 361.5 154.5 Q407 133 470 133 Q555 133 627 211 Q699 289 723 411 Q749 541 717 618 Q685 695 598 695 L503 695 L510 731 L526 810 L533 845 Z " />
<glyph glyph-name="gamma" unicode="&#x3b3;" horiz-adv-x="863" d="M755 1082 L962 1082 L455 36 L365 -416 L166 -416 L257 40 L168 1082 L376 1082 L398 325 L397 250 L403 249 L433 325 L755 1082 Z " />
<glyph glyph-name="delta" unicode="&#x3b4;" horiz-adv-x="960" d="M997 1456 L967 1303 L623 1303 Q775 1130 861.5 943.5 Q948 757 908 553 L902 526 Q850 268 716 123.5 Q582 -21 392 -21 Q216 -21 133 131.5 Q50 284 97 518 L102 545 Q146 766 263.5 902.5 Q381 1039 538 1061 Q541 1061 543.5 1060 Q546 1059 549 1057 Q509 1125 458.5 1193.5 Q408 1262 353 1322 L380 1456 L997 1456 Z M298 526 Q261 343 289.5 238 Q318 133 423 133 Q516 133 591.5 245.5 Q667 358 701 526 L707 553 Q734 692 710 787 Q686 882 631 934 Q619 939 607 942.5 Q595 946 584 946 Q488 946 412 832 Q336 718 304 553 L298 526 Z " />
<glyph glyph-name="epsilon" unicode="&#x3b5;" horiz-adv-x="931" d="M643 519 L636 481 L478 481 Q397 481 341 437.5 Q285 394 267 307 Q250 225 287.5 177 Q325 129 412 129 Q488 129 551 184 Q614 239 630 316 L822 316 L823 310 Q793 139 669.5 60 Q546 -19 389 -19 Q228 -19 132 68 Q36 155 65 302 Q85 402 142 465.5 Q199 529 290 559 Q225 595 194.5 656 Q164 717 179 789 Q210 947 324 1023.5 Q438 1100 613 1100 Q755 1100 846 1012 Q937 924 905 787 L902 781 L709 781 Q725 860 687 905 Q649 950 576 950 Q499 950 445 901 Q391 852 378 783 Q361 703 392.5 662.5 Q424 622 506 622 L664 622 L656 584 L657 584 L651 556 L644 519 L643 519 Z " />
<glyph glyph-name="zeta" unicode="&#x3b6;" horiz-adv-x="873" d="M1000 1456 L978 1346 L601 882 Q477 730 414 622 Q351 514 326 388 Q301 269 330 210.5 Q359 152 442 152 L477 152 Q591 152 653 87.5 Q715 23 692 -92 Q668 -205 582.5 -291 Q497 -377 385 -415 L339 -284 Q394 -258 439.5 -213 Q485 -168 498 -104 Q508 -51 484.5 -25.5 Q461 0 396 0 L355 0 Q215 0 153 108.5 Q91 217 123 373 Q148 505 230.5 646.5 Q313 788 464 965 L750 1296 L748 1301 L263 1301 L294 1456 L1000 1456 Z " />
<glyph glyph-name="eta" unicode="&#x3b7;" horiz-adv-x="960" d="M409 938 Q467 1017 539.5 1059.5 Q612 1102 693 1102 Q821 1102 879.5 997 Q938 892 893 666 L677 -415 L476 -415 L692 665 Q724 828 698 887 Q672 946 592 946 Q536 946 484 910.5 Q432 875 390 813 L228 0 L27 0 L243 1082 L427 1082 L409 938 Z " />
<glyph glyph-name="theta" unicode="&#x3b8;" horiz-adv-x="985" d="M907 563 Q846 262 716 120.5 Q586 -21 405 -21 Q238 -21 157.5 132.5 Q77 286 133 563 L198 892 Q258 1192 389 1334.5 Q520 1477 702 1477 Q868 1477 947.5 1322.5 Q1027 1168 972 892 L907 563 Z M381 803 L754 803 L778 921 Q820 1132 791.5 1225.5 Q763 1319 673 1314 L667 1315 Q586 1319 515 1217 Q444 1115 405 921 L381 803 Z M724 651 L351 651 L328 535 Q285 325 314 229.5 Q343 134 434 140 L440 139 Q520 134 591 237 Q662 340 701 535 L724 651 Z " />
<glyph glyph-name="iota" unicode="&#x3b9;" horiz-adv-x="571" d="M477 1081 L318 286 Q300 196 313 166 Q326 136 364 136 Q384 136 402.5 141 Q421 146 444 156 L447 18 Q404 -4 367.5 -12.5 Q331 -21 287 -21 Q181 -21 133.5 55.5 Q86 132 119 293 L276 1081 L477 1081 Z " />
<glyph glyph-name="lambda" unicode="&#x3bb;" horiz-adv-x="936" d="M172 0 L-46 0 L474 1051 L455 1187 Q450 1264 425 1313 Q400 1362 355 1362 Q346 1362 329.5 1360 Q313 1358 300 1357 L327 1501 Q359 1509 383.5 1513.5 Q408 1518 433 1518 Q541 1518 593 1435 Q645 1352 656 1249 L761 310 Q761 239 778.5 194 Q796 149 830 147 Q839 146 846 147 Q853 148 870 151 L830 0 Q810 -6 788.5 -9.5 Q767 -13 750 -12 Q650 -9 606 67 Q562 143 550 271 L505 758 L499 759 L476 702 L172 0 Z " />
<glyph glyph-name="xi" unicode="&#x3be;" horiz-adv-x="890" d="M988 1456 L957 1298 L717 1298 Q632 1289 572 1228 Q512 1167 496 1078 Q475 978 514 928 Q553 878 662 878 L781 878 L772 834 L757 761 L749 721 L634 721 Q504 721 413 642.5 Q322 564 292 412 Q265 281 307 210.5 Q349 140 450 140 L527 140 Q643 140 705 75 Q767 10 744 -108 Q720 -224 637 -307.5 Q554 -391 438 -430 L399 -306 Q452 -278 497 -235.5 Q542 -193 555 -129 Q566 -71 546 -43 Q526 -15 468 -15 L413 -15 Q240 -15 146.5 100.5 Q53 216 93 416 Q124 572 209 668.5 Q294 765 429 805 Q349 844 311.5 911 Q274 978 291 1062 Q307 1143 345 1202 Q383 1261 442 1298 L274 1298 L305 1456 L988 1456 Z " />
<glyph glyph-name="pi" unicode="&#x3c0;" horiz-adv-x="1058" d="M1062 930 L950 930 L821 286 Q803 196 816 166 Q829 136 867 136 Q887 136 905.5 141 Q924 146 947 156 L950 18 Q907 -4 870.5 -12.5 Q834 -21 790 -21 Q684 -21 636.5 55.5 Q589 132 622 293 L749 930 L490 930 L305 0 L105 0 L290 930 L178 930 L208 1082 L1092 1082 L1062 930 Z " />
<glyph glyph-name="rho" unicode="&#x3c1;" horiz-adv-x="960" d="M895 507 Q844 252 730 115.5 Q616 -21 453 -21 Q383 -21 332 9.5 Q281 40 249 98 L147 -416 L-54 -416 L146 585 L148 585 L147 589 Q198 844 327 973 Q456 1102 631 1102 Q803 1102 876.5 942.5 Q950 783 900 528 L895 507 Z M699 528 Q738 726 715.5 835 Q693 944 596 939 L590 940 Q513 944 443 831.5 Q373 719 345 577 L281 255 Q295 196 330.5 164.5 Q366 133 428 133 Q520 133 590.5 237 Q661 341 694 507 L699 528 Z " />
<glyph glyph-name="sigma1" unicode="&#x3c2;" horiz-adv-x="892" d="M605 1102 Q752 1102 831.5 994.5 Q911 887 875 703 L687 703 Q710 821 682.5 883.5 Q655 946 574 946 Q481 946 408 832 Q335 718 304 559 L296 521 Q262 355 301 261.5 Q340 168 462 146 Q605 123 663.5 67.5 Q722 12 699 -105 Q675 -216 590 -301 Q505 -386 394 -424 L347 -293 Q402 -267 447 -223.5 Q492 -180 505 -117 Q514 -64 487 -39.5 Q460 -15 392 -2 Q198 27 124 162 Q50 297 95 521 L103 559 Q152 808 284 955 Q416 1102 605 1102 Z " />
<glyph glyph-name="sigma" unicode="&#x3c3;" horiz-adv-x="967" d="M1038 925 L813 925 Q873 856 895.5 751 Q918 646 894 522 L889 496 Q842 262 709 120.5 Q576 -21 391 -21 Q215 -21 132.5 134 Q50 289 98 526 L104 553 Q153 801 286 941.5 Q419 1082 610 1082 L1069 1082 L1038 925 Z M297 526 Q260 343 288.5 238 Q317 133 422 133 Q512 133 586.5 246 Q661 359 694 526 L700 553 Q734 723 706 824 Q678 925 579 925 Q484 925 408.5 817 Q333 709 303 553 L297 526 Z " />
<glyph glyph-name="tau" unicode="&#x3c4;" horiz-adv-x="891" d="M928 927 L645 927 L460 0 L258 0 L443 927 L165 927 L196 1082 L959 1082 L928 927 Z " />
<glyph glyph-name="upsilon" unicode="&#x3c5;" horiz-adv-x="960" d="M445 1082 L324 473 Q286 284 317 209 Q348 134 429 140 L435 139 Q522 134 594.5 257.5 Q667 381 701 550 Q725 684 728 816 Q731 948 718 1082 L916 1082 Q935 971 934.5 841.5 Q934 712 902 550 Q847 278 728.5 128.5 Q610 -21 407 -21 Q237 -21 155.5 103 Q74 227 124 475 L245 1082 L445 1082 Z " />
<glyph glyph-name="phi" unicode="&#x3c6;" horiz-adv-x="1229" d="M839 1082 Q1027 1082 1125 919 Q1223 756 1178 528 Q1131 298 995 153.5 Q859 9 619 -16 L527 -478 L326 -478 L419 -13 Q211 20 130 181 Q49 342 95 568 Q128 735 177.5 852 Q227 969 297 1082 L490 1082 Q422 951 372.5 823.5 Q323 696 296 568 Q262 402 295.5 291 Q329 180 446 155 L452 156 L638 1082 L839 1082 Z M654 157 L660 154 Q782 180 865.5 285.5 Q949 391 977 528 Q1008 694 966.5 808.5 Q925 923 812 917 L806 916 L654 157 Z " />
<glyph glyph-name="chi" unicode="&#x3c7;" horiz-adv-x="926" d="M300 1095 Q405 1095 456 1013.5 Q507 932 518 831 L542 651 L548 650 L804 1082 L1008 1082 L581 362 L645 -107 Q650 -179 666 -220.5 Q682 -262 715 -265 Q727 -265 734.5 -265 Q742 -265 754 -263 L718 -419 Q699 -425 675.5 -428 Q652 -431 632 -431 Q539 -427 497.5 -353 Q456 -279 447 -146 L417 74 L411 75 L121 -415 L-83 -415 L379 364 L325 769 Q318 843 290.5 890 Q263 937 216 937 Q208 937 192.5 935 Q177 933 161 931 L188 1080 Q218 1086 245.5 1090.5 Q273 1095 300 1095 Z " />
<glyph glyph-name="psi" unicode="&#x3c8;" horiz-adv-x="1224" d="M834 1081 L650 160 L655 157 Q778 187 864.5 306 Q951 425 982 579 Q1005 703 1005 827.5 Q1005 952 989 1082 L1183 1082 Q1208 979 1210.5 855.5 Q1213 732 1183 579 Q1130 320 993.5 164.5 Q857 9 615 -16 L526 -462 L325 -462 L414 -12 Q226 19 139.5 170 Q53 321 108 592 L206 1082 L408 1082 L310 590 Q268 381 306 277.5 Q344 174 442 157 L448 157 L633 1081 L834 1081 Z " />
<glyph glyph-name="omega" unicode="&#x3c9;" horiz-adv-x="1438" d="M541 1082 Q460 951 401.5 818 Q343 685 313 550 Q274 357 289.5 246 Q305 135 390 141 L395 140 Q462 134 526 217.5 Q590 301 626 479 L688 790 L895 790 L833 479 Q794 287 822.5 210.5 Q851 134 927 140 L933 140 Q1008 135 1072.5 253.5 Q1137 372 1173 550 Q1196 685 1191 818 Q1186 951 1157 1082 L1356 1082 Q1391 972 1398.5 842 Q1406 712 1374 550 Q1319 277 1206.5 128 Q1094 -21 906 -21 Q816 -21 756 35 Q696 91 677 199 Q618 85 536.5 32 Q455 -21 353 -21 Q179 -21 121 139.5 Q63 300 113 550 Q147 724 204 846 Q261 968 343 1082 L541 1082 Z " />
<glyph glyph-name="uni03D1" unicode="&#x3d1;" horiz-adv-x="1104" d="M508 139 Q619 139 713.5 252.5 Q808 366 848 563 L850 572 Q696 585 610.5 709.5 Q525 834 562 1015 L577 1089 Q614 1277 714.5 1377 Q815 1477 948 1477 Q1073 1477 1133 1372 Q1193 1267 1158 1089 L1053 563 Q995 277 841.5 128 Q688 -21 476 -21 Q284 -21 184.5 145.5 Q85 312 136 563 L273 1252 L482 1254 L344 563 Q303 361 346.5 250 Q390 139 508 139 Z M756 1013 Q731 889 762.5 814 Q794 739 876 734 L882 735 L955 1098 Q977 1211 965.5 1260 Q954 1309 911 1303 L905 1304 Q868 1309 830.5 1255.5 Q793 1202 773 1098 L756 1013 Z " />
<glyph glyph-name="uni03D2" unicode="&#x3d2;" horiz-adv-x="954" d="M783 1227 Q856 1361 922.5 1416 Q989 1471 1076 1471 Q1098 1471 1119 1465 Q1140 1459 1157 1447 L1108 1298 Q1103 1301 1093 1304.5 Q1083 1308 1073 1308 Q1045 1308 1017.5 1282.5 Q990 1257 965 1199 L598 554 L488 0 L289 0 L401 563 L295 1199 Q294 1258 277 1283 Q260 1308 230 1308 Q221 1308 207.5 1304.5 Q194 1301 191 1298 L203 1447 Q223 1459 245 1465 Q267 1471 292 1471 Q373 1471 421 1415.5 Q469 1360 488 1229 L537 822 L538 758 L544 757 L571 822 L783 1227 Z " />
<glyph glyph-name="uni03D6" unicode="&#x3d6;" horiz-adv-x="1361" d="M1429 934 L1313 934 Q1323 850 1319 755 Q1315 660 1293 550 Q1238 278 1134 128.5 Q1030 -21 861 -21 Q773 -21 715.5 33.5 Q658 88 640 194 Q581 83 502.5 31 Q424 -21 326 -21 Q170 -21 121 140 Q72 301 122 550 Q145 666 178 760 Q211 854 253 934 L151 934 L180 1082 L1458 1082 L1429 934 Z M1092 550 Q1109 646 1112 741.5 Q1115 837 1106 934 L460 934 Q412 838 377 742 Q342 646 322 550 Q283 357 290.5 246 Q298 135 365 142 L371 141 Q433 134 493.5 218 Q554 302 590 479 L639 723 L847 723 L798 479 Q759 287 784.5 210.5 Q810 134 882 141 L888 141 Q945 135 1000.5 253.5 Q1056 372 1092 550 Z " />
<glyph glyph-name="uni0402" unicode="&#x402;" horiz-adv-x="1262" d="M1130 1300 L731 1300 L639 844 Q705 865 761 877.5 Q817 890 861 890 Q1049 890 1144.5 770.5 Q1240 651 1196 431 Q1153 221 1027 105 Q901 -11 691 -7 L686 -4 L714 134 Q831 134 900 214.5 Q969 295 995 427 Q1024 575 982 652 Q940 729 829 729 Q781 729 724.5 718 Q668 707 608 689 L471 0 L269 0 L529 1300 L215 1300 L246 1456 L1161 1456 L1130 1300 Z " />
<glyph glyph-name="uni0404" unicode="&#x404;" horiz-adv-x="1101" d="M1008 460 L1010 454 Q952 227 828 103.5 Q704 -20 505 -20 Q309 -20 195.5 160 Q82 340 136 604 L188 864 Q246 1157 389 1317.5 Q532 1478 736 1478 Q932 1478 1040 1342.5 Q1148 1207 1120 979 L921 979 Q939 1143 889.5 1232.5 Q840 1322 716 1322 Q608 1322 518.5 1194 Q429 1066 389 866 L378 813 L788 813 L757 658 L347 658 L337 604 Q293 389 344.5 261.5 Q396 134 522 134 Q631 134 699.5 213 Q768 292 816 460 L1008 460 Z " />
<glyph glyph-name="uni0409" unicode="&#x409;" horiz-adv-x="1787" d="M1261 1456 L1148 889 L1390 889 Q1571 889 1664.5 763 Q1758 637 1720 445 Q1677 235 1543.5 117.5 Q1410 0 1212 0 L770 0 L1030 1300 L675 1300 L573 788 Q489 374 352.5 187 Q216 0 3 0 L-35 0 L-4 154 L27 154 Q141 154 221.5 296.5 Q302 439 372 788 L505 1456 L1261 1456 Z M1117 735 L1001 154 L1243 154 Q1342 154 1419 240.5 Q1496 327 1520 447 Q1545 573 1505.5 654 Q1466 735 1359 735 L1117 735 Z " />
<glyph glyph-name="uni040A" unicode="&#x40a;" horiz-adv-x="1792" d="M416 814 L937 814 L1066 1456 L1266 1456 L1147 861 L1389 861 Q1571 861 1666 740 Q1761 619 1724 433 Q1682 229 1548.5 114.5 Q1415 0 1217 0 L775 0 L906 659 L385 659 L254 0 L53 0 L344 1456 L545 1456 L416 814 Z M1116 706 L1007 160 L1249 160 Q1348 160 1424.5 240.5 Q1501 321 1524 435 Q1548 556 1507 631 Q1466 706 1358 706 L1116 706 Z " />
<glyph glyph-name="uni040B" unicode="&#x40b;" horiz-adv-x="1335" d="M1133 1300 L732 1300 L645 864 Q700 878 758 886 Q816 894 875 894 Q1068 894 1161.5 783 Q1255 672 1209 438 L1121 0 L921 0 L1009 438 Q1044 615 1004 677 Q964 739 844 739 Q795 739 734 730.5 Q673 722 613 707 L472 0 L270 0 L530 1300 L228 1300 L259 1456 L1164 1456 L1133 1300 Z " />
<glyph glyph-name="uni040F" unicode="&#x40f;" horiz-adv-x="1193" d="M338 1456 L539 1456 L279 154 L800 154 L1060 1456 L1261 1456 L970 0 L617 0 L546 -356 L345 -356 L416 0 L47 0 L338 1456 Z " />
<glyph glyph-name="uni0411" unicode="&#x411;" horiz-adv-x="1064" d="M1050 1300 L506 1300 L418 862 L659 862 Q843 862 938 743.5 Q1033 625 996 435 Q954 226 820.5 113 Q687 0 487 0 L45 0 L336 1456 L1081 1456 L1050 1300 Z M387 707 L277 154 L518 154 Q619 154 695 236 Q771 318 795 437 Q820 561 779.5 634 Q739 707 628 707 L387 707 Z " />
<glyph glyph-name="uni0414" unicode="&#x414;" horiz-adv-x="1268" d="M1046 -355 L864 -355 L935 0 L158 0 L87 -356 L-93 -356 L-12 154 L83 154 Q157 223 242 399 Q327 575 397 891 L540 1456 L1278 1456 L1018 154 L1167 154 L1046 -355 Z M599 891 Q540 637 459 452.5 Q378 268 286 154 L818 154 L1047 1300 L702 1300 L599 891 Z " />
<glyph glyph-name="uni0416" unicode="&#x416;" horiz-adv-x="1604" d="M1082 661 L955 661 L823 0 L623 0 L755 661 L624 661 L196 0 L-54 0 L490 784 L263 1456 L505 1456 L662 824 L787 824 L914 1456 L1114 1456 L987 824 L1111 824 L1517 1456 L1759 1456 L1265 785 L1493 0 L1244 0 L1082 661 Z " />
<glyph glyph-name="uni0417" unicode="&#x417;" horiz-adv-x="1025" d="M451 819 L589 819 Q689 819 757.5 886 Q826 953 849 1067 Q873 1186 830.5 1253.5 Q788 1321 676 1321 Q593 1321 516 1250 Q439 1179 418 1071 L226 1071 L224 1077 Q258 1267 394.5 1372 Q531 1477 707 1477 Q891 1477 990 1368 Q1089 1259 1050 1065 Q1027 954 959 870 Q891 786 791 742 Q881 699 920 612 Q959 525 935 402 Q893 190 751.5 84.5 Q610 -21 408 -21 Q245 -21 136 87.5 Q27 196 72 399 L75 404 L269 404 Q244 280 291 206.5 Q338 133 439 133 Q545 133 627.5 207.5 Q710 282 734 400 Q762 545 718.5 605 Q675 665 558 665 L420 665 L427 701 L443 780 L451 819 Z " />
<glyph glyph-name="uni0418" unicode="&#x418;" horiz-adv-x="1193" d="M1060 1456 L1261 1456 L970 0 L769 0 L978 1045 L973 1048 L250 0 L49 0 L340 1456 L541 1456 L332 410 L337 407 L1060 1456 Z " />
<glyph glyph-name="uni041B" unicode="&#x41b;" horiz-adv-x="1194" d="M1261 1456 L970 0 L770 0 L1030 1300 L654 1300 L552 788 Q463 347 340 173.5 Q217 0 14 0 L-35 0 L-4 154 L28 154 Q140 156 210 293.5 Q280 431 352 788 L485 1456 L1261 1456 Z " />
<glyph glyph-name="uni0423" unicode="&#x423;" horiz-adv-x="1066" d="M575 737 L587 642 L593 641 L1002 1456 L1222 1456 L578 254 Q496 120 420 49.5 Q344 -21 220 -21 Q201 -21 174.5 -18 Q148 -15 139 -12 L170 138 Q177 135 201 134 Q225 133 239 133 Q294 133 335.5 177 Q377 221 415 299 L456 376 L267 1456 L485 1456 L575 737 Z " />
<glyph glyph-name="uni0424" unicode="&#x424;" horiz-adv-x="1347" d="M954 1314 L966 1314 Q1163 1314 1274.5 1146.5 Q1386 979 1336 727 Q1281 453 1114 296.5 Q947 140 731 140 L720 140 L680 -60 L480 -60 L520 140 L507 140 Q309 140 197.5 306.5 Q86 473 137 725 Q192 999 359 1156.5 Q526 1314 742 1314 L754 1314 L795 1516 L995 1516 L954 1314 Z M710 1155 Q583 1155 477.5 1036 Q372 917 334 725 Q292 516 346 407.5 Q400 299 539 299 L552 299 L723 1155 L710 1155 Z M923 1155 L752 299 L765 299 Q891 299 996 417 Q1101 535 1139 727 Q1181 935 1127 1045 Q1073 1155 936 1155 L923 1155 Z " />
<glyph glyph-name="uni0426" unicode="&#x426;" horiz-adv-x="1259" d="M339 1456 L539 1456 L279 154 L799 154 L1059 1456 L1260 1456 L1000 156 L1141 156 L1024 -351 L841 -351 L911 0 L48 0 L339 1456 Z " />
<glyph glyph-name="uni0427" unicode="&#x427;" horiz-adv-x="1168" d="M1235 1456 L944 0 L743 0 L865 611 Q797 589 725 577 Q653 565 582 565 Q387 565 293 675.5 Q199 786 247 1022 L334 1456 L534 1456 L447 1022 Q411 843 451 781.5 Q491 720 613 720 Q674 720 751 732 Q828 744 896 766 L1034 1456 L1235 1456 Z " />
<glyph glyph-name="uni0428" unicode="&#x428;" horiz-adv-x="1596" d="M544 1456 L284 154 L646 154 L906 1456 L1106 1456 L846 154 L1204 154 L1464 1456 L1665 1456 L1374 0 L52 0 L343 1456 L544 1456 Z " />
<glyph glyph-name="uni0429" unicode="&#x429;" horiz-adv-x="1678" d="M544 1456 L284 154 L646 154 L906 1456 L1106 1456 L846 154 L1204 154 L1464 1456 L1665 1456 L1405 154 L1550 154 L1433 -351 L1250 -351 L1320 0 L52 0 L343 1456 L544 1456 Z " />
<glyph glyph-name="uni042A" unicode="&#x42a;" horiz-adv-x="1288" d="M238 1456 L762 1456 L643 862 L884 862 Q1068 862 1163 743.5 Q1258 625 1221 435 Q1179 226 1045.5 113 Q912 0 712 0 L271 0 L531 1301 L207 1301 L238 1456 Z M612 707 L502 154 L743 154 Q844 154 920 236 Q996 318 1020 437 Q1045 561 1004.5 634 Q964 707 853 707 L612 707 Z " />
<glyph glyph-name="uni042B" unicode="&#x42b;" horiz-adv-x="1464" d="M426 862 L667 862 Q851 862 946 743.5 Q1041 625 1004 435 Q962 226 828.5 113 Q695 0 495 0 L54 0 L345 1456 L545 1456 L426 862 Z M1238 0 L1038 0 L1329 1456 L1529 1456 L1238 0 Z M395 707 L285 154 L526 154 Q627 154 703 236 Q779 318 803 437 Q828 561 787.5 634 Q747 707 636 707 L395 707 Z " />
<glyph glyph-name="uni042C" unicode="&#x42c;" horiz-adv-x="1062" d="M418 862 L659 862 Q843 862 938 743.5 Q1033 625 996 435 Q954 226 820.5 113 Q687 0 487 0 L46 0 L337 1456 L537 1456 L418 862 Z M387 707 L277 154 L518 154 Q619 154 695 236 Q771 318 795 437 Q820 561 779.5 634 Q739 707 628 707 L387 707 Z " />
<glyph glyph-name="uni042D" unicode="&#x42d;" horiz-adv-x="1099" d="M237 989 L235 995 Q277 1226 419 1352 Q561 1478 767 1478 Q955 1478 1050 1301.5 Q1145 1125 1092 858 L1040 598 Q981 307 827 143.5 Q673 -20 467 -20 Q275 -20 176 110 Q77 240 123 466 L324 466 Q289 295 333 214.5 Q377 134 498 134 Q607 134 702.5 265 Q798 396 838 596 L853 673 L436 673 L466 827 L884 827 L891 858 Q934 1076 894.5 1199 Q855 1322 735 1322 Q624 1322 542 1235 Q460 1148 429 989 L237 989 Z " />
<glyph glyph-name="uni042E" unicode="&#x42e;" horiz-adv-x="1546" d="M1496 596 Q1437 303 1283 141 Q1129 -21 911 -21 Q710 -21 596.5 160.5 Q483 342 536 607 L540 630 L388 630 L262 0 L62 0 L353 1456 L553 1456 L419 785 L572 785 L587 859 Q645 1152 794 1314.5 Q943 1477 1157 1477 Q1362 1477 1480 1294 Q1598 1111 1546 847 L1496 596 Z M1347 849 Q1389 1063 1326.5 1190 Q1264 1317 1125 1317 Q1008 1317 918 1191.5 Q828 1066 787 861 L736 607 Q693 390 751 263.5 Q809 137 942 137 Q1064 137 1159 263 Q1254 389 1296 596 L1347 849 Z " />
<glyph glyph-name="uni042F" unicode="&#x42f;" horiz-adv-x="1047" d="M172 0 L-44 0 L350 634 Q255 686 221 778.5 Q187 871 216 1015 Q257 1221 399.5 1338.5 Q542 1456 728 1456 L1121 1456 L830 0 L629 0 L742 568 L519 568 L172 0 Z M889 1300 L697 1300 Q584 1300 514.5 1228.5 Q445 1157 416 1012 Q390 884 435 802 Q480 720 581 720 L773 720 L889 1300 Z " />
<glyph glyph-name="uni0431" unicode="&#x431;" horiz-adv-x="954" d="M605 1016 Q773 1016 855 877 Q937 738 903 524 L899 497 Q860 258 732 118.5 Q604 -21 414 -21 Q233 -21 146 124.5 Q59 270 96 497 L97 508 L119 646 Q173 986 312.5 1171.5 Q452 1357 640 1398 Q731 1420 778 1453 Q825 1486 837 1554 L990 1554 L993 1548 Q968 1376 886.5 1321.5 Q805 1267 633 1237 Q535 1218 457 1137.5 Q379 1057 338 913 L342 908 Q395 957 463.5 986.5 Q532 1016 605 1016 Z M554 861 Q457 861 389.5 764 Q322 667 300 524 L296 497 Q269 332 302 232.5 Q335 133 438 133 Q535 133 603.5 236.5 Q672 340 698 497 L702 524 Q726 676 691.5 768.5 Q657 861 554 861 Z " />
<glyph glyph-name="uni0432" unicode="&#x432;" horiz-adv-x="965" d="M42 0 L258 1082 L613 1082 Q775 1082 861.5 1006 Q948 930 920 786 Q903 703 850.5 643.5 Q798 584 715 555 Q806 532 843 464 Q880 396 862 305 Q829 144 726 72 Q623 0 452 0 L42 0 Z M337 476 L272 152 L482 152 Q551 152 599.5 194.5 Q648 237 664 315 Q679 396 651.5 436 Q624 476 547 476 L337 476 Z M365 619 L525 619 Q600 619 651 658 Q702 697 717 771 Q733 855 700 891 Q667 927 582 927 L427 927 L365 619 Z " />
<glyph glyph-name="uni0433" unicode="&#x433;" horiz-adv-x="718" d="M793 925 L417 925 L232 0 L32 0 L248 1082 L824 1082 L793 925 Z " />
<glyph glyph-name="uni0434" unicode="&#x434;" horiz-adv-x="1052" d="M62 154 Q153 242 207 353.5 Q261 465 315 694 L401 1082 L1010 1082 L824 154 L947 154 L836 -320 L652 -320 L716 0 L162 0 L98 -320 L-86 -320 L-9 154 L62 154 Z M515 694 Q469 506 406 373.5 Q343 241 265 154 L625 154 L777 915 L563 915 L515 694 Z " />
<glyph glyph-name="uni0436" unicode="&#x436;" horiz-adv-x="1371" d="M892 462 L792 462 L700 0 L500 0 L592 462 L495 462 L201 0 L-53 0 L366 590 L182 1082 L432 1082 L537 635 L626 635 L716 1082 L916 1082 L826 635 L920 635 L1203 1082 L1451 1082 L1070 589 L1255 0 L1000 0 L892 462 Z " />
<glyph glyph-name="uni0437" unicode="&#x437;" horiz-adv-x="870" d="M481 624 Q548 624 590 666 Q632 708 648 783 Q663 860 639.5 905 Q616 950 542 950 Q481 950 427 902 Q373 854 359 781 L168 781 L166 787 Q191 936 303.5 1018 Q416 1100 565 1100 Q717 1100 798 1017.5 Q879 935 850 789 Q833 708 784 647 Q735 586 662 553 Q729 519 757.5 455 Q786 391 768 302 Q736 142 622 61.5 Q508 -19 341 -19 Q205 -19 113.5 67 Q22 153 58 311 L60 316 L252 316 Q235 232 268 180.5 Q301 129 378 129 Q449 129 501 179.5 Q553 230 568 307 Q587 402 559 440.5 Q531 479 452 479 L315 479 L344 624 L481 624 Z " />
<glyph glyph-name="uni0438" unicode="&#x438;" horiz-adv-x="971" d="M784 1082 L984 1082 L768 0 L568 0 L711 718 L705 720 L233 0 L32 0 L248 1082 L449 1082 L305 363 L311 361 L784 1082 Z " />
<glyph glyph-name="uni043A" unicode="&#x43a;" horiz-adv-x="942" d="M426 457 L333 457 L242 0 L41 0 L257 1082 L458 1082 L367 629 L456 629 L777 1082 L1020 1082 L1022 1077 L608 577 L837 0 L576 0 L426 457 Z " />
<glyph glyph-name="uni043B" unicode="&#x43b;" horiz-adv-x="973" d="M986 1082 L770 0 L569 0 L753 925 L506 925 L444 613 Q375 274 275.5 137 Q176 0 -7 0 L-49 0 L-17 162 L14 163 Q91 163 141.5 263 Q192 363 243 613 L336 1082 L986 1082 Z " />
<glyph glyph-name="uni043C" unicode="&#x43c;" horiz-adv-x="1268" d="M593 250 L599 249 L1016 1082 L1268 1082 L1052 0 L850 0 L987 689 L981 691 L614 0 L478 0 L386 695 L380 695 L242 0 L42 0 L258 1082 L510 1082 L593 250 Z " />
<glyph glyph-name="uni043D" unicode="&#x43d;" horiz-adv-x="971" d="M767 0 L566 0 L658 462 L325 462 L233 0 L32 0 L248 1082 L449 1082 L356 616 L689 616 L782 1082 L983 1082 L767 0 Z " />
<glyph glyph-name="uni043F" unicode="&#x43f;" horiz-adv-x="971" d="M768 0 L567 0 L751 925 L417 925 L233 0 L32 0 L248 1082 L984 1082 L768 0 Z " />
<glyph glyph-name="uni0442" unicode="&#x442;" horiz-adv-x="848" d="M905 927 L622 927 L437 0 L235 0 L420 927 L142 927 L173 1082 L936 1082 L905 927 Z " />
<glyph glyph-name="uni0444" unicode="&#x444;" horiz-adv-x="1228" d="M99 528 Q154 805 265 953.5 Q376 1102 534 1102 Q563 1102 589 1095.5 Q615 1089 638 1078 L735 1560 L937 1560 L840 1077 Q868 1089 899 1095.5 Q930 1102 964 1102 Q1107 1102 1163.5 942.5 Q1220 783 1170 528 L1165 507 Q1114 251 1005 115 Q896 -21 741 -21 Q708 -21 679 -14 Q650 -7 626 6 L542 -416 L340 -416 L423 0 Q396 -10 367.5 -15.5 Q339 -21 308 -21 Q166 -21 106.5 125.5 Q47 272 94 507 L99 528 Z M969 528 Q1008 725 988 835.5 Q968 946 877 946 Q859 946 843 943 Q827 940 812 935 L653 141 Q666 137 682 135 Q698 133 717 133 Q800 133 865.5 237 Q931 341 964 507 L969 528 Z M295 507 Q258 325 278.5 229 Q299 133 390 133 Q406 133 421 135 Q436 137 451 142 L610 937 Q597 941 583.5 943.5 Q570 946 554 946 Q470 946 403 828 Q336 710 300 528 L295 507 Z " />
<glyph glyph-name="uni0446" unicode="&#x446;" horiz-adv-x="1022" d="M248 1082 L449 1082 L264 154 L598 154 L783 1082 L984 1082 L798 154 L919 154 L809 -321 L625 -321 L689 0 L32 0 L248 1082 Z " />
<glyph glyph-name="uni0447" unicode="&#x447;" horiz-adv-x="934" d="M730 0 L530 0 L608 391 Q568 378 527.5 372 Q487 366 449 366 Q280 366 198 467 Q116 568 158 776 L219 1082 L419 1082 L358 776 Q328 628 358 574.5 Q388 521 480 521 Q520 521 559.5 528 Q599 535 639 548 L746 1082 L946 1082 L730 0 Z " />
<glyph glyph-name="uni0448" unicode="&#x448;" horiz-adv-x="1380" d="M449 1082 L264 154 L533 154 L718 1082 L919 1082 L734 154 L1004 154 L1189 1082 L1389 1082 L1173 0 L32 0 L248 1082 L449 1082 Z " />
<glyph glyph-name="uni0449" unicode="&#x449;" horiz-adv-x="1463" d="M443 1082 L258 154 L527 154 L712 1082 L913 1082 L728 154 L998 154 L1183 1082 L1383 1082 L1197 154 L1351 154 L1240 -321 L1056 -321 L1120 0 L26 0 L242 1082 L443 1082 Z " />
<glyph glyph-name="uni044A" unicode="&#x44a;" horiz-adv-x="1083" d="M548 717 L736 717 Q891 717 970 616 Q1049 515 1019 360 Q985 191 873 95.5 Q761 0 593 0 L205 0 L390 927 L138 927 L169 1082 L621 1082 L548 717 Z M517 561 L436 154 L624 154 Q696 154 748 212.5 Q800 271 817 356 Q835 447 809 504 Q783 561 705 561 L517 561 Z " />
<glyph glyph-name="uni044B" unicode="&#x44b;" horiz-adv-x="1360" d="M385 717 L573 717 Q728 717 807 616 Q886 515 856 360 Q822 191 710 95.5 Q598 0 430 0 L42 0 L258 1082 L458 1082 L385 717 Z M1130 0 L929 0 L1145 1082 L1346 1082 L1130 0 Z M354 561 L273 154 L461 154 Q533 154 585 212.5 Q637 271 654 356 Q672 447 646 504 Q620 561 542 561 L354 561 Z " />
<glyph glyph-name="uni044C" unicode="&#x44c;" horiz-adv-x="937" d="M385 717 L573 717 Q728 717 807 616 Q886 515 856 360 Q822 191 710 95.5 Q598 0 430 0 L42 0 L258 1082 L458 1082 L385 717 Z M354 561 L273 154 L461 154 Q533 154 585 212.5 Q637 271 654 356 Q672 447 646 504 Q620 561 542 561 L354 561 Z " />
<glyph glyph-name="uni044D" unicode="&#x44d;" horiz-adv-x="897" d="M529 946 Q464 946 405 887 Q346 828 327 732 L146 732 L143 738 Q172 900 292.5 1001 Q413 1102 560 1102 Q732 1102 811.5 944.5 Q891 787 846 559 L838 521 Q788 272 656 125.5 Q524 -21 337 -21 Q192 -21 111.5 90 Q31 201 66 377 L256 377 Q233 260 263 196.5 Q293 133 368 133 Q453 133 522 232 Q591 331 628 478 L357 478 L384 617 L656 617 Q679 768 650.5 857 Q622 946 529 946 Z " />
<glyph glyph-name="uni044E" unicode="&#x44e;" horiz-adv-x="1371" d="M368 622 L516 622 Q554 840 681 971 Q808 1102 995 1102 Q1174 1102 1263 962 Q1352 822 1318 609 L1296 471 Q1260 246 1132.5 112.5 Q1005 -21 817 -21 Q637 -21 547.5 117 Q458 255 491 468 L337 468 L244 0 L43 0 L259 1082 L460 1082 L368 622 Z M692 471 Q667 317 702 225 Q737 133 841 133 Q937 133 1004 229 Q1071 325 1095 471 L1117 609 Q1141 760 1106.5 853 Q1072 946 970 946 Q871 946 804 850 Q737 754 714 609 L692 471 Z " />
<glyph glyph-name="uni044F" unicode="&#x44f;" horiz-adv-x="942" d="M945 1082 L729 0 L529 0 L611 413 L448 413 L167 0 L-41 0 L267 450 Q191 491 158.5 569 Q126 647 146 745 Q177 902 289 992 Q401 1082 568 1082 L945 1082 Z M345 741 Q329 662 356 610.5 Q383 559 455 559 L640 559 L714 927 L537 927 Q466 927 413 871 Q360 815 345 741 Z " />
<glyph glyph-name="uni0452" unicode="&#x452;" horiz-adv-x="961" d="M675 1213 L469 1213 L418 958 L423 954 Q475 1025 544 1063.5 Q613 1102 690 1102 Q820 1102 880 992.5 Q940 883 896 662 L854 451 L855 451 L750 -74 Q712 -260 620.5 -348.5 Q529 -437 391 -437 Q364 -437 339 -432.5 Q314 -428 289 -419 L330 -268 Q344 -273 367.5 -277.5 Q391 -282 408 -282 Q452 -282 490.5 -226 Q529 -170 549 -74 L564 0 L563 0 L696 664 Q728 824 700.5 884 Q673 944 591 944 Q537 944 484 907 Q431 870 388 807 L227 0 L26 0 L268 1213 L144 1213 L172 1354 L296 1354 L338 1560 L539 1560 L497 1354 L703 1354 L675 1213 Z " />
<glyph glyph-name="uni0454" unicode="&#x454;" horiz-adv-x="898" d="M431 133 Q499 133 558 191.5 Q617 250 633 348 L812 348 L814 342 Q791 183 673.5 81 Q556 -21 407 -21 Q221 -21 136.5 117.5 Q52 256 85 465 L109 614 Q144 833 267.5 967.5 Q391 1102 586 1102 Q738 1102 821 991 Q904 880 876 703 L689 703 Q707 815 672 880.5 Q637 946 561 946 Q457 946 394.5 851 Q332 756 310 614 L309 607 L592 607 L565 468 L286 468 L286 465 Q262 313 291.5 223 Q321 133 431 133 Z " />
<glyph glyph-name="uni0459" unicode="&#x459;" horiz-adv-x="1434" d="M967 1082 L887 681 L1074 681 Q1229 681 1310.5 585 Q1392 489 1363 343 Q1330 182 1218.5 91 Q1107 0 938 0 L550 0 L734 925 L517 925 L455 613 Q387 277 282 138.5 Q177 0 -8 0 L-48 0 L-17 156 L11 157 Q85 157 145 265.5 Q205 374 254 613 L347 1082 L967 1082 Z M856 526 L781 152 L968 152 Q1041 152 1093.5 209.5 Q1146 267 1162 345 Q1178 426 1150.5 476 Q1123 526 1043 526 L856 526 Z " />
<glyph glyph-name="uni045A" unicode="&#x45a;" horiz-adv-x="1447" d="M365 662 L698 662 L782 1082 L983 1082 L903 681 L1090 681 Q1245 681 1326.5 585 Q1408 489 1379 343 Q1346 182 1234.5 91 Q1123 0 954 0 L566 0 L667 508 L334 508 L233 0 L32 0 L248 1082 L449 1082 L365 662 Z M872 526 L797 152 L984 152 Q1057 152 1109.5 209.5 Q1162 267 1178 345 Q1194 426 1166.5 476 Q1139 526 1059 526 L872 526 Z " />
<glyph glyph-name="uni045B" unicode="&#x45b;" horiz-adv-x="961" d="M691 1222 L471 1222 L418 958 L423 954 Q475 1025 544 1063.5 Q613 1102 690 1102 Q820 1102 880 992.5 Q940 883 896 662 L764 0 L563 0 L696 664 Q728 824 700.5 884 Q673 944 591 944 Q537 944 484 907 Q431 870 388 807 L227 0 L26 0 L270 1222 L160 1222 L188 1363 L298 1363 L338 1560 L539 1560 L499 1363 L719 1363 L691 1222 Z " />
<glyph glyph-name="uni045F" unicode="&#x45f;" horiz-adv-x="971" d="M449 1082 L264 154 L598 154 L783 1082 L984 1082 L768 0 L502 0 L431 -355 L230 -355 L301 0 L32 0 L248 1082 L449 1082 Z " />
<glyph glyph-name="uni0460" unicode="&#x460;" horiz-adv-x="1534" d="M1610 1456 L1402 417 Q1356 190 1236 84.5 Q1116 -21 946 -21 Q865 -21 803 19.5 Q741 60 711 140 Q651 57 570.5 18 Q490 -21 395 -21 Q243 -21 162 93.5 Q81 208 123 417 L331 1456 L530 1456 L322 417 Q292 269 321.5 201 Q351 133 426 133 Q502 133 567 206.5 Q632 280 660 417 L868 1456 L1072 1456 L864 417 Q834 269 866 201 Q898 133 977 133 Q1049 133 1111.5 206.5 Q1174 280 1202 417 L1410 1456 L1610 1456 Z " />
<glyph glyph-name="uni0461" unicode="&#x461;" horiz-adv-x="1338" d="M1379 1082 L1241 390 Q1198 176 1088.5 77.5 Q979 -21 825 -21 Q753 -21 699 13 Q645 47 618 115 Q564 45 493 12 Q422 -21 338 -21 Q200 -21 127.5 86 Q55 193 95 390 L233 1082 L433 1082 L295 390 Q267 254 287.5 193.5 Q308 133 369 133 Q433 133 488 199 Q543 265 569 390 L707 1082 L907 1082 L769 390 Q741 254 764.5 193.5 Q788 133 856 133 Q914 133 963.5 199 Q1013 265 1039 390 L1177 1082 L1379 1082 Z " />
<glyph glyph-name="uni0463" unicode="&#x463;" horiz-adv-x="937" d="M687 1081 L458 1081 L391 743 L578 743 Q733 743 811.5 638.5 Q890 534 858 374 Q822 198 709.5 99 Q597 0 429 0 L41 0 L257 1081 L120 1081 L148 1222 L285 1222 L353 1560 L554 1560 L486 1222 L715 1222 L687 1081 Z M360 588 L273 154 L460 154 Q532 154 585.5 217 Q639 280 657 370 Q675 465 650 526.5 Q625 588 547 588 L360 588 Z " />
<glyph glyph-name="uni0464" unicode="&#x464;" horiz-adv-x="1503" d="M421 833 L574 833 L580 864 Q638 1157 781 1317.5 Q924 1478 1128 1478 Q1324 1478 1432 1342.5 Q1540 1207 1512 979 L1313 979 Q1331 1143 1281.5 1232.5 Q1232 1322 1108 1322 Q1000 1322 910.5 1194 Q821 1066 781 866 L774 833 L1166 833 L1135 678 L743 678 L729 604 Q685 389 736.5 261.5 Q788 134 914 134 Q1023 134 1091.5 213 Q1160 292 1208 460 L1400 460 L1402 454 Q1344 227 1220 103.5 Q1096 -20 897 -20 Q701 -20 587.5 160 Q474 340 528 604 L543 678 L390 678 L255 0 L55 0 L346 1456 L546 1456 L421 833 Z " />
<glyph glyph-name="uni0465" unicode="&#x465;" horiz-adv-x="1267" d="M356 615 L473 615 Q508 833 631.5 967.5 Q755 1102 950 1102 Q1102 1102 1185 991 Q1268 880 1240 703 L1053 703 Q1071 815 1036 880.5 Q1001 946 925 946 Q821 946 758.5 851 Q696 756 674 615 L984 615 L956 474 L651 474 L650 465 Q626 313 655.5 223 Q685 133 795 133 Q863 133 922 191.5 Q981 250 997 348 L1176 348 L1178 342 Q1155 183 1037.5 81 Q920 -21 771 -21 Q585 -21 500.5 117.5 Q416 256 449 465 L450 474 L328 474 L234 0 L33 0 L249 1082 L450 1082 L356 615 Z " />
<glyph glyph-name="uni0466" unicode="&#x466;" horiz-adv-x="1070" d="M738 437 L637 437 L550 0 L370 0 L457 437 L366 437 L159 0 L-48 0 L661 1456 L854 1456 L976 0 L769 0 L738 437 Z M438 590 L727 590 L690 1108 L684 1109 L438 590 Z " />
<glyph glyph-name="uni0467" unicode="&#x467;" horiz-adv-x="932" d="M581 308 L511 308 L450 0 L294 0 L355 308 L287 308 L140 0 L-64 0 L492 1082 L686 1082 L813 0 L608 0 L581 308 Z M356 451 L569 451 L544 754 L541 834 L536 835 L501 754 L356 451 Z " />
<glyph glyph-name="uni0468" unicode="&#x468;" horiz-adv-x="1531" d="M389 590 L673 590 L1095 1456 L1288 1456 L1410 0 L1203 0 L1172 437 L1071 437 L984 0 L804 0 L891 437 L800 437 L593 0 L386 0 L599 438 L358 438 L271 0 L71 0 L362 1456 L562 1456 L389 590 Z M872 590 L1161 590 L1124 1108 L1118 1109 L872 590 Z " />
<glyph glyph-name="uni0469" unicode="&#x469;" horiz-adv-x="1314" d="M342 451 L547 451 L871 1082 L1065 1082 L1192 0 L987 0 L960 308 L890 308 L829 0 L673 0 L734 308 L666 308 L519 0 L315 0 L474 309 L313 309 L252 0 L51 0 L267 1082 L468 1082 L342 451 Z M735 451 L948 451 L923 754 L920 834 L915 835 L880 754 L735 451 Z " />
<glyph glyph-name="uni046A" unicode="&#x46a;" horiz-adv-x="1455" d="M990 797 L997 797 Q1188 797 1278.5 693.5 Q1369 590 1325 366 L1252 0 L1052 0 L1125 366 Q1157 530 1119.5 585.5 Q1082 641 966 641 L882 641 L875 631 L749 0 L549 0 L677 641 L575 641 Q469 641 402 579 Q335 517 305 366 L232 0 L31 0 L104 366 Q152 609 273.5 703 Q395 797 606 797 L633 797 L440 1456 L1447 1456 L990 797 Z M818 845 L824 844 L1121 1299 L704 1299 L818 845 Z " />
<glyph glyph-name="uni046B" unicode="&#x46b;" horiz-adv-x="1241" d="M833 600 Q981 586 1048.5 484 Q1116 382 1076 180 L1040 0 L839 0 L875 180 Q907 341 878 396 Q849 451 755 451 L729 451 L639 0 L438 0 L528 451 L495 451 Q409 451 352 389.5 Q295 328 266 180 L230 0 L30 0 L66 180 Q111 406 213.5 499.5 Q316 593 487 601 L346 1082 L1168 1082 L833 600 Z M666 643 L672 642 L857 938 L599 938 L666 643 Z " />
<glyph glyph-name="uni046C" unicode="&#x46c;" horiz-adv-x="1926" d="M501 0 L574 366 Q591 456 619 524 Q647 592 685 642 L393 642 L265 0 L65 0 L356 1456 L556 1456 L424 798 L1102 798 L910 1456 L1917 1456 L1460 797 L1467 797 Q1658 797 1748.5 693.5 Q1839 590 1795 366 L1722 0 L1522 0 L1595 366 Q1627 530 1589.5 585.5 Q1552 641 1436 641 L1352 641 L1345 631 L1219 0 L1019 0 L1147 641 L1045 641 Q939 641 872 579 Q805 517 775 366 L702 0 L501 0 Z M1288 845 L1294 844 L1591 1299 L1174 1299 L1288 845 Z " />
<glyph glyph-name="uni046D" unicode="&#x46d;" horiz-adv-x="1672" d="M461 0 L497 180 Q514 269 541 337 Q568 405 604 454 L333 454 L243 0 L42 0 L258 1082 L459 1082 L363 603 L918 603 L777 1082 L1599 1082 L1264 600 Q1412 586 1479.5 484 Q1547 382 1507 180 L1471 0 L1270 0 L1306 180 Q1338 341 1309 396 Q1280 451 1186 451 L1160 451 L1070 0 L869 0 L959 451 L926 451 Q840 451 783 389.5 Q726 328 697 180 L661 0 L461 0 Z M1097 643 L1103 642 L1288 938 L1030 938 L1097 643 Z " />
<glyph glyph-name="uni046E" unicode="&#x46e;" horiz-adv-x="878" d="M296 825 L414 825 Q513 825 580.5 890 Q648 955 671 1066 Q693 1177 654.5 1238 Q616 1299 514 1299 L289 1299 L320 1456 L545 1456 Q717 1456 813 1353 Q909 1250 873 1070 Q849 952 779 869 Q709 786 604 745 Q704 702 748 614.5 Q792 527 768 403 Q726 193 597.5 88.5 Q469 -16 287 -16 L243 -16 Q193 -16 160.5 -46 Q128 -76 118 -129 Q104 -199 131.5 -239.5 Q159 -280 204 -307 L113 -431 Q11 -395 -38 -312 Q-87 -229 -65 -113 Q-38 19 47 80 Q132 141 267 141 L311 141 Q398 141 470 213 Q542 285 566 399 Q594 542 547 604.5 Q500 667 379 667 L264 667 L287 781 L296 825 Z M691 1750 L825 1900 L1004 1900 L1000 1883 L734 1643 L603 1643 L435 1882 L439 1900 L615 1900 L691 1750 Z " />
<glyph glyph-name="uni046F" unicode="&#x46f;" horiz-adv-x="842" d="M470 1082 Q629 1082 722 1002.5 Q815 923 788 784 Q771 699 716.5 638 Q662 577 578 544 Q660 510 697.5 449 Q735 388 719 304 Q687 144 573 64 Q459 -16 292 -16 L253 -16 Q199 -16 164.5 -46 Q130 -76 120 -129 Q106 -199 131.5 -239.5 Q157 -280 200 -307 L111 -427 Q21 -388 -27.5 -306 Q-76 -224 -56 -113 Q-29 14 52 73 Q133 132 262 132 L301 132 Q381 132 442.5 179.5 Q504 227 520 304 Q538 395 494.5 434 Q451 473 348 473 L226 473 L232 505 L254 614 L379 614 Q463 614 516.5 658.5 Q570 703 586 780 Q600 852 564.5 892.5 Q529 933 441 933 L215 933 L244 1082 L470 1082 Z M585 1401 L719 1551 L898 1551 L894 1534 L628 1294 L497 1294 L329 1533 L333 1551 L509 1551 L585 1401 Z " />
<glyph glyph-name="uni0472" unicode="&#x472;" horiz-adv-x="1157" d="M1046 527 Q990 251 837.5 115 Q685 -21 466 -21 Q268 -21 165 126 Q62 273 113 527 L193 927 Q248 1202 398.5 1339.5 Q549 1477 765 1477 Q965 1477 1070.5 1328.5 Q1176 1180 1126 927 L1046 527 Z M364 794 L899 794 L927 930 Q967 1132 916.5 1224.5 Q866 1317 733 1317 Q614 1317 521.5 1216.5 Q429 1116 392 930 L364 794 Z M871 654 L336 654 L311 527 Q270 322 318.5 229.5 Q367 137 497 137 Q619 137 713.5 237.5 Q808 338 846 527 L871 654 Z " />
<glyph glyph-name="uni0473" unicode="&#x473;" horiz-adv-x="962" d="M104 609 Q139 833 267 967.5 Q395 1102 585 1102 Q764 1102 853 962 Q942 822 908 609 L886 471 Q850 246 722.5 112.5 Q595 -21 407 -21 Q226 -21 136.5 118 Q47 257 82 471 L104 609 Z M431 133 Q527 133 594 229 Q661 325 685 471 L685 472 L282 472 L282 471 Q257 317 292 225 Q327 133 431 133 Z M560 946 Q462 946 395 851 Q328 756 304 613 L707 613 Q730 763 695.5 854.5 Q661 946 560 946 Z " />
<glyph glyph-name="uni0474" unicode="&#x474;" horiz-adv-x="1079" d="M485 334 L487 253 L493 252 L528 333 L883 1179 Q955 1336 1030 1405.5 Q1105 1475 1208 1475 L1244 1474 L1209 1311 L1193 1311 Q1156 1311 1124 1277 Q1092 1243 1058 1157 L536 0 L343 0 L232 1456 L446 1456 L485 334 Z " />
<glyph glyph-name="uni0475" unicode="&#x475;" horiz-adv-x="863" d="M381 325 L380 255 L386 254 L414 325 L611 834 Q675 972 748.5 1036.5 Q822 1101 909 1101 Q932 1101 952.5 1095 Q973 1089 989 1077 L942 928 Q937 931 926.5 934.5 Q916 938 907 938 Q877 938 847 908 Q817 878 796 818 L421 0 L244 0 L168 1082 L376 1082 L381 325 Z " />
<glyph glyph-name="uni047A" unicode="&#x47a;" horiz-adv-x="1157" d="M1093 596 Q1034 303 880 141 Q748 2 570 -17 L546 -140 L388 -140 L414 -10 Q279 24 193 160 Q80 342 133 607 L184 859 Q242 1152 391 1314 Q524 1460 709 1475 L732 1587 L890 1587 L865 1461 Q993 1424 1077 1294 Q1195 1111 1143 847 L1093 596 Z M944 849 Q986 1063 923 1190 Q889 1260 831 1291 L812 1196 L654 1196 L677 1312 Q587 1292 515 1191 Q425 1066 384 861 L333 607 Q290 390 348 263 Q383 186 447 155 L468 259 L626 259 L603 146 Q687 171 756 263 Q851 389 893 596 L944 849 Z " />
<glyph glyph-name="uni047B" unicode="&#x47b;" horiz-adv-x="961" d="M449 -126 L291 -126 L314 -10 Q202 17 137 118 Q48 257 83 471 L105 609 Q140 833 268 967 Q379 1085 538 1100 L560 1207 L717 1207 L693 1087 Q794 1056 854 962 Q943 822 909 609 L887 471 Q851 246 723 112 Q618 2 470 -17 L449 -126 Z M283 471 Q258 317 293 225 Q311 177 347 154 L367 256 L525 256 L503 148 Q554 171 595 229 Q662 325 686 471 L708 609 Q732 760 697 853 Q683 890 658 913 L642 830 L485 830 L506 938 Q442 918 395 850 Q328 754 305 609 L283 471 Z " />
<glyph glyph-name="uni047C" unicode="&#x47c;" horiz-adv-x="1529" d="M1237 1447 L1243 1448 Q1392 1453 1472 1332.5 Q1552 1212 1509 994 L1398 439 Q1350 201 1230 90 Q1110 -21 944 -21 Q862 -21 799.5 18 Q737 57 706 133 Q647 53 567.5 16 Q488 -21 395 -21 Q243 -21 163.5 99.5 Q84 220 128 439 L239 994 Q286 1231 404.5 1342 Q523 1453 683 1447 L688 1445 L659 1300 Q591 1300 529 1220 Q467 1140 438 994 L327 439 Q294 279 322.5 206 Q351 133 426 133 Q502 133 567 206.5 Q632 280 660 417 L746 845 L940 845 L854 417 Q824 269 858 201 Q892 133 975 133 Q1044 133 1106 212 Q1168 291 1198 439 L1309 994 Q1340 1153 1311.5 1226.5 Q1283 1300 1208 1300 L1237 1447 Z M1379 1714 L1356 1602 L1328 1602 Q1234 1602 1119.5 1670.5 Q1005 1739 970 1739 Q934 1739 902.5 1705.5 Q871 1672 860 1617 L857 1599 L750 1599 L757 1633 Q779 1746 838.5 1799.5 Q898 1853 990 1853 Q1040 1853 1150 1783.5 Q1260 1714 1352 1714 L1379 1714 Z M902 1314 L846 1369 L916 1484 L944 1626 L1093 1626 L1067 1497 L902 1314 Z " />
<glyph glyph-name="uni047D" unicode="&#x47d;" horiz-adv-x="1327" d="M1017 1086 L1023 1087 Q1161 1092 1234.5 980.5 Q1308 869 1268 665 L1217 408 Q1172 186 1064.5 82.5 Q957 -21 809 -21 Q739 -21 685.5 14.5 Q632 50 606 119 Q553 47 485 13 Q417 -21 338 -21 Q202 -21 131.5 91 Q61 203 103 408 L154 665 Q198 886 308 989 Q418 1092 567 1086 L572 1084 L543 940 Q485 940 433 868.5 Q381 797 355 665 L304 408 Q274 263 292 198.5 Q310 134 367 140 L373 139 Q428 134 480 200 Q532 266 558 390 L602 608 L796 608 L752 390 Q724 255 749.5 194 Q775 133 840 133 Q892 133 941 204 Q990 275 1017 408 L1068 665 Q1096 809 1073.5 874.5 Q1051 940 988 940 L1017 1086 Z M1229 1372 L1207 1260 L1179 1260 Q1085 1260 970 1328 Q855 1396 820 1396 Q784 1396 752.5 1363 Q721 1330 711 1275 L707 1257 L599 1257 L606 1290 Q628 1403 688 1457 Q748 1511 840 1511 Q890 1511 1000.5 1441.5 Q1111 1372 1202 1372 L1229 1372 Z M760 1012 L712 1094 L775 1180 L788 1251 L930 1220 L912 1123 L760 1012 Z " />
<glyph glyph-name="uni047E" unicode="&#x47e;" horiz-adv-x="1535" d="M666 1691 L686 1790 L1376 1790 L1357 1691 L1078 1691 L1054 1570 L908 1570 L932 1691 L666 1691 Z M1610 1456 L1402 417 Q1356 190 1236 84.5 Q1116 -21 946 -21 Q865 -21 803 19.5 Q741 60 711 140 Q651 57 570.5 18 Q490 -21 395 -21 Q243 -21 162 93.5 Q81 208 123 417 L331 1456 L530 1456 L322 417 Q292 269 321.5 201 Q351 133 426 133 Q502 133 567 206.5 Q632 280 660 417 L868 1456 L1072 1456 L864 417 Q834 269 866 201 Q898 133 977 133 Q1049 133 1111.5 206.5 Q1174 280 1202 417 L1410 1456 L1610 1456 Z " />
<glyph glyph-name="uni047F" unicode="&#x47f;" horiz-adv-x="1339" d="M534 1358 L553 1457 L1216 1457 L1201 1358 L931 1358 L905 1230 L760 1230 L786 1358 L534 1358 Z M1379 1082 L1241 390 Q1198 176 1088.5 77.5 Q979 -21 825 -21 Q753 -21 699 13 Q645 47 618 115 Q564 45 493 12 Q422 -21 338 -21 Q200 -21 127.5 86 Q55 193 95 390 L233 1082 L433 1082 L295 390 Q267 254 287.5 193.5 Q308 133 369 133 Q433 133 488 199 Q543 265 569 390 L707 1082 L907 1082 L769 390 Q741 254 764.5 193.5 Q788 133 856 133 Q914 133 963.5 199 Q1013 265 1039 390 L1177 1082 L1379 1082 Z " />
<glyph glyph-name="uni0480" unicode="&#x480;" horiz-adv-x="1077" d="M514 -370 L314 -370 L385 -13 Q229 22 155.5 190.5 Q82 359 130 597 L182 857 Q240 1146 396 1311.5 Q552 1477 758 1477 Q949 1477 1046 1346 Q1143 1215 1098 990 L897 990 Q931 1161 889 1241 Q847 1321 727 1321 Q617 1321 519.5 1189.5 Q422 1058 383 859 L330 597 Q286 379 328 256 Q370 133 490 133 L615 133 L514 -370 Z " />
<glyph glyph-name="uni0481" unicode="&#x481;" horiz-adv-x="910" d="M443 -370 L243 -370 L315 -11 Q179 23 121.5 171 Q64 319 105 521 L113 559 Q162 808 294 955 Q426 1102 615 1102 Q760 1102 840 990 Q920 878 885 703 L697 703 Q719 818 688 882 Q657 946 584 946 Q491 946 418 832 Q345 718 314 559 L306 521 Q270 344 295 238.5 Q320 133 422 133 L544 133 L443 -370 Z " />
<glyph glyph-name="uni0482" unicode="&#x482;" horiz-adv-x="1056" d="M502 441 L700 269 L620 156 L419 326 L208 0 L68 0 L329 398 L130 569 L209 681 L412 510 L649 886 L450 1057 L531 1171 L731 1000 L949 1342 L1087 1342 L822 929 L1023 758 L940 646 L741 816 L502 441 Z " />
<glyph glyph-name="uni0483" unicode="&#x483;" horiz-adv-x="26" d="M-404 1323 L-429 1198 L-572 1199 L-527 1421 L-87 1421 L-66 1529 L76 1528 L35 1323 L-404 1323 Z " />
<glyph glyph-name="uni0484" unicode="&#x484;" horiz-adv-x="26" d="M-493 1418 Q-400 1418 -260.5 1487.5 Q-121 1557 -70 1557 Q22 1557 61 1503 Q100 1449 78 1336 L72 1303 L-37 1303 L-34 1321 Q-23 1376 -41.5 1409 Q-60 1442 -96 1442 Q-132 1442 -275.5 1374 Q-419 1306 -514 1306 L-543 1306 L-520 1418 L-493 1418 Z " />
<glyph glyph-name="uni0485" unicode="&#x485;" horiz-adv-x="26" d="M-287 1500 L-261 1632 L-109 1632 L-139 1486 L-115 1371 L-191 1312 L-287 1500 Z " />
<glyph glyph-name="uni0486" unicode="&#x486;" horiz-adv-x="26" d="M-230 1312 L-283 1371 L-213 1486 L-185 1632 L-33 1632 L-59 1500 L-230 1312 Z " />
<glyph glyph-name="uni0488" unicode="&#x488;" d="M-495 1267 L-497 1273 Q-483 1357 -428.5 1406 Q-374 1455 -295 1455 Q-223 1455 -185 1401.5 Q-147 1348 -164 1267 L-254 1267 Q-244 1313 -257.5 1340.5 Q-271 1368 -312 1368 Q-349 1368 -376 1338.5 Q-403 1309 -412 1267 L-495 1267 Z M-74 990 L-76 996 Q-63 1080 -9 1129 Q45 1178 124 1178 Q196 1178 234.5 1124.5 Q273 1071 257 990 L165 990 Q174 1036 160.5 1063.5 Q147 1091 106 1091 Q68 1091 42 1061.5 Q16 1032 8 990 L-74 990 Z M-26 487 L-28 493 Q-15 577 40 626 Q95 675 173 675 Q246 675 283.5 622 Q321 569 305 487 L215 487 Q224 533 210.5 560.5 Q197 588 156 588 Q120 588 93 558.5 Q66 529 58 487 L-26 487 Z M-287 -32 L-289 -26 Q-276 57 -221.5 106.5 Q-167 156 -89 156 Q-17 156 21 102.5 Q59 49 43 -32 L-46 -32 Q-38 14 -51.5 41.5 Q-65 69 -106 69 Q-143 69 -169.5 39.5 Q-196 10 -204 -32 L-287 -32 Z M-807 -316 L-809 -310 Q-795 -225 -741 -176.5 Q-687 -128 -609 -128 Q-535 -128 -497 -181 Q-459 -234 -476 -316 L-566 -316 Q-557 -269 -570.5 -242 Q-584 -215 -626 -215 Q-662 -215 -688.5 -244 Q-715 -273 -723 -316 L-807 -316 Z M-1012 990 L-1014 996 Q-1000 1080 -945.5 1129 Q-891 1178 -812 1178 Q-739 1178 -701 1124.5 Q-663 1071 -680 990 L-770 990 Q-760 1036 -773.5 1063.5 Q-787 1091 -830 1091 Q-867 1091 -893 1061.5 Q-919 1032 -928 990 L-1012 990 Z M-1255 487 L-1257 493 Q-1243 577 -1188 626 Q-1133 675 -1056 675 Q-982 675 -944.5 622 Q-907 569 -924 487 L-1013 487 Q-1003 533 -1016.5 560.5 Q-1030 588 -1073 588 Q-1109 588 -1135.5 558.5 Q-1162 529 -1171 487 L-1255 487 Z M-1224 -32 L-1226 -26 Q-1213 58 -1158.5 107 Q-1104 156 -1026 156 Q-952 156 -913.5 102.5 Q-875 49 -892 -32 L-983 -32 Q-974 14 -987.5 41.5 Q-1001 69 -1043 69 Q-1079 69 -1105.5 39.5 Q-1132 10 -1140 -32 L-1224 -32 Z " />
<glyph glyph-name="uni0489" unicode="&#x489;" d="M-516 -60 L-511 -74 L-677 -413 L-755 -413 L-627 -60 L-516 -60 Z M-436 1126 L-444 1140 L-277 1478 L-200 1478 L-327 1126 L-436 1126 Z M9 631 L22 643 L266 519 L246 421 L-19 492 L9 631 Z M-967 433 L-980 421 L-1223 545 L-1203 643 L-940 572 L-967 433 Z M-109 1002 L-103 1018 L183 1171 L225 1103 Q191 1080 -50 903 L-109 1002 Z M-856 21 L-860 4 L-1150 -149 L-1191 -80 L-914 120 L-856 21 Z M-801 860 L-814 862 L-867 1188 L-803 1257 L-702 958 L-801 860 Z M-167 161 L-153 159 L-99 -166 L-165 -237 L-265 62 L-167 161 Z " />
<glyph glyph-name="uni048D" unicode="&#x48d;" horiz-adv-x="937" d="M734 1314 L505 1314 L391 743 L578 743 Q733 743 811.5 638.5 Q890 534 858 374 Q822 198 709.5 99 Q597 0 429 0 L41 0 L304 1314 L167 1314 L195 1456 L332 1456 L368 1633 L569 1633 L533 1456 L762 1456 L734 1314 Z M360 588 L273 154 L460 154 Q532 154 585.5 217 Q639 280 657 370 Q675 465 650 526.5 Q625 588 547 588 L360 588 Z " />
<glyph glyph-name="uni048E" unicode="&#x48e;" horiz-adv-x="1073" d="M369 574 L254 0 L53 0 L344 1456 L804 1456 Q986 1456 1078.5 1332 Q1171 1208 1133 1015 Q1091 803 959 688 Q958 687 956 686 L1036 551 L932 465 L844 615 Q748 574 628 574 L369 574 Z M400 730 L659 730 Q714 730 762 755 L687 883 L791 969 L862 848 Q913 919 932 1013 Q958 1144 920 1222 Q882 1300 773 1300 L514 1300 L400 730 Z " />
<glyph glyph-name="uni048F" unicode="&#x48f;" horiz-adv-x="960" d="M893 487 Q842 232 737 105 L732 99 L788 -3 L682 -89 L626 14 Q556 -21 469 -21 Q398 -21 342 9 Q286 39 249 95 L147 -416 L-54 -416 L245 1082 L425 1082 L416 988 Q466 1044 527.5 1073 Q589 1102 659 1102 Q811 1102 879.5 932 Q948 762 898 508 L893 487 Z M697 508 Q736 704 707.5 824 Q679 944 579 944 Q525 944 476.5 904 Q428 864 389 797 L279 246 Q296 191 334.5 162 Q373 133 437 133 Q494 133 541 170 L469 304 L573 389 L628 287 Q668 369 692 487 L697 508 Z " />
<glyph glyph-name="uni0490" unicode="&#x490;" horiz-adv-x="938" d="M1058 1301 L1050 1301 L1050 1300 L506 1300 L246 0 L45 0 L336 1456 L889 1456 L960 1809 L1160 1809 L1058 1301 Z " />
<glyph glyph-name="uni0491" unicode="&#x491;" horiz-adv-x="778" d="M810 927 L788 927 L788 925 L412 925 L227 0 L27 0 L243 1082 L640 1082 L706 1409 L907 1409 L810 927 Z " />
<glyph glyph-name="uni0494" unicode="&#x494;" horiz-adv-x="991" d="M1058 1300 L514 1300 L420 831 L563 831 Q776 831 882 680.5 Q988 530 933 254 Q881 -5 750 -151.5 Q619 -298 414 -293 L409 -290 L436 -153 Q548 -153 621.5 -40 Q695 73 732 250 Q773 460 722.5 565 Q672 670 531 670 L388 670 L254 0 L53 0 L344 1456 L1089 1456 L1058 1300 Z " />
<glyph glyph-name="uni0495" unicode="&#x495;" horiz-adv-x="882" d="M788 925 L412 925 L355 643 L420 643 Q604 643 705 519 Q806 395 761 171 Q736 39 629.5 -98 Q523 -235 366 -279 L321 -140 Q417 -103 478 -20 Q539 63 560 171 Q593 334 546.5 408.5 Q500 483 388 483 L323 483 L227 0 L27 0 L243 1082 L819 1082 L788 925 Z " />
<glyph glyph-name="uni049C" unicode="&#x49c;" horiz-adv-x="1094" d="M1259 1456 L804 785 L1001 0 L747 0 L629 654 L580 654 L529 398 L399 398 L450 654 L376 654 L246 0 L46 0 L337 1456 L537 1456 L409 817 L482 817 L536 1084 L666 1084 L612 817 L658 817 L1016 1456 L1259 1456 Z " />
<glyph glyph-name="uni049D" unicode="&#x49d;" horiz-adv-x="993" d="M1094 1082 L734 580 L897 0 L641 0 L559 457 L525 457 L485 253 L361 253 L401 457 L332 457 L241 0 L40 0 L256 1082 L457 1082 L366 629 L435 629 L479 847 L603 847 L559 629 L593 629 L844 1082 L1094 1082 Z " />
<glyph glyph-name="uni04A0" unicode="&#x4a0;" horiz-adv-x="1386" d="M779 654 L672 654 L542 0 L341 0 L601 1301 L228 1301 L259 1456 L833 1456 L706 824 L822 824 L1255 1456 L1515 1456 L955 732 L1239 0 L1009 0 L779 654 Z " />
<glyph glyph-name="uni04A1" unicode="&#x4a1;" horiz-adv-x="1192" d="M687 457 L594 457 L503 0 L302 0 L487 927 L162 927 L193 1082 L719 1082 L628 629 L717 629 L1038 1082 L1281 1082 L1283 1077 L869 577 L1098 0 L837 0 L687 457 Z " />
<glyph glyph-name="uni04A4" unicode="&#x4a4;" horiz-adv-x="1642" d="M413 797 L934 797 L1066 1456 L1773 1456 L1742 1301 L1234 1301 L974 0 L775 0 L903 642 L382 642 L254 0 L53 0 L344 1456 L545 1456 L413 797 Z " />
<glyph glyph-name="uni04A5" unicode="&#x4a5;" horiz-adv-x="1195" d="M350 616 L683 616 L776 1082 L1260 1082 L1229 927 L946 927 L761 0 L560 0 L652 462 L319 462 L227 0 L26 0 L242 1082 L443 1082 L350 616 Z " />
<glyph glyph-name="uni04A6" unicode="&#x4a6;" horiz-adv-x="1737" d="M1141 834 L1252 834 Q1465 834 1571 683.5 Q1677 533 1622 257 Q1570 -2 1439 -148.5 Q1308 -295 1103 -290 L1098 -287 L1125 -150 Q1237 -150 1310.5 -37 Q1384 76 1421 253 Q1462 463 1411.5 568 Q1361 673 1220 673 L1109 673 L975 0 L776 0 L1036 1300 L514 1300 L254 0 L53 0 L344 1456 L1266 1456 L1141 834 Z " />
<glyph glyph-name="uni04A7" unicode="&#x4a7;" horiz-adv-x="1461" d="M891 645 L993 645 Q1185 645 1290.5 521 Q1396 397 1352 173 Q1326 40 1220 -96.5 Q1114 -233 957 -277 L911 -138 Q1007 -101 1067.5 -19 Q1128 63 1152 173 Q1180 326 1128.5 405.5 Q1077 485 961 485 L859 485 L762 0 L561 0 L745 925 L411 925 L227 0 L26 0 L242 1082 L978 1082 L891 645 Z " />
<glyph glyph-name="uni04A8" unicode="&#x4a8;" horiz-adv-x="1302" d="M1126 -24 Q1042 -24 967.5 -6 Q893 12 829 48 Q761 14 687.5 -3.5 Q614 -21 537 -21 Q318 -21 203 180 Q88 381 147 672 L186 866 Q242 1145 381 1309.5 Q520 1474 693 1468 L699 1465 L668 1315 Q588 1315 508.5 1185 Q429 1055 393 868 L353 672 Q304 424 361.5 281.5 Q419 139 569 139 Q598 139 628 144.5 Q658 150 687 162 Q601 261 569.5 398 Q538 535 571 697 L618 929 Q667 1178 788.5 1325 Q910 1472 1064 1472 Q1211 1472 1282.5 1314 Q1354 1156 1306 916 L1259 680 Q1225 513 1154.5 380 Q1084 247 983 155 Q1020 142 1063.5 136 Q1107 130 1157 130 L1126 -24 Z M765 695 Q735 549 752.5 438.5 Q770 328 831 263 L836 262 Q914 330 973 440 Q1032 550 1058 680 L1107 926 Q1145 1115 1125 1212.5 Q1105 1310 1034 1304 L1028 1305 Q969 1310 907 1203.5 Q845 1097 812 930 L765 695 Z " />
<glyph glyph-name="uni04A9" unicode="&#x4a9;" horiz-adv-x="1062" d="M916 -16 Q835 -16 768 -3 Q701 10 648 37 Q595 8 540 -6.5 Q485 -21 432 -21 Q236 -21 148.5 133 Q61 287 114 550 L129 627 Q169 828 289 963.5 Q409 1099 535 1093 L541 1091 L511 941 Q459 939 413 856.5 Q367 774 338 629 L322 550 Q286 375 327 257 Q368 139 464 139 Q477 139 490.5 140.5 Q504 142 517 145 Q463 218 448.5 322 Q434 426 461 555 L485 674 Q521 858 623 980 Q725 1102 838 1102 Q963 1102 1012.5 978.5 Q1062 855 1021 646 L998 530 Q975 419 922.5 321 Q870 223 797 149 Q828 135 864.5 128.5 Q901 122 943 122 L916 -16 Z M799 534 L823 654 Q847 775 838.5 857 Q830 939 793 932 L787 933 Q749 939 712.5 869 Q676 799 652 673 L627 550 Q608 459 620.5 382.5 Q633 306 672 258 L678 257 Q717 300 748.5 371.5 Q780 443 799 534 Z " />
<glyph glyph-name="uni04B4" unicode="&#x4b4;" horiz-adv-x="1509" d="M511 1301 L223 1301 L254 1456 L1027 1456 L996 1301 L711 1301 L482 154 L1002 154 L1262 1456 L1463 1456 L1203 156 L1344 156 L1227 -351 L1044 -351 L1114 0 L251 0 L511 1301 Z " />
<glyph glyph-name="uni04B5" unicode="&#x4b5;" horiz-adv-x="1150" d="M338 928 L146 928 L177 1083 L748 1083 L717 928 L539 928 L385 154 L719 154 L904 1082 L1105 1082 L919 154 L1040 154 L930 -321 L746 -321 L810 0 L153 0 L338 928 Z " />
<glyph glyph-name="uni04B8" unicode="&#x4b8;" horiz-adv-x="1151" d="M1222 1456 L931 0 L730 0 L852 611 Q784 589 712 577 Q707 576 702 575 L652 326 L520 326 L568 565 Q374 565 280 675.5 Q186 786 234 1022 L321 1456 L521 1456 L434 1022 Q398 843 438 781.5 Q478 720 599 720 L663 1040 L795 1040 L733 731 L738 732 Q815 744 883 766 L1021 1456 L1222 1456 Z " />
<glyph glyph-name="uni04B9" unicode="&#x4b9;" horiz-adv-x="946" d="M747 0 L547 0 L625 391 Q585 378 544 372 L529 370 L499 218 L368 218 L398 370 Q280 387 215 467 Q133 568 175 776 L236 1082 L436 1082 L375 776 Q345 628 375 574 Q392 543 430 530 L485 805 L616 805 L560 525 L576 528 Q616 535 656 548 L763 1082 L963 1082 L747 0 Z " />
<glyph glyph-name="uni04BA" unicode="&#x4ba;" horiz-adv-x="1168" d="M184 0 L475 1456 L676 1456 L554 845 Q621 866 692.5 878.5 Q764 891 837 891 Q1031 891 1125 780 Q1219 669 1172 434 L1085 0 L885 0 L972 434 Q1007 612 967 674 Q927 736 806 736 Q745 736 668 723 Q591 710 523 689 L385 0 L184 0 Z " />
<glyph glyph-name="uni04BC" unicode="&#x4bc;" horiz-adv-x="1292" d="M720 -23 Q488 -23 379.5 149 Q271 321 326 595 L348 705 Q233 728 182.5 827 Q132 926 164 1079 L308 1079 Q288 982 304.5 924 Q321 866 376 847 L378 857 Q435 1144 598 1309.5 Q761 1475 960 1475 Q1163 1475 1249.5 1295.5 Q1336 1116 1276 816 L1252 695 L546 695 L526 595 Q482 376 533.5 256 Q585 136 752 136 Q836 136 915 163 Q994 190 1052 229 L1063 84 Q1021 45 930 11 Q839 -23 720 -23 Z M574 839 L1079 839 L1086 875 Q1128 1087 1093.5 1200.5 Q1059 1314 928 1314 Q814 1314 715.5 1181.5 Q617 1049 578 857 L574 839 Z " />
<glyph glyph-name="uni04BD" unicode="&#x4bd;" horiz-adv-x="1010" d="M521 -21 Q343 -21 250 114 Q157 249 191 456 L202 527 Q110 557 71 645 Q32 733 59 863 L197 863 Q182 793 190 745.5 Q198 698 228 674 Q274 869 397 985.5 Q520 1102 677 1102 Q847 1102 924.5 975 Q1002 848 969 639 L947 499 L397 499 L390 456 Q366 310 408 221.5 Q450 133 558 133 Q635 133 698 160 Q761 187 820 237 L863 111 Q805 53 717 16 Q629 -21 521 -21 Z M652 946 Q574 946 510.5 860 Q447 774 420 644 L771 644 L778 685 Q797 804 766.5 875 Q736 946 652 946 Z " />
<glyph glyph-name="uni04C3" unicode="&#x4c3;" horiz-adv-x="1084" d="M246 0 L46 0 L337 1456 L537 1456 L411 828 L504 828 L982 1456 L1218 1456 L1220 1451 L689 814 Q871 790 956 642.5 Q1041 495 991 241 Q939 -17 808 -164 Q677 -311 472 -306 L467 -303 L495 -165 Q607 -165 680.5 -52.5 Q754 60 790 237 Q835 460 784.5 559 Q734 658 591 658 L377 658 L246 0 Z " />
<glyph glyph-name="uni04C4" unicode="&#x4c4;" horiz-adv-x="951" d="M612 600 Q745 562 807.5 451.5 Q870 341 835 162 Q808 26 704.5 -102.5 Q601 -231 442 -274 L398 -135 Q493 -99 553 -21 Q613 57 635 162 Q665 312 622 380.5 Q579 449 476 457 L332 457 L241 0 L40 0 L256 1082 L457 1082 L366 629 L436 629 L777 1082 L1019 1082 L1021 1077 L612 600 Z " />
<glyph glyph-name="uni04C7" unicode="&#x4c7;" horiz-adv-x="1199" d="M545 1456 L413 797 L934 797 L1066 1456 L1266 1456 L960 -74 Q922 -259 830 -348 Q738 -437 600 -437 Q573 -437 548 -432.5 Q523 -428 499 -419 L540 -268 Q554 -273 576.5 -277 Q599 -281 617 -281 Q661 -281 700.5 -225 Q740 -169 760 -74 L903 642 L382 642 L254 0 L53 0 L344 1456 L545 1456 Z " />
<glyph glyph-name="uni04C8" unicode="&#x4c8;" horiz-adv-x="960" d="M444 1082 L351 616 L683 616 L776 1082 L977 1082 L746 -74 Q708 -259 616.5 -348 Q525 -437 387 -437 Q360 -437 335 -432.5 Q310 -428 286 -419 L327 -268 Q341 -273 363.5 -277 Q386 -281 404 -281 Q449 -281 487 -225.5 Q525 -170 545 -74 L652 462 L320 462 L228 0 L27 0 L243 1082 L444 1082 Z " />
<glyph glyph-name="uni04D8" unicode="&#x4d8;" horiz-adv-x="1168" d="M728 1477 Q972 1477 1088.5 1291 Q1205 1105 1147 813 L1114 648 Q1051 336 878 157.5 Q705 -21 495 -21 Q265 -21 163.5 157 Q62 335 122 636 L147 762 L936 762 L946 813 Q993 1051 935.5 1183.5 Q878 1316 696 1316 Q607 1316 523.5 1289 Q440 1262 380 1223 L369 1368 Q410 1406 506 1441.5 Q602 1477 728 1477 Z M527 138 Q646 138 752 275.5 Q858 413 906 618 L319 618 L310 577 Q267 365 315.5 251.5 Q364 138 527 138 Z " />
<glyph glyph-name="uni04D9" unicode="&#x4d9;" horiz-adv-x="901" d="M689 1103 Q867 1103 960 968 Q1053 833 1019 626 L994 468 Q959 248 830.5 114 Q702 -20 533 -20 Q363 -20 285.5 107 Q208 234 241 443 L263 583 L813 583 L820 626 Q844 772 802 860.5 Q760 949 652 949 Q575 949 512 922 Q449 895 390 845 L347 971 Q405 1029 493 1066 Q581 1103 689 1103 Z M558 136 Q636 136 699.5 222 Q763 308 790 438 L439 438 L432 397 Q413 278 443.5 207 Q474 136 558 136 Z " />
<glyph glyph-name="uni04E0" unicode="&#x4e0;" horiz-adv-x="984" d="M1071 1456 L1047 1328 L621 847 Q780 827 855 710.5 Q930 594 892 402 Q850 190 716 84.5 Q582 -21 393 -21 Q240 -21 140 88 Q40 197 82 404 L284 404 Q259 280 297 206.5 Q335 133 424 133 Q517 133 592.5 207.5 Q668 282 692 400 Q726 572 681 641.5 Q636 711 513 711 L400 711 L408 752 L428 852 L803 1295 L801 1300 L305 1300 L336 1456 L1071 1456 Z " />
<glyph glyph-name="uni04E1" unicode="&#x4e1;" horiz-adv-x="984" d="M352 477 L719 920 L716 925 L227 925 L258 1082 L996 1082 L972 953 L553 471 Q708 449 781.5 333 Q855 217 817 27 Q775 -182 641 -288.5 Q507 -395 318 -395 Q166 -395 66.5 -285 Q-33 -175 7 29 L209 29 Q184 -92 222 -165.5 Q260 -239 349 -239 Q442 -239 517.5 -164.5 Q593 -90 617 25 Q651 198 606 267 Q561 336 437 336 L324 336 L351 472 L352 477 Z " />
<glyph glyph-name="uni04FA" unicode="&#x4fa;" horiz-adv-x="1013" d="M1124 1300 L580 1300 L320 0 L119 0 L410 1456 L1155 1456 L1124 1300 Z M650 716 L119 716 L147 857 L678 857 L650 716 Z M539 174 L489 -74 Q451 -259 360 -348 Q269 -437 131 -437 Q105 -437 81.5 -432.5 Q58 -428 32 -419 L75 -262 Q89 -267 111 -271.5 Q133 -276 150 -276 Q195 -276 232 -223 Q269 -170 289 -74 L339 174 L539 174 Z " />
<glyph glyph-name="uni04FB" unicode="&#x4fb;" horiz-adv-x="714" d="M860 925 L484 925 L299 0 L99 0 L315 1082 L891 1082 L860 925 Z M605 534 L74 534 L102 675 L633 675 L605 534 Z M501 174 L451 -74 Q413 -259 322 -348 Q231 -437 93 -437 Q67 -437 43.5 -432.5 Q20 -428 -6 -419 L37 -262 Q51 -267 73 -271.5 Q95 -276 112 -276 Q157 -276 194 -223 Q231 -170 251 -74 L301 174 L501 174 Z " />
<glyph glyph-name="uni0500" unicode="&#x500;" horiz-adv-x="1062" d="M833 884 L947 1456 L1148 1456 L857 0 L415 0 Q232 0 138 126 Q44 252 83 445 Q124 653 258 768.5 Q392 884 592 884 L833 884 Z M687 154 L802 729 L561 729 Q459 729 383 646 Q307 563 284 447 Q258 315 296.5 234.5 Q335 154 446 154 L687 154 Z " />
<glyph glyph-name="uni0502" unicode="&#x502;" horiz-adv-x="1461" d="M432 0 Q249 0 154.5 126 Q60 252 99 445 Q140 653 274.5 768.5 Q409 884 609 884 L850 884 L964 1456 L1165 1456 L904 153 L965 153 Q1044 154 1101 223 Q1158 292 1185 414 Q1202 493 1206.5 578.5 Q1211 664 1203 745 L1398 745 Q1404 640 1403 563.5 Q1402 487 1386 414 Q1343 214 1215 107 Q1087 0 934 0 L432 0 Z M704 154 L819 729 L578 729 Q476 729 399.5 645.5 Q323 562 300 447 Q274 316 313 235 Q352 154 463 154 L704 154 Z " />
<glyph glyph-name="uni0503" unicode="&#x503;" horiz-adv-x="1442" d="M109 528 Q163 804 281 953 Q399 1102 564 1102 Q627 1102 674.5 1071 Q722 1040 752 983 L867 1560 L1068 1560 L827 353 Q804 251 823 192.5 Q842 134 896 134 Q987 135 1059 239.5 Q1131 344 1172 529 Q1192 628 1199.5 729 Q1207 830 1203 931 L1398 932 Q1399 804 1395 712 Q1391 620 1372 529 Q1316 263 1174 121 Q1032 -21 865 -21 Q764 -23 703 18 Q642 59 623 148 Q565 66 494 22.5 Q423 -21 339 -21 Q189 -21 123 126 Q57 273 104 507 L109 528 Z M721 830 Q704 883 670 913.5 Q636 944 585 944 Q492 944 419 826.5 Q346 709 310 528 L305 507 Q268 326 294 231 Q320 136 421 136 Q476 136 525.5 169.5 Q575 203 616 264 Q616 283 618.5 304 Q621 325 626 353 L721 830 Z " />
<glyph glyph-name="uni0504" unicode="&#x504;" horiz-adv-x="1331" d="M533 310 L547 378 Q572 503 537 571.5 Q502 640 417 640 L243 640 L274 796 L402 796 Q518 796 589.5 861.5 Q661 927 687 1057 Q712 1179 672.5 1239 Q633 1299 519 1299 L236 1299 L267 1456 L550 1456 Q739 1456 832 1351 Q925 1246 887 1055 Q861 927 790.5 842.5 Q720 758 606 714 Q704 677 738.5 589.5 Q773 502 749 380 L735 308 Q718 230 732 182.5 Q746 135 787 141 L793 140 Q872 137 940 245 Q1008 353 1047 529 Q1067 628 1074.5 729.5 Q1082 831 1077 932 L1273 932 Q1274 796 1269.5 707.5 Q1265 619 1246 529 Q1192 270 1051.5 124.5 Q911 -21 751 -21 Q618 -24 561 55.5 Q504 135 533 308 L533 310 Z " />
<glyph glyph-name="uni0505" unicode="&#x505;" horiz-adv-x="1089" d="M595 226 Q583 173 591 144.5 Q599 116 633 116 Q702 118 756.5 197.5 Q811 277 843 419 Q859 495 862.5 577 Q866 659 857 738 L1052 738 Q1059 637 1059 563.5 Q1059 490 1043 419 Q997 204 876 89.5 Q755 -25 612 -25 Q480 -28 426.5 28 Q373 84 391 214 L406 291 Q421 366 397.5 403 Q374 440 314 440 L124 440 L153 591 L300 591 Q373 591 421.5 634 Q470 677 485 750 Q502 835 474.5 881.5 Q447 928 368 928 L156 928 L181 1082 L398 1082 Q556 1082 637.5 996 Q719 910 690 764 Q672 677 624 620.5 Q576 564 496 529 Q571 502 598.5 441.5 Q626 381 609 296 L595 225 L595 226 Z " />
<glyph glyph-name="uni0506" unicode="&#x506;" horiz-adv-x="958" d="M787 10 L603 -285 L484 -285 L594 0 L489 0 Q464 35 467.5 101.5 Q471 168 486 241 L511 364 Q536 494 500 561 Q464 628 372 628 L174 628 L203 782 L370 782 Q476 782 547.5 850.5 Q619 919 644 1039 Q670 1171 631.5 1236 Q593 1301 483 1301 L249 1301 L277 1456 L514 1456 Q699 1456 791 1347 Q883 1238 844 1042 Q819 919 753 835.5 Q687 752 581 707 Q673 669 704.5 580 Q736 491 712 366 L687 239 Q682 219 679 200 L825 200 L787 10 Z " />
<glyph glyph-name="uni0507" unicode="&#x507;" horiz-adv-x="910" d="M765 3 L581 -292 L462 -292 L575 0 L461 0 Q444 22 448 69.5 Q452 117 462 169 L480 258 Q497 348 467 392 Q437 436 360 436 L158 436 L187 581 L375 581 Q451 581 502.5 625.5 Q554 670 570 749 Q587 837 557 883 Q527 929 445 929 L211 929 L238 1082 L475 1082 Q635 1082 719.5 995 Q804 908 774 758 Q755 669 705 609 Q655 549 573 514 Q646 482 671.5 416 Q697 350 680 259 L667 193 L803 193 L765 3 Z " />
<glyph glyph-name="uni0508" unicode="&#x508;" horiz-adv-x="1623" d="M1020 1299 L680 1299 L575 768 Q490 346 366 173 Q242 0 24 0 L-19 0 L12 155 L46 155 Q148 155 229 301.5 Q310 448 374 768 L511 1456 L1253 1456 L1033 353 Q1010 243 1028.5 188.5 Q1047 134 1103 134 Q1194 135 1266 240 Q1338 345 1378 529 Q1398 628 1406 729 Q1414 830 1409 931 L1605 932 Q1606 808 1601.5 714.5 Q1597 621 1579 529 Q1523 263 1381 121 Q1239 -21 1072 -21 Q924 -24 862 66 Q800 156 832 353 L1020 1299 Z " />
<glyph glyph-name="uni0509" unicode="&#x509;" horiz-adv-x="1395" d="M747 924 L544 924 L484 622 Q416 284 313.5 142 Q211 0 30 0 L-23 0 L13 166 L48 167 Q121 167 179 276.5 Q237 386 284 622 L376 1082 L980 1082 L835 353 Q813 251 833 192.5 Q853 134 910 134 Q983 135 1040.5 225.5 Q1098 316 1133 476 Q1152 567 1158.5 663 Q1165 759 1160 857 L1356 858 Q1359 733 1355.5 647 Q1352 561 1334 476 Q1283 236 1155.5 107.5 Q1028 -21 879 -21 Q729 -24 665.5 66.5 Q602 157 634 353 L747 924 Z " />
<glyph glyph-name="uni050A" unicode="&#x50a;" horiz-adv-x="1673" d="M1257 1456 L1037 353 Q1015 251 1034 192.5 Q1053 134 1106 134 Q1199 135 1270.5 239.5 Q1342 344 1383 529 Q1403 626 1410.5 727 Q1418 828 1414 931 L1609 932 Q1611 800 1606.5 710 Q1602 620 1583 529 Q1526 263 1384 121 Q1242 -21 1075 -21 Q928 -24 866 66.5 Q804 157 836 353 L893 641 L377 641 L249 0 L49 0 L340 1456 L540 1456 L408 796 L924 796 L1056 1456 L1257 1456 Z " />
<glyph glyph-name="uni050B" unicode="&#x50b;" horiz-adv-x="1391" d="M655 462 L314 462 L222 0 L20 0 L236 1082 L438 1082 L345 617 L686 617 L779 1082 L980 1082 L835 353 Q812 251 832.5 192.5 Q853 134 910 134 Q983 135 1040.5 225.5 Q1098 316 1134 476 Q1153 567 1159.5 663 Q1166 759 1161 857 L1356 858 Q1359 733 1355.5 647 Q1352 561 1334 476 Q1282 236 1155 107.5 Q1028 -21 879 -21 Q729 -24 665.5 66.5 Q602 157 634 353 L655 462 Z " />
<glyph glyph-name="uni050C" unicode="&#x50c;" horiz-adv-x="1061" d="M487 -21 Q285 -21 178 156.5 Q71 334 123 597 L176 859 Q233 1144 399.5 1310.5 Q566 1477 786 1477 Q870 1477 941 1455 Q1012 1433 1060 1393 L980 1252 Q933 1285 878 1302.5 Q823 1320 755 1320 Q633 1320 524 1185.5 Q415 1051 377 861 L324 597 Q282 387 333.5 260.5 Q385 134 518 134 Q618 135 688 213 Q758 291 788 429 Q805 511 812 600.5 Q819 690 819 786 L1014 786 Q1009 592 1007 548.5 Q1005 505 989 429 Q942 211 801.5 95 Q661 -21 487 -21 Z " />
<glyph glyph-name="uni050D" unicode="&#x50d;" horiz-adv-x="889" d="M441 134 Q506 135 541.5 179.5 Q577 224 596 309 Q607 370 615 426.5 Q623 483 626 537 L821 537 Q818 465 813 412 Q808 359 798 309 Q762 146 657 62.5 Q552 -21 410 -21 Q228 -21 141 138.5 Q54 298 99 520 L107 562 Q155 802 291.5 952 Q428 1102 617 1102 Q688 1102 745 1084.5 Q802 1067 832 1037 L766 889 Q734 916 688 930.5 Q642 945 586 945 Q493 945 415 828 Q337 711 307 562 L299 520 Q265 353 297.5 243.5 Q330 134 441 134 Z " />
<glyph glyph-name="uni050E" unicode="&#x50e;" horiz-adv-x="1194" d="M578 1299 L215 1299 L246 1456 L1175 1456 L1144 1299 L778 1299 L590 353 Q567 243 585.5 188.5 Q604 134 659 134 Q752 135 824 240 Q896 345 935 529 Q955 627 963 728 Q971 829 967 931 L1161 932 Q1164 813 1159.5 717.5 Q1155 622 1135 529 Q1079 263 937 121 Q795 -21 628 -21 Q481 -24 419 66.5 Q357 157 390 353 L578 1299 Z " />
<glyph glyph-name="uni050F" unicode="&#x50f;" horiz-adv-x="1081" d="M426 927 L167 927 L198 1082 L929 1082 L898 927 L627 927 L513 353 Q491 251 511.5 192.5 Q532 134 588 134 Q661 135 717 213 Q773 291 803 429 Q820 507 824 591 Q828 675 819 756 L1014 756 Q1021 649 1020 575.5 Q1019 502 1004 429 Q956 211 831.5 95 Q707 -21 557 -21 Q407 -24 343.5 66.5 Q280 157 312 353 L426 927 Z " />
<glyph glyph-name="uni0510" unicode="&#x510;" horiz-adv-x="1125" d="M113 402 Q140 539 216 625.5 Q292 712 413 750 Q326 799 285.5 882.5 Q245 966 265 1065 Q306 1276 446 1376.5 Q586 1477 803 1477 Q974 1477 1082.5 1364.5 Q1191 1252 1152 1076 L1150 1071 L956 1071 Q979 1188 926 1254.5 Q873 1321 772 1321 Q653 1321 569.5 1248.5 Q486 1176 464 1067 Q439 943 485.5 881 Q532 819 659 819 L814 819 L806 780 L790 701 L783 665 L628 665 Q505 665 422.5 599.5 Q340 534 314 400 Q288 272 346 202.5 Q404 133 535 133 Q638 133 726.5 211.5 Q815 290 839 404 L1031 404 L1033 398 Q992 178 843 78.5 Q694 -21 504 -21 Q304 -21 189 93 Q74 207 113 402 Z " />
<glyph glyph-name="uni2000" unicode="&#x2000;" horiz-adv-x="867" d="" />
<glyph glyph-name="uni2001" unicode="&#x2001;" horiz-adv-x="1709" d="" />
<glyph glyph-name="uni2002" unicode="&#x2002;" horiz-adv-x="867" d="" />
<glyph glyph-name="uni2003" unicode="&#x2003;" horiz-adv-x="1709" d="" />
<glyph glyph-name="uni2004" unicode="&#x2004;" horiz-adv-x="588" d="" />
<glyph glyph-name="uni2005" unicode="&#x2005;" horiz-adv-x="447" d="" />
<glyph glyph-name="uni2006" unicode="&#x2006;" horiz-adv-x="306" d="" />
<glyph glyph-name="uni2007" unicode="&#x2007;" horiz-adv-x="954" d="" />
<glyph glyph-name="uni2008" unicode="&#x2008;" horiz-adv-x="478" d="" />
<glyph glyph-name="uni2009" unicode="&#x2009;" horiz-adv-x="363" d="" />
<glyph glyph-name="uni200A" unicode="&#x200a;" horiz-adv-x="195" d="" />
<glyph glyph-name="uni200B" unicode="&#x200b;" horiz-adv-x="26" d="" />
<glyph glyph-name="endash" unicode="&#x2013;" horiz-adv-x="1167" d="M1089.79 649 L214.898 649 L255.197 804 L1130.09 804 L1089.79 649 Z " />
<glyph glyph-name="emdash" unicode="&#x2014;" horiz-adv-x="1368" d="M1312.58 649 L235.796 649 L285.395 804 L1362.18 804 L1312.58 649 Z " />
<glyph glyph-name="underscoredbl" unicode="&#x2017;" horiz-adv-x="770" d="M590 -403 L-148 -403 L-118 -251 L620 -251 L590 -403 Z M639 -152 L-99 -152 L-69 0 L669 0 L639 -152 Z " />
<glyph glyph-name="quoteleft" unicode="&#x2018;" horiz-adv-x="357" d="M223 1222 L421 1560 L519 1560 L403 1221 L367 1040 L187 1040 L223 1222 Z " />
<glyph glyph-name="quoteright" unicode="&#x2019;" horiz-adv-x="357" d="M485 1372 L289 1041 L191 1041 L304 1370 L342 1560 L523 1560 L485 1372 Z " />
<glyph glyph-name="quotesinglbase" unicode="&#x201a;" horiz-adv-x="356" d="M216 40 L36 -239 L-69 -239 L32 26 L80 265 L261 265 L216 40 Z " />
<glyph glyph-name="quotereversed" unicode="&#x201b;" horiz-adv-x="368" d="M-151.941 1372 L44.0353 1041 L142.023 1041 L29.0371 1370 L-8.95825 1560 L-189.936 1560 L-151.941 1372 Z " />
<glyph glyph-name="quotedblleft" unicode="&#x201c;" horiz-adv-x="625" d="M223 1222 L421 1560 L519 1560 L403 1221 L367 1040 L187 1040 L223 1222 Z M490 1222 L688 1560 L786 1560 L670 1221 L634 1040 L454 1040 L490 1222 Z " />
<glyph glyph-name="quotedblright" unicode="&#x201d;" horiz-adv-x="632" d="M484 1372 L288 1041 L190 1041 L303 1370 L341 1560 L522 1560 L484 1372 Z M756 1372 L560 1041 L462 1041 L575 1370 L613 1560 L794 1560 L756 1372 Z " />
<glyph glyph-name="quotedblbase" unicode="&#x201e;" horiz-adv-x="614" d="M218 84 L27 -219 L-65 -219 L42 75 L84 283 L258 283 L218 84 Z M481 84 L290 -219 L198 -219 L306 81 L347 283 L521 283 L481 84 Z " />
<glyph glyph-name="dagger" unicode="&#x2020;" horiz-adv-x="925" d="M940 923 L637 923 L490 0 L290 0 L437 923 L141 923 L166 1082 L463 1082 L523 1456 L723 1456 L663 1082 L965 1082 L940 923 Z " />
<glyph glyph-name="daggerdbl" unicode="&#x2021;" horiz-adv-x="975" d="M815 0 L512 0 L446 -416 L246 -416 L312 0 L18 0 L43 154 L337 154 L461 925 L166 925 L191 1082 L486 1082 L546 1456 L746 1456 L686 1082 L988 1082 L963 925 L661 925 L537 154 L840 154 L815 0 Z " />
<glyph glyph-name="bullet" unicode="&#x2022;" horiz-adv-x="629" d="M202 793 Q220 886 280.5 939 Q341 992 427 992 Q508 992 550.5 935.5 Q593 879 576 793 L561 721 Q542 626 482.5 574.5 Q423 523 336 523 Q255 523 212 578.5 Q169 634 187 721 L202 793 Z " />
<glyph glyph-name="uni2025" unicode="&#x2025;" horiz-adv-x="852" d="M254 0 L53 0 L94 203 L295 203 L254 0 Z M625 0 L424 0 L465 203 L666 203 L625 0 Z " />
<glyph glyph-name="ellipsis" unicode="&#x2026;" horiz-adv-x="1200" d="M254 0 L53 0 L94 203 L295 203 L254 0 Z M625 0 L424 0 L465 203 L666 203 L625 0 Z M982 0 L781 0 L822 203 L1023 203 L982 0 Z " />
<glyph glyph-name="perthousand" unicode="&#x2030;" horiz-adv-x="1608" d="M657 357 Q684 491 767.5 574 Q851 657 965 657 Q1020 657 1061 627 Q1102 597 1124 546 Q1163 599 1216.5 628 Q1270 657 1333 657 Q1439 657 1493.5 569 Q1548 481 1523 357 L1508 279 Q1480 143 1397 61 Q1314 -21 1199 -21 Q1143 -21 1102 8 Q1061 37 1040 89 Q1000 36 946.5 7.5 Q893 -21 832 -21 Q726 -21 671.5 66.5 Q617 154 642 279 L657 357 Z M226 1176 Q253 1311 334.5 1394 Q416 1477 529 1477 Q635 1477 689 1389 Q743 1301 718 1176 L703 1099 Q675 964 592 882 Q509 800 395 800 Q291 800 238.5 887.5 Q186 975 211 1099 L226 1176 Z M780 279 Q764 201 783.5 150 Q803 99 856 99 Q907 99 946.5 151.5 Q986 204 1002 279 L1017 357 Q1033 437 1014 487 Q995 537 941 537 Q891 537 850 484 Q809 431 795 357 L780 279 Z M1147 279 Q1131 201 1151 150 Q1171 99 1223 99 Q1274 99 1313 151 Q1352 203 1368 279 L1383 357 Q1399 437 1380.5 487 Q1362 537 1309 537 Q1259 537 1217.5 484 Q1176 431 1162 357 L1147 279 Z M343 1099 Q327 1020 345 970 Q363 920 419 920 Q468 920 508 972.5 Q548 1025 564 1099 L579 1176 Q594 1255 576 1306 Q558 1357 505 1357 Q454 1357 413.5 1303 Q373 1249 358 1176 L343 1099 Z M333 113 L242 176 L1043 1314 L1132 1251 L333 113 Z " />
<glyph glyph-name="guilsinglleft" unicode="&#x2039;" horiz-adv-x="533" d="M294 550 L414 157 L278 157 L124 542 L125 548 L126 555 L127 561 L435 945 L571 945 L294 550 Z " />
<glyph glyph-name="guilsinglright" unicode="&#x203a;" horiz-adv-x="524" d="M321 946 L475 560 L473 554 L474 554 L471 541 L163 155 L27 155 L303 550 L185 946 L321 946 Z " />
<glyph glyph-name="fraction" unicode="&#x2044;" horiz-adv-x="769" d="M88 113 L-3 176 L798 1314 L887 1251 L88 113 Z " />
<glyph glyph-name="uni2074" unicode="&#x2074;" horiz-adv-x="781" d="M687 869 L790 869 L765 743 L662 743 L626 560 L466 560 L502 743 L130 743 L146 840 L645 1477 L809 1477 L687 869 Z M527 869 L600 1233 L595 1236 L327 869 L527 869 Z " />
<glyph glyph-name="nsuperior" unicode="&#x207f;" horiz-adv-x="719" d="M424 1452 L426 1337 Q467 1399 519 1432.5 Q571 1466 630 1466 Q724 1466 766 1389.5 Q808 1313 778 1159 L676 651 L517 651 L612 1125 Q635 1241 617.5 1285 Q600 1329 548 1329 Q508 1329 474.5 1300.5 Q441 1272 415 1222 L301 651 L141 651 L301 1452 L424 1452 Z " />
<glyph glyph-name="lira" unicode="&#x20a4;" horiz-adv-x="998" d="M421 458 L420 452 Q403 365 372 287 Q341 209 300 154 L872 154 L841 0 L46 0 L77 154 L83 154 Q124 167 162 262.5 Q200 358 219 452 L220 458 L86 458 L116 613 L246 613 L269 744 L142 744 L173 899 L296 899 L319 1036 Q363 1255 477.5 1366 Q592 1477 753 1477 Q910 1477 987 1367.5 Q1064 1258 1029 1082 L828 1082 Q854 1213 822.5 1267 Q791 1321 722 1321 Q659 1321 602.5 1245 Q546 1169 520 1036 L497 899 L808 899 L777 744 L470 744 L447 613 L753 613 L723 458 L421 458 Z " />
<glyph glyph-name="peseta" unicode="&#x20a7;" horiz-adv-x="1418" d="M1336 1351 L1282 1082 L1441 1082 L1412 937 L1253 937 L1125 293 Q1107 203 1123 170.5 Q1139 138 1178 138 Q1199 138 1220 141 Q1241 144 1268 150 L1260 10 Q1224 -4 1182 -12.5 Q1140 -21 1096 -21 Q991 -21 941.5 55.5 Q892 132 925 293 L1053 937 L957 937 Q909 775 801 678 Q669 560 468 560 L369 560 L257 0 L50 0 L341 1456 L647 1456 Q830 1456 922 1329 Q996 1227 986 1082 L1082 1082 L1136 1351 L1336 1351 Z M401 719 L500 719 Q597 719 670 804.5 Q743 890 768 1008 Q793 1137 757 1216.5 Q721 1296 615 1296 L516 1296 L401 719 Z " />
<glyph glyph-name="Euro" unicode="&#x20ac;" horiz-adv-x="916" d="M772 491 L405 491 L403 482 Q370 321 412 227 Q454 133 561 133 Q605 133 653.5 141.5 Q702 150 745 167 L731 10 Q682 -5 631 -13 Q580 -21 530 -21 Q350 -21 254.5 123 Q159 267 202 482 L204 491 L86 491 L116 646 L234 646 L263 787 L146 787 L176 942 L294 942 L299 965 Q346 1204 489 1340.5 Q632 1477 828 1477 Q872 1477 920 1468.5 Q968 1460 1018 1446 L969 1286 Q929 1302 886 1311.5 Q843 1321 797 1321 Q699 1321 614.5 1218.5 Q530 1116 500 967 L495 942 L862 942 L832 787 L464 787 L434 646 L802 646 L772 491 Z " />
<glyph glyph-name="uni2105" unicode="&#x2105;" horiz-adv-x="1242" d="M686 1049 L688 1043 Q671 944 591.5 872 Q512 800 412 800 Q301 800 255 882 Q209 964 237 1099 L252 1176 Q277 1301 361 1389 Q445 1477 546 1477 Q656 1477 703.5 1408 Q751 1339 729 1226 L590 1226 Q601 1278 582.5 1317.5 Q564 1357 522 1357 Q475 1357 440.5 1306 Q406 1255 391 1176 L376 1099 Q361 1027 377 973.5 Q393 920 436 920 Q481 920 512.5 957.5 Q544 995 555 1049 L686 1049 Z M644 357 Q671 492 753.5 574.5 Q836 657 952 657 Q1061 657 1114 569.5 Q1167 482 1142 357 L1127 279 Q1099 142 1017.5 60.5 Q936 -21 819 -21 Q711 -21 657 66.5 Q603 154 629 279 L644 357 Z M767 279 Q751 201 770.5 150 Q790 99 843 99 Q894 99 933.5 151.5 Q973 204 989 279 L1004 357 Q1020 437 1001 487 Q982 537 928 537 Q878 537 837 484 Q796 431 782 357 L767 279 Z M316 113 L225 176 L1026 1314 L1115 1251 L316 113 Z " />
<glyph glyph-name="uni2113" unicode="&#x2113;" horiz-adv-x="829" d="M516 -13 L510 -14 Q322 -19 252 93.5 Q182 206 227 431 L230 445 Q187 434 145.5 428.5 Q104 423 63 423 L94 578 Q137 578 178.5 583.5 Q220 589 261 600 L356 1077 Q392 1260 490.5 1368.5 Q589 1477 709 1477 Q822 1477 874.5 1393.5 Q927 1310 896 1152 L888 1110 Q857 959 738 801 Q619 643 455 542 L436 447 Q408 307 434.5 227 Q461 147 547 147 L516 -13 Z M701 1108 L709 1152 Q724 1229 715.5 1271 Q707 1313 683 1306 L677 1307 Q644 1313 616.5 1260.5 Q589 1208 565 1089 L496 747 L502 744 Q575 805 626.5 901.5 Q678 998 701 1108 Z " />
<glyph glyph-name="uni2116" unicode="&#x2116;" horiz-adv-x="1837" d="M971 0 L771 0 L470 1069 L464 1068 L251 0 L50 0 L341 1456 L542 1456 L844 391 L850 392 L1062 1456 L1262 1456 L971 0 Z M1310 1140 Q1342 1296 1434 1385 Q1526 1474 1656 1474 Q1775 1474 1836 1379 Q1897 1284 1868 1140 L1845 1023 Q1813 865 1721.5 777 Q1630 689 1501 689 Q1381 689 1319 783 Q1257 877 1287 1023 L1310 1140 Z M1428 1023 Q1408 923 1432 867.5 Q1456 812 1526 812 Q1587 812 1636.5 871.5 Q1686 931 1705 1023 L1728 1140 Q1748 1236 1723.5 1292 Q1699 1348 1631 1348 Q1569 1348 1519 1288 Q1469 1228 1451 1140 L1428 1023 Z M1640 370 L1213 370 L1244 525 L1671 525 L1640 370 Z " />
<glyph glyph-name="trademark" unicode="&#x2122;" horiz-adv-x="1064" d="M820 1065 L826 1064 L1015 1456 L1122 1456 L1014 917 L925 917 L987 1227 L981 1229 L818 917 L768 917 L728 1242 L722 1243 L657 917 L566 917 L674 1456 L787 1456 L820 1065 Z M598 1371 L487 1371 L397 918 L301 918 L391 1371 L282 1371 L299 1456 L615 1456 L598 1371 Z " />
<glyph glyph-name="estimated" unicode="&#x212e;" horiz-adv-x="1073" d="M788 94 Q707 39 625.5 9.5 Q544 -20 467 -20 Q303 -20 207.5 146.5 Q112 313 157 541 Q205 782 365 942 Q525 1102 691 1102 Q847 1102 936.5 945 Q1026 788 981 561 L972 514 L354 514 L288 186 Q322 133 373 104.5 Q424 76 486 76 Q558 76 642 106.5 Q726 137 807 198 L788 94 Z M673 1008 Q617 1008 550.5 975 Q484 942 428 886 L373 609 L808 609 L865 895 Q831 948 782 978 Q733 1008 673 1008 Z " />
<glyph glyph-name="oneeighth" unicode="&#x215b;" horiz-adv-x="1427" d="M401 646 L244 646 L377 1312 L275 1309 L300 1435 L563 1458 L401 646 Z M304 113 L213 176 L1014 1314 L1103 1251 L304 113 Z M1342 592 Q1328 528 1288 482.5 Q1248 437 1189 412 Q1244 383 1272 334 Q1300 285 1288 223 Q1264 105 1177.5 47 Q1091 -11 973 -11 Q860 -11 788.5 51.5 Q717 114 740 223 Q753 292 801.5 342 Q850 392 921 417 Q870 444 846 489.5 Q822 535 833 592 Q855 703 938.5 757.5 Q1022 812 1136 812 Q1238 812 1300.5 753.5 Q1363 695 1342 592 Z M1135 229 Q1146 288 1119.5 321 Q1093 354 1045 354 Q996 354 951 318.5 Q906 283 896 229 Q884 171 913.5 140.5 Q943 110 997 110 Q1041 110 1082.5 143 Q1124 176 1135 229 Z M1185 585 Q1194 636 1173 662.5 Q1152 689 1112 689 Q1070 689 1033.5 661 Q997 633 988 585 Q977 532 1000.5 503.5 Q1024 475 1070 475 Q1107 475 1141 505.5 Q1175 536 1185 585 Z " />
<glyph glyph-name="threeeighths" unicode="&#x215c;" horiz-adv-x="1549" d="M398 1124 L496 1124 Q544 1124 576.5 1154.5 Q609 1185 620 1239 Q630 1290 611 1319.5 Q592 1349 542 1349 Q501 1349 468 1321 Q435 1293 427 1249 L282 1249 L280 1255 Q296 1359 376 1415.5 Q456 1472 564 1472 Q675 1472 736.5 1411.5 Q798 1351 777 1244 Q765 1183 726.5 1137.5 Q688 1092 632 1068 Q683 1044 705.5 996 Q728 948 715 882 Q691 764 608.5 706.5 Q526 649 404 649 Q299 649 233 708.5 Q167 768 194 880 L196 885 L345 885 Q333 830 354.5 800 Q376 770 427 770 Q474 770 512 801.5 Q550 833 561 886 Q574 954 552 982.5 Q530 1011 473 1011 L375 1011 L391 1090 L398 1124 Z M453 113 L362 176 L1163 1314 L1252 1251 L453 113 Z M1463 592 Q1449 528 1409 482.5 Q1369 437 1310 412 Q1365 383 1393 334 Q1421 285 1409 223 Q1385 105 1298.5 47 Q1212 -11 1094 -11 Q981 -11 909.5 51.5 Q838 114 861 223 Q874 292 922.5 342 Q971 392 1042 417 Q991 444 967 489.5 Q943 535 954 592 Q976 703 1059.5 757.5 Q1143 812 1257 812 Q1359 812 1421.5 753.5 Q1484 695 1463 592 Z M1256 229 Q1267 288 1240.5 321 Q1214 354 1166 354 Q1117 354 1072 318.5 Q1027 283 1017 229 Q1005 171 1034.5 140.5 Q1064 110 1118 110 Q1162 110 1203.5 143 Q1245 176 1256 229 Z M1306 585 Q1315 636 1294 662.5 Q1273 689 1233 689 Q1191 689 1154.5 661 Q1118 633 1109 585 Q1098 532 1121.5 503.5 Q1145 475 1191 475 Q1228 475 1262 505.5 Q1296 536 1306 585 Z " />
<glyph glyph-name="fiveeighths" unicode="&#x215d;" horiz-adv-x="1589" d="M239 1001 L372 1455 L801 1455 L776 1331 L484 1331 L427 1130 Q453 1149 487 1162 Q521 1175 556 1176 Q662 1178 709 1107 Q756 1036 732 912 Q705 781 626.5 712 Q548 643 409 643 Q301 643 232.5 699.5 Q164 756 190 862 L192 867 L342 877 Q330 820 355.5 792 Q381 764 433 764 Q487 764 524.5 802 Q562 840 576 909 Q590 982 570 1021 Q550 1060 502 1060 Q455 1060 423.5 1041.5 Q392 1023 376 992 L239 1001 Z M498 113 L407 176 L1208 1314 L1297 1251 L498 113 Z M1503 592 Q1489 528 1449 482.5 Q1409 437 1350 412 Q1405 383 1433 334 Q1461 285 1449 223 Q1425 105 1338.5 47 Q1252 -11 1134 -11 Q1021 -11 949.5 51.5 Q878 114 901 223 Q914 292 962.5 342 Q1011 392 1082 417 Q1031 444 1007 489.5 Q983 535 994 592 Q1016 703 1099.5 757.5 Q1183 812 1297 812 Q1399 812 1461.5 753.5 Q1524 695 1503 592 Z M1296 229 Q1307 288 1280.5 321 Q1254 354 1206 354 Q1157 354 1112 318.5 Q1067 283 1057 229 Q1045 171 1074.5 140.5 Q1104 110 1158 110 Q1202 110 1243.5 143 Q1285 176 1296 229 Z M1346 585 Q1355 636 1334 662.5 Q1313 689 1273 689 Q1231 689 1194.5 661 Q1158 633 1149 585 Q1138 532 1161.5 503.5 Q1185 475 1231 475 Q1268 475 1302 505.5 Q1336 536 1346 585 Z " />
<glyph glyph-name="seveneighths" unicode="&#x215e;" horiz-adv-x="1459" d="M759 1332 Q621 1171 557 1068.5 Q493 966 456 781 L431 654 L276 654 L301 781 Q340 977 416 1091 Q492 1205 607 1332 L280 1332 L304 1455 L783 1455 L759 1332 Z M348 113 L257 176 L1058 1314 L1147 1251 L348 113 Z M1374 592 Q1360 528 1320 482.5 Q1280 437 1221 412 Q1276 383 1304 334 Q1332 285 1320 223 Q1296 105 1209.5 47 Q1123 -11 1005 -11 Q892 -11 820.5 51.5 Q749 114 772 223 Q785 292 833.5 342 Q882 392 953 417 Q902 444 878 489.5 Q854 535 865 592 Q887 703 970.5 757.5 Q1054 812 1168 812 Q1270 812 1332.5 753.5 Q1395 695 1374 592 Z M1167 229 Q1178 288 1151.5 321 Q1125 354 1077 354 Q1028 354 983 318.5 Q938 283 928 229 Q916 171 945.5 140.5 Q975 110 1029 110 Q1073 110 1114.5 143 Q1156 176 1167 229 Z M1217 585 Q1226 636 1205 662.5 Q1184 689 1144 689 Q1102 689 1065.5 661 Q1029 633 1020 585 Q1009 532 1032.5 503.5 Q1056 475 1102 475 Q1139 475 1173 505.5 Q1207 536 1217 585 Z " />
<glyph glyph-name="partialdiff" unicode="&#x2202;" horiz-adv-x="1005" d="M624 1517 Q836 1443 932.5 1245.5 Q1029 1048 971 755 L927 535 Q875 274 725.5 126.5 Q576 -21 390 -21 Q221 -21 127 120 Q33 261 74 462 Q123 710 249 839 Q375 968 558 968 Q628 968 686.5 935.5 Q745 903 776 847 L780 851 Q811 1065 740.5 1178.5 Q670 1292 530 1353 L624 1517 Z M424 134 Q514 134 603.5 249.5 Q693 365 727 535 L751 659 Q737 727 685 772 Q633 817 547 817 Q454 817 380 716 Q306 615 275 462 Q247 321 285.5 227.5 Q324 134 424 134 Z " />
<glyph glyph-name="product" unicode="&#x220f;" horiz-adv-x="1175" d="M924 -235 L751 -235 L997 1302 L459 1302 L213 -235 L39 -235 L310 1456 L1195 1456 L924 -235 Z " />
<glyph glyph-name="summation" unicode="&#x2211;" horiz-adv-x="1031" d="M778 578 L195 -109 L197 -114 L887 -114 L856 -269 L-75 -269 L-50 -143 L570 592 L245 1329 L270 1456 L1159 1456 L1128 1301 L473 1301 L783 605 L778 578 Z " />
<glyph glyph-name="minus" unicode="&#x2212;" horiz-adv-x="954" d="M856 649 L183 649 L214 804 L887 804 L856 649 Z " />
<glyph glyph-name="radical" unicode="&#x221a;" horiz-adv-x="987" d="M433 339 L434 223 L440 222 L485 339 L980 1456 L1149 1456 L473 0 L316 0 L252 604 L96 604 L127 759 L416 759 L433 339 Z " />
<glyph glyph-name="infinity" unicode="&#x221e;" horiz-adv-x="1735" d="M1652 506 Q1604 266 1468.5 122.5 Q1333 -21 1150 -21 Q1032 -21 959 80.5 Q886 182 849 331 Q754 181 640.5 80 Q527 -21 400 -21 Q232 -21 148.5 132 Q65 285 109 506 L123 573 Q170 813 305 957.5 Q440 1102 623 1102 Q740 1102 814.5 1001 Q889 900 928 752 Q1020 900 1134 1001 Q1248 1102 1376 1102 Q1542 1102 1625.5 947.5 Q1709 793 1666 573 L1652 506 Z M309 506 Q274 332 304 232.5 Q334 133 431 133 Q526 133 634.5 281.5 Q743 430 781 523 L788 562 Q788 661 742 803.5 Q696 946 592 946 Q504 946 428.5 838 Q353 730 323 573 L309 506 Z M1465 573 Q1499 744 1469.5 845 Q1440 946 1345 946 Q1248 946 1146 807.5 Q1044 669 994 562 L987 523 Q990 413 1034 273 Q1078 133 1181 133 Q1270 133 1344.5 239.5 Q1419 346 1451 506 L1465 573 Z " />
<glyph glyph-name="integral" unicode="&#x222b;" horiz-adv-x="468" d="M257 -74 Q228 -254 138 -345.5 Q48 -437 -89 -437 Q-115 -437 -139 -432.5 Q-163 -428 -188 -419 L-152 -268 Q-138 -273 -116 -277 Q-94 -281 -77 -281 Q-30 -281 5.5 -226 Q41 -171 57 -74 L264 1221 Q292 1400 385 1490.5 Q478 1581 622 1581 Q650 1581 680 1575 Q710 1569 743 1560 L700 1414 Q682 1419 665 1422 Q648 1425 626 1425 Q565 1425 522 1371 Q479 1317 464 1221 L257 -74 Z " />
<glyph glyph-name="approxequal" unicode="&#x2248;" horiz-adv-x="969" d="M191 866 Q242 934 299.5 973 Q357 1012 410 1012 Q466 1013 496 998.5 Q526 984 590 939 Q647 897 676 883 Q705 869 758 869 Q806 869 865.5 908 Q925 947 972 1012 L977 1009 L954 854 Q902 785 844.5 746.5 Q787 708 735 708 Q685 708 650 724 Q615 740 565 777 Q498 824 470 838 Q442 852 385 851 Q335 851 276.5 811.5 Q218 772 172 708 L167 711 L191 866 Z M99 447 Q151 515 208.5 554 Q266 593 319 593 Q375 594 404.5 579.5 Q434 565 498 520 Q557 477 585 463 Q613 449 666 449 Q714 449 774 488.5 Q834 528 880 593 L885 590 L862 434 Q809 365 751.5 326.5 Q694 288 642 288 Q593 288 558.5 303.5 Q524 319 473 357 Q407 403 378 417.5 Q349 432 292 431 Q244 431 185 391.5 Q126 352 80 288 L75 291 L99 447 Z " />
<glyph glyph-name="notequal" unicode="&#x2260;" horiz-adv-x="917" d="M771 968 L944 968 L912 808 L671 808 L510 550 L860 550 L828 390 L410 390 L253 138 L181 194 L303 390 L129 390 L161 550 L403 550 L564 808 L213 808 L245 968 L664 968 L821 1219 L893 1162 L771 968 Z " />
<glyph glyph-name="lessequal" unicode="&#x2264;" horiz-adv-x="910" d="M405 686.314 L340 673.714 L340 668.313 L399 655.713 L820 439.707 L781 266.902 L179 605.312 L200 698.914 L210 741.215 L961 1077.82 L923 905.02 L405 686.314 Z M742 12 L69 12 L100 167 L773 167 L742 12 Z " />
<glyph glyph-name="greaterequal" unicode="&#x2265;" horiz-adv-x="913" d="M254 908.62 L292 1077.82 L915 741.215 L906 700.714 L894 644.913 L885 604.412 L112 266.902 L150 437.007 L689 659.313 L753 671.013 L753 676.414 L696 689.914 L254 908.62 Z M739 12 L66 12 L97 167 L770 167 L739 12 Z " />
<glyph glyph-name="lozenge" unicode="&#x25ca;" horiz-adv-x="876" d="M554 1456 L732 1456 L896 727 L442 0 L265 0 L101 727 L554 1456 Z M688 727 L615 1234 L611 1283 L605 1285 L581 1234 L309 727 L382 220 L385 171 L391 170 L416 220 L688 727 Z " />
<glyph glyph-name="commaaccent" unicode="&#xf6c3;" horiz-adv-x="423" d="M199 85 L52 -139 L-37 -139 L58 92 L85 224 L227 224 L199 85 Z " />
<glyph glyph-name="fi" unicode="&#xfb01;" horiz-adv-x="992" d="M80 0 L267 937 L133 937 L162 1082 L296 1082 L319 1193 Q358 1391 469 1486 Q580 1581 752 1581 Q808 1581 867 1565 Q926 1549 989 1521 L928 1363 Q885 1385 837.5 1398.5 Q790 1412 732 1412 Q650 1412 595 1355.5 Q540 1299 520 1193 L497 1082 L668 1082 L639 937 L468 937 L281 0 L80 0 Z M780 0 L579 0 L795 1082 L996 1082 L780 0 Z " />
<glyph glyph-name="uniFEFF" unicode="&#xfeff;" horiz-adv-x="26" d="" />
<glyph glyph-name="uniFFFC" unicode="&#xfffc;" horiz-adv-x="1715" d="M685 468 Q663 364 601.5 306.5 Q540 249 456 249 Q378 249 336 310.5 Q294 372 314 468 L336 580 Q356 683 418 741 Q480 799 564 799 Q641 799 683.5 737 Q726 675 707 580 L685 468 Z M696 252 L806 801 L956 801 Q1033 801 1073 763 Q1113 725 1098 651 Q1089 609 1066 579 Q1043 549 1007 534 Q1043 521 1057.5 486.5 Q1072 452 1063 407 Q1047 326 998 289 Q949 252 873 252 L696 252 Z M633 580 Q647 652 624.5 689.5 Q602 727 549 727 Q501 727 462 686.5 Q423 646 410 580 L388 468 Q373 394 394.5 357.5 Q416 321 470 321 Q518 321 557.5 360.5 Q597 400 611 468 L633 580 Z M1447 803 L1521 803 L1445 425 Q1428 341 1377.5 297.5 Q1327 254 1261 254 Q1191 254 1154 296 Q1117 338 1134 418 L1210 418 Q1199 369 1216.5 348 Q1234 327 1275 327 Q1304 327 1333 354.5 Q1362 382 1371 425 L1447 803 Z M1232 -398 L1255 -285 L1415 -285 L1455 -83 L1545 -83 L1482 -398 L1232 -398 Z M-80 -398 L-17 -83 L73 -83 L33 -285 L191 -285 L168 -398 L-80 -398 Z M1580 1338 L1603 1454 L1853 1454 L1796 1169 L1706 1169 L1740 1338 L1580 1338 Z M234 1169 L291 1454 L539 1454 L516 1338 L358 1338 L324 1169 L234 1169 Z M821 496 L787 327 L888 327 Q926 327 953.5 349 Q981 371 989 410 Q996 450 981.5 471.5 Q967 493 930 496 L922 496 L821 496 Z M1258 1338 L1281 1454 L1505 1454 L1482 1338 L1258 1338 Z M937 1338 L960 1454 L1183 1454 L1160 1338 L937 1338 Z M615 1338 L638 1454 L861 1454 L838 1338 L615 1338 Z M910 -398 L933 -285 L1157 -285 L1134 -398 L910 -398 Z M589 -398 L612 -285 L835 -285 L812 -398 L589 -398 Z M267 -398 L290 -285 L513 -285 L490 -398 L267 -398 Z M835 566 L917 566 Q958 567 985.5 587.5 Q1013 608 1021 646 Q1029 688 1009.5 702.5 Q990 717 939 717 L865 717 L835 566 Z M1645 416 L1555 416 L1606 668 L1696 668 L1645 416 Z M173 416 L83 416 L134 668 L224 668 L173 416 Z M1721 794 L1631 794 L1681 1044 L1771 1044 L1721 794 Z M249 794 L159 794 L209 1044 L299 1044 L249 794 Z M98 41 L8 41 L58 290 L148 290 L98 41 Z M1570 41 L1480 41 L1530 290 L1620 290 L1570 41 Z " />
<glyph glyph-name="uniFFFD" unicode="&#xfffd;" horiz-adv-x="1719" d="M1096 1618 L1675 643 L706 -332 L131 643 L1096 1618 Z M920 402 Q931 459 947 487 Q963 515 1001 542 Q1067 581 1117.5 646 Q1168 711 1184 790 Q1211 927 1159 998 Q1107 1069 986 1069 Q883 1069 799 1003 Q715 937 692 809 L694 803 L849 803 Q860 854 889 880 Q918 906 953 906 Q994 906 1012.5 873.5 Q1031 841 1021 790 Q1010 737 983 700 Q956 663 914 635 Q840 579 807.5 534.5 Q775 490 757 402 L920 402 Z M902 311 L739 311 L705 141 L868 141 L902 311 Z M670 -551 L673 -551 L672 -555 L669 -555 L670 -551 Z M1207 2146 L1210 2146 L1209 2142 L1206 2142 L1207 2146 Z " />
<glyph glyph-name="nbspace" unicode="&#xa0;" horiz-adv-x="436" d="" />
<glyph glyph-name="uni00AD" unicode="&#xad;" horiz-adv-x="584" d="M526 542 L99 542 L130 697 L557 697 L526 542 Z " />
<glyph glyph-name="Dcroat" unicode="&#x110;" horiz-adv-x="1140" d="M725 1456 Q936 1456 1061 1273 Q1186 1090 1133 823 L1091 616 Q1032 319 877 159.5 Q722 0 499 0 L83 0 L217 670 L97 670 L125 811 L245 811 L374 1456 L725 1456 Z M628 670 L418 670 L315 154 L524 154 Q654 154 751.5 280.5 Q849 407 891 616 L933 826 Q975 1040 906 1170 Q837 1300 688 1300 L544 1300 L446 811 L656 811 L628 670 Z " />
<glyph glyph-name="Eth" unicode="&#xd0;" horiz-adv-x="1140" d="M725 1456 Q936 1456 1061 1273 Q1186 1090 1133 823 L1091 616 Q1032 319 877 159.5 Q722 0 499 0 L83 0 L217 670 L97 670 L125 811 L245 811 L374 1456 L725 1456 Z M628 670 L418 670 L315 154 L524 154 Q654 154 751.5 280.5 Q849 407 891 616 L933 826 Q975 1040 906 1170 Q837 1300 688 1300 L544 1300 L446 811 L656 811 L628 670 Z " />
<glyph glyph-name="hbar" unicode="&#x127;" horiz-adv-x="990" d="M709 1237 L504 1237 L448 958 L453 954 Q505 1025 574 1063.5 Q643 1102 720 1102 Q850 1102 910 992.5 Q970 883 926 662 L794 0 L593 0 L726 664 Q758 824 730.5 884 Q703 944 621 944 Q567 944 514 907 Q461 870 418 807 L257 0 L56 0 L303 1237 L178 1237 L206 1378 L331 1378 L368 1560 L569 1560 L532 1378 L737 1378 L709 1237 Z " />
<glyph glyph-name="Tbar" unicode="&#x166;" horiz-adv-x="979" d="M833 805 L665 805 L504 0 L304 0 L465 805 L302 805 L330 946 L493 946 L564 1300 L213 1300 L244 1456 L1148 1456 L1117 1300 L764 1300 L693 946 L861 946 L833 805 Z " />
<glyph glyph-name="tbar" unicode="&#x167;" horiz-adv-x="612" d="M553 1351 L499 1082 L658 1082 L629 937 L470 937 L428 728 L600 728 L572 587 L400 587 L342 293 Q324 203 340 170.5 Q356 138 395 138 Q416 138 437 141 Q458 144 485 150 L477 10 Q441 -4 399 -12.5 Q357 -21 313 -21 Q208 -21 158.5 55.5 Q109 132 142 293 L200 587 L41 587 L69 728 L228 728 L270 937 L137 937 L166 1082 L299 1082 L353 1351 L553 1351 Z " />
<glyph glyph-name="Agrave" unicode="&#xc0;" horiz-adv-x="1098" d="M757 368 L323 368 L149 0 L-54 0 L663 1456 L856 1456 L987 0 L784 0 L757 368 Z M400 529 L745 529 L701 1149 L695 1150 L400 529 Z M896 1561 L730 1561 L548 1827 L778 1827 L896 1561 Z " />
<glyph glyph-name="Aacute" unicode="&#xc1;" horiz-adv-x="1098" d="M757 368 L323 368 L149 0 L-54 0 L663 1456 L856 1456 L987 0 L784 0 L757 368 Z M400 529 L745 529 L701 1149 L695 1150 L400 529 Z M903 1824 L1124 1824 L1126 1818 L857 1558 L698 1558 L903 1824 Z " />
<glyph glyph-name="Acircumflex" unicode="&#xc2;" horiz-adv-x="1098" d="M757 368 L323 368 L149 0 L-54 0 L663 1456 L856 1456 L987 0 L784 0 L757 368 Z M400 529 L745 529 L701 1149 L695 1150 L400 529 Z M1085 1621 L1080 1599 L919 1599 L834 1750 L688 1599 L530 1599 L535 1622 L795 1854 L913 1854 L1085 1621 Z " />
<glyph glyph-name="Atilde" unicode="&#xc3;" horiz-adv-x="1098" d="M757 368 L323 368 L149 0 L-54 0 L663 1456 L856 1456 L987 0 L784 0 L757 368 Z M400 529 L745 529 L701 1149 L695 1150 L400 529 Z M1134 1838 Q1118 1742 1061.5 1681 Q1005 1620 931 1620 Q877 1620 816.5 1669 Q756 1718 714 1718 Q684 1718 656.5 1684 Q629 1650 622 1602 L517 1630 Q532 1724 589.5 1787 Q647 1850 721 1850 Q764 1850 830 1800.5 Q896 1751 938 1751 Q968 1751 996 1785.5 Q1024 1820 1032 1869 L1134 1838 Z " />
<glyph glyph-name="Adieresis" unicode="&#xc4;" horiz-adv-x="1098" d="M757 368 L323 368 L149 0 L-54 0 L663 1456 L856 1456 L987 0 L784 0 L757 368 Z M400 529 L745 529 L701 1149 L695 1150 L400 529 Z M1113 1617 L911 1617 L941 1802 L1143 1802 L1113 1617 Z M703 1617 L501 1617 L531 1802 L733 1802 L703 1617 Z " />
<glyph glyph-name="Aring" unicode="&#xc5;" horiz-adv-x="1098" d="M757 368 L323 368 L149 0 L-54 0 L663 1456 L856 1456 L987 0 L784 0 L757 368 Z M400 529 L745 529 L701 1149 L695 1150 L400 529 Z M656 1734 Q672 1817 732.5 1867.5 Q793 1918 868 1918 Q935 1918 977 1864 Q1019 1810 1004 1734 Q987 1649 928 1601 Q869 1553 795 1553 Q726 1553 683 1604.5 Q640 1656 656 1734 Z M747 1734 Q738 1690 757 1664 Q776 1638 812 1638 Q845 1638 874 1665 Q903 1692 912 1734 Q921 1780 904 1806.5 Q887 1833 851 1833 Q818 1833 786.5 1804.5 Q755 1776 747 1734 Z " />
<glyph glyph-name="Aringacute" unicode="&#x1fa;" horiz-adv-x="1098" d="M757 368 L323 368 L149 0 L-54 0 L663 1456 L856 1456 L987 0 L784 0 L757 368 Z M400 529 L745 529 L701 1149 L695 1150 L400 529 Z M986 2100 L1169 2100 L1171 2094 L938 1900 L817 1900 L815 1905 L986 2100 Z M669 1682 Q684 1758 737 1804 Q790 1850 856 1850 Q914 1850 950 1801 Q986 1752 973 1682 Q957 1606 905.5 1562.5 Q854 1519 790 1519 Q729 1519 692 1565.5 Q655 1612 669 1682 Z M750 1682 Q741 1643 757.5 1619.5 Q774 1596 806 1596 Q832 1596 857 1620.5 Q882 1645 890 1682 Q898 1723 884 1747.5 Q870 1772 841 1772 Q811 1772 784 1746 Q757 1720 750 1682 Z " />
<glyph glyph-name="Ccedilla" unicode="&#xc7;" horiz-adv-x="1041" d="M1004 459 L1006 453 Q948 226 824 102.5 Q700 -21 501 -21 Q305 -21 191.5 159 Q78 339 132 603 L184 863 Q242 1156 385 1316.5 Q528 1477 732 1477 Q928 1477 1036 1341.5 Q1144 1206 1116 978 L917 978 Q935 1142 885.5 1231.5 Q836 1321 712 1321 Q604 1321 514.5 1193 Q425 1065 385 865 L333 603 Q289 388 340.5 260.5 Q392 133 518 133 Q627 133 695.5 212 Q764 291 812 459 L1004 459 Z M526 -3 L505 -61 Q555 -71 581 -112 Q607 -153 591 -233 Q570 -337 492 -391 Q414 -445 289 -443 L284 -440 L300 -334 Q345 -334 381 -308.5 Q417 -283 427 -233 Q437 -180 415 -162 Q393 -144 327 -137 L378 -3 L526 -3 Z " />
<glyph glyph-name="Egrave" unicode="&#xc8;" horiz-adv-x="981" d="M900 676 L389 676 L285 154 L878 154 L847 0 L53 0 L344 1456 L1132 1456 L1101 1300 L514 1300 L420 831 L931 831 L900 676 Z M835 1561 L669 1561 L487 1827 L717 1827 L835 1561 Z " />
<glyph glyph-name="Eacute" unicode="&#xc9;" horiz-adv-x="981" d="M900 676 L389 676 L285 154 L878 154 L847 0 L53 0 L344 1456 L1132 1456 L1101 1300 L514 1300 L420 831 L931 831 L900 676 Z M842 1824 L1063 1824 L1065 1818 L796 1558 L637 1558 L842 1824 Z " />
<glyph glyph-name="Ecircumflex" unicode="&#xca;" horiz-adv-x="981" d="M900 676 L389 676 L285 154 L878 154 L847 0 L53 0 L344 1456 L1132 1456 L1101 1300 L514 1300 L420 831 L931 831 L900 676 Z M1024 1621 L1019 1599 L858 1599 L773 1750 L627 1599 L469 1599 L474 1622 L734 1854 L852 1854 L1024 1621 Z " />
<glyph glyph-name="Edieresis" unicode="&#xcb;" horiz-adv-x="981" d="M900 676 L389 676 L285 154 L878 154 L847 0 L53 0 L344 1456 L1132 1456 L1101 1300 L514 1300 L420 831 L931 831 L900 676 Z M1052 1617 L850 1617 L880 1802 L1082 1802 L1052 1617 Z M642 1617 L440 1617 L470 1802 L672 1802 L642 1617 Z " />
<glyph glyph-name="Igrave" unicode="&#xcc;" horiz-adv-x="502" d="M265 0 L65 0 L356 1456 L556 1456 L265 0 Z M579 1561 L413 1561 L231 1827 L461 1827 L579 1561 Z " />
<glyph glyph-name="Iacute" unicode="&#xcd;" horiz-adv-x="502" d="M265 0 L65 0 L356 1456 L556 1456 L265 0 Z M584 1824 L805 1824 L807 1818 L538 1558 L379 1558 L584 1824 Z " />
<glyph glyph-name="Icircumflex" unicode="&#xce;" horiz-adv-x="502" d="M265 0 L65 0 L356 1456 L556 1456 L265 0 Z M768 1621 L763 1599 L602 1599 L517 1750 L371 1599 L213 1599 L218 1622 L478 1854 L596 1854 L768 1621 Z " />
<glyph glyph-name="Idieresis" unicode="&#xcf;" horiz-adv-x="502" d="M265 0 L65 0 L356 1456 L556 1456 L265 0 Z M796 1617 L594 1617 L624 1802 L826 1802 L796 1617 Z M386 1617 L184 1617 L214 1802 L416 1802 L386 1617 Z " />
<glyph glyph-name="Ntilde" unicode="&#xd1;" horiz-adv-x="1199" d="M974 0 L774 0 L473 1069 L467 1068 L254 0 L53 0 L344 1456 L545 1456 L847 391 L853 392 L1065 1456 L1265 1456 L974 0 Z M1163 1838 Q1147 1742 1090.5 1681 Q1034 1620 960 1620 Q906 1620 845.5 1669 Q785 1718 743 1718 Q713 1718 685.5 1684 Q658 1650 651 1602 L546 1630 Q561 1724 618.5 1787 Q676 1850 750 1850 Q793 1850 859 1800.5 Q925 1751 967 1751 Q997 1751 1025 1785.5 Q1053 1820 1061 1869 L1163 1838 Z " />
<glyph glyph-name="Ograve" unicode="&#xd2;" horiz-adv-x="1115" d="M1091 596 Q1032 303 878 141 Q724 -21 506 -21 Q305 -21 191.5 160.5 Q78 342 131 607 L182 859 Q240 1152 389 1314.5 Q538 1477 752 1477 Q957 1477 1075 1294 Q1193 1111 1141 847 L1091 596 Z M942 849 Q984 1063 921.5 1190 Q859 1317 720 1317 Q603 1317 513 1191.5 Q423 1066 382 861 L331 607 Q288 390 346 263.5 Q404 137 537 137 Q659 137 754 263 Q849 389 891 596 L942 849 Z M889 1582 L723 1582 L541 1848 L771 1848 L889 1582 Z " />
<glyph glyph-name="Oacute" unicode="&#xd3;" horiz-adv-x="1115" d="M1091 596 Q1032 303 878 141 Q724 -21 506 -21 Q305 -21 191.5 160.5 Q78 342 131 607 L182 859 Q240 1152 389 1314.5 Q538 1477 752 1477 Q957 1477 1075 1294 Q1193 1111 1141 847 L1091 596 Z M942 849 Q984 1063 921.5 1190 Q859 1317 720 1317 Q603 1317 513 1191.5 Q423 1066 382 861 L331 607 Q288 390 346 263.5 Q404 137 537 137 Q659 137 754 263 Q849 389 891 596 L942 849 Z M896 1845 L1117 1845 L1119 1839 L850 1579 L691 1579 L896 1845 Z " />
<glyph glyph-name="Ocircumflex" unicode="&#xd4;" horiz-adv-x="1115" d="M1091 596 Q1032 303 878 141 Q724 -21 506 -21 Q305 -21 191.5 160.5 Q78 342 131 607 L182 859 Q240 1152 389 1314.5 Q538 1477 752 1477 Q957 1477 1075 1294 Q1193 1111 1141 847 L1091 596 Z M942 849 Q984 1063 921.5 1190 Q859 1317 720 1317 Q603 1317 513 1191.5 Q423 1066 382 861 L331 607 Q288 390 346 263.5 Q404 137 537 137 Q659 137 754 263 Q849 389 891 596 L942 849 Z M1078 1642 L1073 1620 L912 1620 L827 1771 L681 1620 L523 1620 L528 1643 L788 1875 L906 1875 L1078 1642 Z " />
<glyph glyph-name="Otilde" unicode="&#xd5;" horiz-adv-x="1115" d="M1091 596 Q1032 303 878 141 Q724 -21 506 -21 Q305 -21 191.5 160.5 Q78 342 131 607 L182 859 Q240 1152 389 1314.5 Q538 1477 752 1477 Q957 1477 1075 1294 Q1193 1111 1141 847 L1091 596 Z M942 849 Q984 1063 921.5 1190 Q859 1317 720 1317 Q603 1317 513 1191.5 Q423 1066 382 861 L331 607 Q288 390 346 263.5 Q404 137 537 137 Q659 137 754 263 Q849 389 891 596 L942 849 Z M1127 1859 Q1111 1763 1054.5 1702 Q998 1641 924 1641 Q870 1641 809.5 1690 Q749 1739 707 1739 Q677 1739 649.5 1705 Q622 1671 615 1623 L510 1651 Q525 1745 582.5 1808 Q640 1871 714 1871 Q757 1871 823 1821.5 Q889 1772 931 1772 Q961 1772 989 1806.5 Q1017 1841 1025 1890 L1127 1859 Z " />
<glyph glyph-name="Odieresis" unicode="&#xd6;" horiz-adv-x="1115" d="M1091 596 Q1032 303 878 141 Q724 -21 506 -21 Q305 -21 191.5 160.5 Q78 342 131 607 L182 859 Q240 1152 389 1314.5 Q538 1477 752 1477 Q957 1477 1075 1294 Q1193 1111 1141 847 L1091 596 Z M942 849 Q984 1063 921.5 1190 Q859 1317 720 1317 Q603 1317 513 1191.5 Q423 1066 382 861 L331 607 Q288 390 346 263.5 Q404 137 537 137 Q659 137 754 263 Q849 389 891 596 L942 849 Z M1106 1638 L904 1638 L934 1823 L1136 1823 L1106 1638 Z M696 1638 L494 1638 L524 1823 L726 1823 L696 1638 Z " />
<glyph glyph-name="Ugrave" unicode="&#xd9;" horiz-adv-x="1115" d="M1209 1456 L1007 447 Q959 206 815 92.5 Q671 -21 466 -21 Q281 -21 177.5 101.5 Q74 224 119 447 L321 1456 L519 1456 L317 447 Q284 281 333.5 207 Q383 133 497 133 Q606 133 690.5 210.5 Q775 288 807 447 L1009 1456 L1209 1456 Z M885 1561 L719 1561 L537 1827 L767 1827 L885 1561 Z " />
<glyph glyph-name="Uacute" unicode="&#xda;" horiz-adv-x="1115" d="M1209 1456 L1007 447 Q959 206 815 92.5 Q671 -21 466 -21 Q281 -21 177.5 101.5 Q74 224 119 447 L321 1456 L519 1456 L317 447 Q284 281 333.5 207 Q383 133 497 133 Q606 133 690.5 210.5 Q775 288 807 447 L1009 1456 L1209 1456 Z M892 1824 L1113 1824 L1115 1818 L846 1558 L687 1558 L892 1824 Z " />
<glyph glyph-name="Ucircumflex" unicode="&#xdb;" horiz-adv-x="1115" d="M1209 1456 L1007 447 Q959 206 815 92.5 Q671 -21 466 -21 Q281 -21 177.5 101.5 Q74 224 119 447 L321 1456 L519 1456 L317 447 Q284 281 333.5 207 Q383 133 497 133 Q606 133 690.5 210.5 Q775 288 807 447 L1009 1456 L1209 1456 Z M1074 1621 L1069 1599 L908 1599 L823 1750 L677 1599 L519 1599 L524 1622 L784 1854 L902 1854 L1074 1621 Z " />
<glyph glyph-name="Udieresis" unicode="&#xdc;" horiz-adv-x="1115" d="M1209 1456 L1007 447 Q959 206 815 92.5 Q671 -21 466 -21 Q281 -21 177.5 101.5 Q74 224 119 447 L321 1456 L519 1456 L317 447 Q284 281 333.5 207 Q383 133 497 133 Q606 133 690.5 210.5 Q775 288 807 447 L1009 1456 L1209 1456 Z M1102 1617 L900 1617 L930 1802 L1132 1802 L1102 1617 Z M692 1617 L490 1617 L520 1802 L722 1802 L692 1617 Z " />
<glyph glyph-name="Yacute" unicode="&#xdd;" horiz-adv-x="1061" d="M594 762 L600 761 L1017 1456 L1240 1456 L646 522 L542 0 L343 0 L451 539 L233 1456 L457 1456 L594 762 Z M867 1820 L1088 1820 L1090 1814 L821 1554 L662 1554 L867 1820 Z " />
<glyph glyph-name="agrave" unicode="&#xe0;" horiz-adv-x="922" d="M552 0 Q550 40 550 74 Q550 108 554 141 Q497 69 424.5 24 Q352 -21 275 -21 Q153 -21 91.5 67 Q30 155 59 297 Q92 462 207.5 545.5 Q323 629 509 629 L649 629 L671 740 Q691 845 662.5 897.5 Q634 950 557 950 Q494 950 441 899.5 Q388 849 374 775 L183 776 L181 782 Q203 915 320.5 1008.5 Q438 1102 600 1102 Q744 1102 825 1006 Q906 910 872 738 L771 236 Q758 170 754 114 Q750 58 755 0 L552 0 Z M352 135 Q413 135 476.5 177 Q540 219 579 281 L623 503 L481 503 Q401 503 339 442 Q277 381 261 298 Q245 220 268 177.5 Q291 135 352 135 Z M718 1239 L552 1239 L370 1505 L600 1505 L718 1239 Z " />
<glyph glyph-name="aacute" unicode="&#xe1;" horiz-adv-x="922" d="M552 0 Q550 40 550 74 Q550 108 554 141 Q497 69 424.5 24 Q352 -21 275 -21 Q153 -21 91.5 67 Q30 155 59 297 Q92 462 207.5 545.5 Q323 629 509 629 L649 629 L671 740 Q691 845 662.5 897.5 Q634 950 557 950 Q494 950 441 899.5 Q388 849 374 775 L183 776 L181 782 Q203 915 320.5 1008.5 Q438 1102 600 1102 Q744 1102 825 1006 Q906 910 872 738 L771 236 Q758 170 754 114 Q750 58 755 0 L552 0 Z M352 135 Q413 135 476.5 177 Q540 219 579 281 L623 503 L481 503 Q401 503 339 442 Q277 381 261 298 Q245 220 268 177.5 Q291 135 352 135 Z M725 1502 L946 1502 L948 1496 L679 1236 L520 1236 L725 1502 Z " />
<glyph glyph-name="acircumflex" unicode="&#xe2;" horiz-adv-x="922" d="M552 0 Q550 40 550 74 Q550 108 554 141 Q497 69 424.5 24 Q352 -21 275 -21 Q153 -21 91.5 67 Q30 155 59 297 Q92 462 207.5 545.5 Q323 629 509 629 L649 629 L671 740 Q691 845 662.5 897.5 Q634 950 557 950 Q494 950 441 899.5 Q388 849 374 775 L183 776 L181 782 Q203 915 320.5 1008.5 Q438 1102 600 1102 Q744 1102 825 1006 Q906 910 872 738 L771 236 Q758 170 754 114 Q750 58 755 0 L552 0 Z M352 135 Q413 135 476.5 177 Q540 219 579 281 L623 503 L481 503 Q401 503 339 442 Q277 381 261 298 Q245 220 268 177.5 Q291 135 352 135 Z M907 1299 L902 1277 L741 1277 L656 1428 L510 1277 L352 1277 L357 1300 L617 1532 L735 1532 L907 1299 Z " />
<glyph glyph-name="atilde" unicode="&#xe3;" horiz-adv-x="922" d="M552 0 Q550 40 550 74 Q550 108 554 141 Q497 69 424.5 24 Q352 -21 275 -21 Q153 -21 91.5 67 Q30 155 59 297 Q92 462 207.5 545.5 Q323 629 509 629 L649 629 L671 740 Q691 845 662.5 897.5 Q634 950 557 950 Q494 950 441 899.5 Q388 849 374 775 L183 776 L181 782 Q203 915 320.5 1008.5 Q438 1102 600 1102 Q744 1102 825 1006 Q906 910 872 738 L771 236 Q758 170 754 114 Q750 58 755 0 L552 0 Z M352 135 Q413 135 476.5 177 Q540 219 579 281 L623 503 L481 503 Q401 503 339 442 Q277 381 261 298 Q245 220 268 177.5 Q291 135 352 135 Z M956 1516 Q940 1420 883.5 1359 Q827 1298 753 1298 Q699 1298 638.5 1347 Q578 1396 536 1396 Q506 1396 478.5 1362 Q451 1328 444 1280 L339 1308 Q354 1402 411.5 1465 Q469 1528 543 1528 Q586 1528 652 1478.5 Q718 1429 760 1429 Q790 1429 818 1463.5 Q846 1498 854 1547 L956 1516 Z " />
<glyph glyph-name="adieresis" unicode="&#xe4;" horiz-adv-x="922" d="M552 0 Q550 40 550 74 Q550 108 554 141 Q497 69 424.5 24 Q352 -21 275 -21 Q153 -21 91.5 67 Q30 155 59 297 Q92 462 207.5 545.5 Q323 629 509 629 L649 629 L671 740 Q691 845 662.5 897.5 Q634 950 557 950 Q494 950 441 899.5 Q388 849 374 775 L183 776 L181 782 Q203 915 320.5 1008.5 Q438 1102 600 1102 Q744 1102 825 1006 Q906 910 872 738 L771 236 Q758 170 754 114 Q750 58 755 0 L552 0 Z M352 135 Q413 135 476.5 177 Q540 219 579 281 L623 503 L481 503 Q401 503 339 442 Q277 381 261 298 Q245 220 268 177.5 Q291 135 352 135 Z M935 1295 L733 1295 L763 1480 L965 1480 L935 1295 Z M525 1295 L323 1295 L353 1480 L555 1480 L525 1295 Z " />
<glyph glyph-name="aring" unicode="&#xe5;" horiz-adv-x="922" d="M552 0 Q550 40 550 74 Q550 108 554 141 Q497 69 424.5 24 Q352 -21 275 -21 Q153 -21 91.5 67 Q30 155 59 297 Q92 462 207.5 545.5 Q323 629 509 629 L649 629 L671 740 Q691 845 662.5 897.5 Q634 950 557 950 Q494 950 441 899.5 Q388 849 374 775 L183 776 L181 782 Q203 915 320.5 1008.5 Q438 1102 600 1102 Q744 1102 825 1006 Q906 910 872 738 L771 236 Q758 170 754 114 Q750 58 755 0 L552 0 Z M352 135 Q413 135 476.5 177 Q540 219 579 281 L623 503 L481 503 Q401 503 339 442 Q277 381 261 298 Q245 220 268 177.5 Q291 135 352 135 Z M478 1412 Q494 1495 554.5 1545.5 Q615 1596 690 1596 Q757 1596 799 1542 Q841 1488 826 1412 Q809 1327 750 1279 Q691 1231 617 1231 Q548 1231 505 1282.5 Q462 1334 478 1412 Z M569 1412 Q560 1368 579 1342 Q598 1316 634 1316 Q667 1316 696 1343 Q725 1370 734 1412 Q743 1458 726 1484.5 Q709 1511 673 1511 Q640 1511 608.5 1482.5 Q577 1454 569 1412 Z " />
<glyph glyph-name="aringacute" unicode="&#x1fb;" horiz-adv-x="922" d="M552 0 Q550 40 550 74 Q550 108 554 141 Q497 69 424.5 24 Q352 -21 275 -21 Q153 -21 91.5 67 Q30 155 59 297 Q92 462 207.5 545.5 Q323 629 509 629 L649 629 L671 740 Q691 845 662.5 897.5 Q634 950 557 950 Q494 950 441 899.5 Q388 849 374 775 L183 776 L181 782 Q203 915 320.5 1008.5 Q438 1102 600 1102 Q744 1102 825 1006 Q906 910 872 738 L771 236 Q758 170 754 114 Q750 58 755 0 L552 0 Z M352 135 Q413 135 476.5 177 Q540 219 579 281 L623 503 L481 503 Q401 503 339 442 Q277 381 261 298 Q245 220 268 177.5 Q291 135 352 135 Z M808 1778 L991 1778 L993 1772 L760 1578 L639 1578 L637 1583 L808 1778 Z M491 1360 Q506 1436 559 1482 Q612 1528 678 1528 Q736 1528 772 1479 Q808 1430 795 1360 Q779 1284 727.5 1240.5 Q676 1197 612 1197 Q551 1197 514 1243.5 Q477 1290 491 1360 Z M572 1360 Q563 1321 579.5 1297.5 Q596 1274 628 1274 Q654 1274 679 1298.5 Q704 1323 712 1360 Q720 1401 706 1425.5 Q692 1450 663 1450 Q633 1450 606 1424 Q579 1398 572 1360 Z " />
<glyph glyph-name="ccedilla" unicode="&#xe7;" horiz-adv-x="889" d="M426 133 Q494 133 553 191.5 Q612 250 628 348 L807 348 L809 342 Q786 183 668.5 81 Q551 -21 402 -21 Q216 -21 131.5 117.5 Q47 256 80 465 L104 614 Q139 833 262.5 967.5 Q386 1102 581 1102 Q733 1102 816 991 Q899 880 871 703 L684 703 Q702 815 667 880.5 Q632 946 556 946 Q452 946 389.5 851 Q327 756 305 614 L281 465 Q257 313 286.5 223 Q316 133 426 133 Z M459 -3 L438 -61 Q488 -71 514 -112 Q540 -153 524 -233 Q503 -337 425 -391 Q347 -445 222 -443 L217 -440 L233 -334 Q278 -334 314 -308.5 Q350 -283 360 -233 Q370 -180 348 -162 Q326 -144 260 -137 L311 -3 L459 -3 Z " />
<glyph glyph-name="egrave" unicode="&#xe8;" horiz-adv-x="899" d="M417 -21 Q239 -21 146 114 Q53 249 87 456 L112 614 Q147 834 275.5 968 Q404 1102 573 1102 Q743 1102 820.5 975 Q898 848 865 639 L843 499 L293 499 L286 456 Q262 310 304 221.5 Q346 133 454 133 Q531 133 594 160 Q657 187 716 237 L759 111 Q701 53 613 16 Q525 -21 417 -21 Z M548 946 Q470 946 406.5 860 Q343 774 316 644 L667 644 L674 685 Q693 804 662.5 875 Q632 946 548 946 Z M683 1240 L517 1240 L335 1506 L565 1506 L683 1240 Z " />
<glyph glyph-name="eacute" unicode="&#xe9;" horiz-adv-x="899" d="M417 -21 Q239 -21 146 114 Q53 249 87 456 L112 614 Q147 834 275.5 968 Q404 1102 573 1102 Q743 1102 820.5 975 Q898 848 865 639 L843 499 L293 499 L286 456 Q262 310 304 221.5 Q346 133 454 133 Q531 133 594 160 Q657 187 716 237 L759 111 Q701 53 613 16 Q525 -21 417 -21 Z M548 946 Q470 946 406.5 860 Q343 774 316 644 L667 644 L674 685 Q693 804 662.5 875 Q632 946 548 946 Z M690 1503 L911 1503 L913 1497 L644 1237 L485 1237 L690 1503 Z " />
<glyph glyph-name="ecircumflex" unicode="&#xea;" horiz-adv-x="899" d="M417 -21 Q239 -21 146 114 Q53 249 87 456 L112 614 Q147 834 275.5 968 Q404 1102 573 1102 Q743 1102 820.5 975 Q898 848 865 639 L843 499 L293 499 L286 456 Q262 310 304 221.5 Q346 133 454 133 Q531 133 594 160 Q657 187 716 237 L759 111 Q701 53 613 16 Q525 -21 417 -21 Z M548 946 Q470 946 406.5 860 Q343 774 316 644 L667 644 L674 685 Q693 804 662.5 875 Q632 946 548 946 Z M872 1300 L867 1278 L706 1278 L621 1429 L475 1278 L317 1278 L322 1301 L582 1533 L700 1533 L872 1300 Z " />
<glyph glyph-name="edieresis" unicode="&#xeb;" horiz-adv-x="899" d="M417 -21 Q239 -21 146 114 Q53 249 87 456 L112 614 Q147 834 275.5 968 Q404 1102 573 1102 Q743 1102 820.5 975 Q898 848 865 639 L843 499 L293 499 L286 456 Q262 310 304 221.5 Q346 133 454 133 Q531 133 594 160 Q657 187 716 237 L759 111 Q701 53 613 16 Q525 -21 417 -21 Z M548 946 Q470 946 406.5 860 Q343 774 316 644 L667 644 L674 685 Q693 804 662.5 875 Q632 946 548 946 Z M900 1296 L698 1296 L728 1481 L930 1481 L900 1296 Z M490 1296 L288 1296 L318 1481 L520 1481 L490 1296 Z " />
<glyph glyph-name="igrave" unicode="&#xec;" horiz-adv-x="462" d="M243 0 L42 0 L258 1082 L459 1082 L243 0 Z M489 1218 L323 1218 L141 1484 L371 1484 L489 1218 Z " />
<glyph glyph-name="iacute" unicode="&#xed;" horiz-adv-x="462" d="M243 0 L42 0 L258 1082 L459 1082 L243 0 Z M494 1481 L715 1481 L717 1475 L448 1215 L289 1215 L494 1481 Z " />
<glyph glyph-name="icircumflex" unicode="&#xee;" horiz-adv-x="462" d="M243 0 L42 0 L258 1082 L459 1082 L243 0 Z M678 1278 L673 1256 L512 1256 L427 1407 L281 1256 L123 1256 L128 1279 L388 1511 L506 1511 L678 1278 Z " />
<glyph glyph-name="idieresis" unicode="&#xef;" horiz-adv-x="462" d="M243 0 L42 0 L258 1082 L459 1082 L243 0 Z M706 1274 L504 1274 L534 1459 L736 1459 L706 1274 Z M296 1274 L94 1274 L124 1459 L326 1459 L296 1274 Z " />
<glyph glyph-name="ntilde" unicode="&#xf1;" horiz-adv-x="960" d="M408 933 Q467 1015 540.5 1058.5 Q614 1102 697 1102 Q824 1102 882 995 Q940 888 897 671 L763 0 L562 0 L696 669 Q727 830 700.5 887 Q674 944 590 944 Q536 944 483.5 904.5 Q431 865 387 797 L228 0 L27 0 L243 1082 L427 1082 L408 933 Z M978 1516 Q962 1420 905.5 1359 Q849 1298 775 1298 Q721 1298 660.5 1347 Q600 1396 558 1396 Q528 1396 500.5 1362 Q473 1328 466 1280 L361 1308 Q376 1402 433.5 1465 Q491 1528 565 1528 Q608 1528 674 1478.5 Q740 1429 782 1429 Q812 1429 840 1463.5 Q868 1498 876 1547 L978 1516 Z " />
<glyph glyph-name="ograve" unicode="&#xf2;" horiz-adv-x="960" d="M105 609 Q140 833 268 967.5 Q396 1102 586 1102 Q765 1102 854 962 Q943 822 909 609 L887 471 Q851 246 723.5 112.5 Q596 -21 408 -21 Q227 -21 137.5 118 Q48 257 83 471 L105 609 Z M283 471 Q258 317 293 225 Q328 133 432 133 Q528 133 595 229 Q662 325 686 471 L708 609 Q732 760 697.5 853 Q663 946 561 946 Q462 946 395 850 Q328 754 305 609 L283 471 Z M706 1239 L540 1239 L358 1505 L588 1505 L706 1239 Z " />
<glyph glyph-name="oacute" unicode="&#xf3;" horiz-adv-x="960" d="M105 609 Q140 833 268 967.5 Q396 1102 586 1102 Q765 1102 854 962 Q943 822 909 609 L887 471 Q851 246 723.5 112.5 Q596 -21 408 -21 Q227 -21 137.5 118 Q48 257 83 471 L105 609 Z M283 471 Q258 317 293 225 Q328 133 432 133 Q528 133 595 229 Q662 325 686 471 L708 609 Q732 760 697.5 853 Q663 946 561 946 Q462 946 395 850 Q328 754 305 609 L283 471 Z M713 1502 L934 1502 L936 1496 L667 1236 L508 1236 L713 1502 Z " />
<glyph glyph-name="ocircumflex" unicode="&#xf4;" horiz-adv-x="960" d="M105 609 Q140 833 268 967.5 Q396 1102 586 1102 Q765 1102 854 962 Q943 822 909 609 L887 471 Q851 246 723.5 112.5 Q596 -21 408 -21 Q227 -21 137.5 118 Q48 257 83 471 L105 609 Z M283 471 Q258 317 293 225 Q328 133 432 133 Q528 133 595 229 Q662 325 686 471 L708 609 Q732 760 697.5 853 Q663 946 561 946 Q462 946 395 850 Q328 754 305 609 L283 471 Z M895 1299 L890 1277 L729 1277 L644 1428 L498 1277 L340 1277 L345 1300 L605 1532 L723 1532 L895 1299 Z " />
<glyph glyph-name="otilde" unicode="&#xf5;" horiz-adv-x="960" d="M105 609 Q140 833 268 967.5 Q396 1102 586 1102 Q765 1102 854 962 Q943 822 909 609 L887 471 Q851 246 723.5 112.5 Q596 -21 408 -21 Q227 -21 137.5 118 Q48 257 83 471 L105 609 Z M283 471 Q258 317 293 225 Q328 133 432 133 Q528 133 595 229 Q662 325 686 471 L708 609 Q732 760 697.5 853 Q663 946 561 946 Q462 946 395 850 Q328 754 305 609 L283 471 Z M944 1516 Q928 1420 871.5 1359 Q815 1298 741 1298 Q687 1298 626.5 1347 Q566 1396 524 1396 Q494 1396 466.5 1362 Q439 1328 432 1280 L327 1308 Q342 1402 399.5 1465 Q457 1528 531 1528 Q574 1528 640 1478.5 Q706 1429 748 1429 Q778 1429 806 1463.5 Q834 1498 842 1547 L944 1516 Z " />
<glyph glyph-name="odieresis" unicode="&#xf6;" horiz-adv-x="960" d="M105 609 Q140 833 268 967.5 Q396 1102 586 1102 Q765 1102 854 962 Q943 822 909 609 L887 471 Q851 246 723.5 112.5 Q596 -21 408 -21 Q227 -21 137.5 118 Q48 257 83 471 L105 609 Z M283 471 Q258 317 293 225 Q328 133 432 133 Q528 133 595 229 Q662 325 686 471 L708 609 Q732 760 697.5 853 Q663 946 561 946 Q462 946 395 850 Q328 754 305 609 L283 471 Z M923 1295 L721 1295 L751 1480 L953 1480 L923 1295 Z M513 1295 L311 1295 L341 1480 L543 1480 L513 1295 Z " />
<glyph glyph-name="ugrave" unicode="&#xf9;" horiz-adv-x="960" d="M584 0 L599 133 Q542 57 471.5 18 Q401 -21 318 -21 Q187 -21 127 94 Q67 209 114 443 L241 1082 L441 1082 L313 441 Q277 263 300 199.5 Q323 136 398 136 Q464 136 519 172.5 Q574 209 617 276 L778 1082 L979 1082 L763 0 L584 0 Z M737 1218 L571 1218 L389 1484 L619 1484 L737 1218 Z " />
<glyph glyph-name="uacute" unicode="&#xfa;" horiz-adv-x="960" d="M584 0 L599 133 Q542 57 471.5 18 Q401 -21 318 -21 Q187 -21 127 94 Q67 209 114 443 L241 1082 L441 1082 L313 441 Q277 263 300 199.5 Q323 136 398 136 Q464 136 519 172.5 Q574 209 617 276 L778 1082 L979 1082 L763 0 L584 0 Z M744 1481 L965 1481 L967 1475 L698 1215 L539 1215 L744 1481 Z " />
<glyph glyph-name="ucircumflex" unicode="&#xfb;" horiz-adv-x="960" d="M584 0 L599 133 Q542 57 471.5 18 Q401 -21 318 -21 Q187 -21 127 94 Q67 209 114 443 L241 1082 L441 1082 L313 441 Q277 263 300 199.5 Q323 136 398 136 Q464 136 519 172.5 Q574 209 617 276 L778 1082 L979 1082 L763 0 L584 0 Z M926 1278 L921 1256 L760 1256 L675 1407 L529 1256 L371 1256 L376 1279 L636 1511 L754 1511 L926 1278 Z " />
<glyph glyph-name="udieresis" unicode="&#xfc;" horiz-adv-x="960" d="M584 0 L599 133 Q542 57 471.5 18 Q401 -21 318 -21 Q187 -21 127 94 Q67 209 114 443 L241 1082 L441 1082 L313 441 Q277 263 300 199.5 Q323 136 398 136 Q464 136 519 172.5 Q574 209 617 276 L778 1082 L979 1082 L763 0 L584 0 Z M954 1274 L752 1274 L782 1459 L984 1459 L954 1274 Z M544 1274 L342 1274 L372 1459 L574 1459 L544 1274 Z " />
<glyph glyph-name="yacute" unicode="&#xfd;" horiz-adv-x="863" d="M397 373 L398 313 L404 312 L750 1082 L968 1082 L358 -168 Q301 -279 222.5 -358 Q144 -437 27 -437 Q4 -437 -23.5 -431.5 Q-51 -426 -77 -419 L-25 -269 Q-14 -271 3.5 -273 Q21 -275 31 -275 Q82 -275 127.5 -222.5 Q173 -170 203 -105 L258 3 L156 1082 L374 1082 L397 373 Z M695 1481 L916 1481 L918 1475 L649 1215 L490 1215 L695 1481 Z " />
<glyph glyph-name="ydieresis" unicode="&#xff;" horiz-adv-x="863" d="M397 373 L398 313 L404 312 L750 1082 L968 1082 L358 -168 Q301 -279 222.5 -358 Q144 -437 27 -437 Q4 -437 -23.5 -431.5 Q-51 -426 -77 -419 L-25 -269 Q-14 -271 3.5 -273 Q21 -275 31 -275 Q82 -275 127.5 -222.5 Q173 -170 203 -105 L258 3 L156 1082 L374 1082 L397 373 Z M905 1274 L703 1274 L733 1459 L935 1459 L905 1274 Z M495 1274 L293 1274 L323 1459 L525 1459 L495 1274 Z " />
<glyph glyph-name="Amacron" unicode="&#x100;" horiz-adv-x="1098" d="M757 368 L323 368 L149 0 L-54 0 L663 1456 L856 1456 L987 0 L784 0 L757 368 Z M400 529 L745 529 L701 1149 L695 1150 L400 529 Z M1121 1652 L511 1652 L532 1784 L1142 1784 L1121 1652 Z " />
<glyph glyph-name="amacron" unicode="&#x101;" horiz-adv-x="922" d="M552 0 Q550 40 550 74 Q550 108 554 141 Q497 69 424.5 24 Q352 -21 275 -21 Q153 -21 91.5 67 Q30 155 59 297 Q92 462 207.5 545.5 Q323 629 509 629 L649 629 L671 740 Q691 845 662.5 897.5 Q634 950 557 950 Q494 950 441 899.5 Q388 849 374 775 L183 776 L181 782 Q203 915 320.5 1008.5 Q438 1102 600 1102 Q744 1102 825 1006 Q906 910 872 738 L771 236 Q758 170 754 114 Q750 58 755 0 L552 0 Z M352 135 Q413 135 476.5 177 Q540 219 579 281 L623 503 L481 503 Q401 503 339 442 Q277 381 261 298 Q245 220 268 177.5 Q291 135 352 135 Z M943 1330 L333 1330 L354 1462 L964 1462 L943 1330 Z " />
<glyph glyph-name="Abreve" unicode="&#x102;" horiz-adv-x="1098" d="M757 368 L323 368 L149 0 L-54 0 L663 1456 L856 1456 L987 0 L784 0 L757 368 Z M400 529 L745 529 L701 1149 L695 1150 L400 529 Z M1114 1872 L1116 1866 Q1101 1744 1016 1672 Q931 1600 805 1600 Q683 1600 619.5 1675 Q556 1750 580 1867 L582 1872 L732 1872 Q721 1803 742.5 1762.5 Q764 1722 825 1722 Q881 1722 916.5 1764.5 Q952 1807 963 1872 L1114 1872 Z " />
<glyph glyph-name="abreve" unicode="&#x103;" horiz-adv-x="922" d="M552 0 Q550 40 550 74 Q550 108 554 141 Q497 69 424.5 24 Q352 -21 275 -21 Q153 -21 91.5 67 Q30 155 59 297 Q92 462 207.5 545.5 Q323 629 509 629 L649 629 L671 740 Q691 845 662.5 897.5 Q634 950 557 950 Q494 950 441 899.5 Q388 849 374 775 L183 776 L181 782 Q203 915 320.5 1008.5 Q438 1102 600 1102 Q744 1102 825 1006 Q906 910 872 738 L771 236 Q758 170 754 114 Q750 58 755 0 L552 0 Z M352 135 Q413 135 476.5 177 Q540 219 579 281 L623 503 L481 503 Q401 503 339 442 Q277 381 261 298 Q245 220 268 177.5 Q291 135 352 135 Z M936 1550 L938 1544 Q923 1422 838 1350 Q753 1278 627 1278 Q505 1278 441.5 1353 Q378 1428 402 1545 L404 1550 L554 1550 Q543 1481 564.5 1440.5 Q586 1400 647 1400 Q703 1400 738.5 1442.5 Q774 1485 785 1550 L936 1550 Z " />
<glyph glyph-name="Aogonek" unicode="&#x104;" horiz-adv-x="1098" d="M757 368 L323 368 L149 0 L-54 0 L663 1456 L856 1456 L987 0 L784 0 L757 368 Z M400 529 L745 529 L701 1149 L695 1150 L400 529 Z M941 0 Q881 -55 847 -99 Q813 -143 803 -197 Q795 -231 806 -255 Q817 -279 858 -279 Q879 -279 900.5 -271 Q922 -263 942 -252 L946 -369 Q913 -388 875 -400.5 Q837 -413 788 -413 Q711 -413 667 -361 Q623 -309 640 -218 Q657 -137 712 -70.5 Q767 -4 868 49 L941 0 Z " />
<glyph glyph-name="aogonek" unicode="&#x105;" horiz-adv-x="922" d="M552 0 Q550 40 550 74 Q550 108 554 141 Q497 69 424.5 24 Q352 -21 275 -21 Q153 -21 91.5 67 Q30 155 59 297 Q92 462 207.5 545.5 Q323 629 509 629 L649 629 L671 740 Q691 845 662.5 897.5 Q634 950 557 950 Q494 950 441 899.5 Q388 849 374 775 L183 776 L181 782 Q203 915 320.5 1008.5 Q438 1102 600 1102 Q744 1102 825 1006 Q906 910 872 738 L771 236 Q758 170 754 114 Q750 58 755 0 L552 0 Z M352 135 Q413 135 476.5 177 Q540 219 579 281 L623 503 L481 503 Q401 503 339 442 Q277 381 261 298 Q245 220 268 177.5 Q291 135 352 135 Z M709 0 Q649 -55 615 -99 Q581 -143 571 -197 Q563 -231 574 -255 Q585 -279 626 -279 Q647 -279 668.5 -271 Q690 -263 710 -252 L714 -369 Q681 -388 643 -400.5 Q605 -413 556 -413 Q479 -413 435 -361 Q391 -309 408 -218 Q425 -137 480 -70.5 Q535 -4 636 49 L709 0 Z " />
<glyph glyph-name="Cacute" unicode="&#x106;" horiz-adv-x="1041" d="M1004 459 L1006 453 Q948 226 824 102.5 Q700 -21 501 -21 Q305 -21 191.5 159 Q78 339 132 603 L184 863 Q242 1156 385 1316.5 Q528 1477 732 1477 Q928 1477 1036 1341.5 Q1144 1206 1116 978 L917 978 Q935 1142 885.5 1231.5 Q836 1321 712 1321 Q604 1321 514.5 1193 Q425 1065 385 865 L333 603 Q289 388 340.5 260.5 Q392 133 518 133 Q627 133 695.5 212 Q764 291 812 459 L1004 459 Z M878 1845 L1099 1845 L1101 1839 L832 1579 L673 1579 L878 1845 Z " />
<glyph glyph-name="cacute" unicode="&#x107;" horiz-adv-x="889" d="M426 133 Q494 133 553 191.5 Q612 250 628 348 L807 348 L809 342 Q786 183 668.5 81 Q551 -21 402 -21 Q216 -21 131.5 117.5 Q47 256 80 465 L104 614 Q139 833 262.5 967.5 Q386 1102 581 1102 Q733 1102 816 991 Q899 880 871 703 L684 703 Q702 815 667 880.5 Q632 946 556 946 Q452 946 389.5 851 Q327 756 305 614 L281 465 Q257 313 286.5 223 Q316 133 426 133 Z M675 1502 L896 1502 L898 1496 L629 1236 L470 1236 L675 1502 Z " />
<glyph glyph-name="Ccircumflex" unicode="&#x108;" horiz-adv-x="1041" d="M1004 459 L1006 453 Q948 226 824 102.5 Q700 -21 501 -21 Q305 -21 191.5 159 Q78 339 132 603 L184 863 Q242 1156 385 1316.5 Q528 1477 732 1477 Q928 1477 1036 1341.5 Q1144 1206 1116 978 L917 978 Q935 1142 885.5 1231.5 Q836 1321 712 1321 Q604 1321 514.5 1193 Q425 1065 385 865 L333 603 Q289 388 340.5 260.5 Q392 133 518 133 Q627 133 695.5 212 Q764 291 812 459 L1004 459 Z M1060 1642 L1055 1620 L894 1620 L809 1771 L663 1620 L505 1620 L510 1643 L770 1875 L888 1875 L1060 1642 Z " />
<glyph glyph-name="ccircumflex" unicode="&#x109;" horiz-adv-x="889" d="M426 133 Q494 133 553 191.5 Q612 250 628 348 L807 348 L809 342 Q786 183 668.5 81 Q551 -21 402 -21 Q216 -21 131.5 117.5 Q47 256 80 465 L104 614 Q139 833 262.5 967.5 Q386 1102 581 1102 Q733 1102 816 991 Q899 880 871 703 L684 703 Q702 815 667 880.5 Q632 946 556 946 Q452 946 389.5 851 Q327 756 305 614 L281 465 Q257 313 286.5 223 Q316 133 426 133 Z M857 1299 L852 1277 L691 1277 L606 1428 L460 1277 L302 1277 L307 1300 L567 1532 L685 1532 L857 1299 Z " />
<glyph glyph-name="uni010A" unicode="&#x10a;" horiz-adv-x="1041" d="M1004 459 L1006 453 Q948 226 824 102.5 Q700 -21 501 -21 Q305 -21 191.5 159 Q78 339 132 603 L184 863 Q242 1156 385 1316.5 Q528 1477 732 1477 Q928 1477 1036 1341.5 Q1144 1206 1116 978 L917 978 Q935 1142 885.5 1231.5 Q836 1321 712 1321 Q604 1321 514.5 1193 Q425 1065 385 865 L333 603 Q289 388 340.5 260.5 Q392 133 518 133 Q627 133 695.5 212 Q764 291 812 459 L1004 459 Z M887 1637 L674 1637 L714 1837 L927 1837 L887 1637 Z " />
<glyph glyph-name="uni010B" unicode="&#x10b;" horiz-adv-x="889" d="M426 133 Q494 133 553 191.5 Q612 250 628 348 L807 348 L809 342 Q786 183 668.5 81 Q551 -21 402 -21 Q216 -21 131.5 117.5 Q47 256 80 465 L104 614 Q139 833 262.5 967.5 Q386 1102 581 1102 Q733 1102 816 991 Q899 880 871 703 L684 703 Q702 815 667 880.5 Q632 946 556 946 Q452 946 389.5 851 Q327 756 305 614 L281 465 Q257 313 286.5 223 Q316 133 426 133 Z M684 1294 L471 1294 L511 1494 L724 1494 L684 1294 Z " />
<glyph glyph-name="Ccaron" unicode="&#x10c;" horiz-adv-x="1041" d="M1004 459 L1006 453 Q948 226 824 102.5 Q700 -21 501 -21 Q305 -21 191.5 159 Q78 339 132 603 L184 863 Q242 1156 385 1316.5 Q528 1477 732 1477 Q928 1477 1036 1341.5 Q1144 1206 1116 978 L917 978 Q935 1142 885.5 1231.5 Q836 1321 712 1321 Q604 1321 514.5 1193 Q425 1065 385 865 L333 603 Q289 388 340.5 260.5 Q392 133 518 133 Q627 133 695.5 212 Q764 291 812 459 L1004 459 Z M801 1730 L935 1880 L1114 1880 L1110 1863 L844 1623 L713 1623 L545 1862 L549 1880 L725 1880 L801 1730 Z " />
<glyph glyph-name="ccaron" unicode="&#x10d;" horiz-adv-x="889" d="M426 133 Q494 133 553 191.5 Q612 250 628 348 L807 348 L809 342 Q786 183 668.5 81 Q551 -21 402 -21 Q216 -21 131.5 117.5 Q47 256 80 465 L104 614 Q139 833 262.5 967.5 Q386 1102 581 1102 Q733 1102 816 991 Q899 880 871 703 L684 703 Q702 815 667 880.5 Q632 946 556 946 Q452 946 389.5 851 Q327 756 305 614 L281 465 Q257 313 286.5 223 Q316 133 426 133 Z M598 1387 L732 1537 L911 1537 L907 1520 L641 1280 L510 1280 L342 1519 L346 1537 L522 1537 L598 1387 Z " />
<glyph glyph-name="Dcaron" unicode="&#x10e;" horiz-adv-x="1110" d="M53 0 L344 1456 L695 1456 Q906 1456 1031 1273 Q1156 1090 1103 823 L1061 616 Q1002 319 847 159.5 Q692 0 469 0 L53 0 Z M514 1300 L285 154 L494 154 Q624 154 721.5 280.5 Q819 407 861 616 L903 826 Q945 1040 876 1170 Q807 1300 658 1300 L514 1300 Z M757 1709 L891 1859 L1070 1859 L1066 1842 L800 1602 L669 1602 L501 1841 L505 1859 L681 1859 L757 1709 Z " />
<glyph glyph-name="dcaron" unicode="&#x10f;" horiz-adv-x="1110" d="M103 548 Q158 825 266 963.5 Q374 1102 539 1102 Q606 1102 661 1069.5 Q716 1037 752 977 L869 1560 L1069 1560 L757 0 L582 0 L590 96 Q538 38 476 8.5 Q414 -21 344 -21 Q194 -21 122.5 136 Q51 293 98 527 L103 548 Z M299 527 Q262 346 291 241 Q320 136 420 136 Q475 136 524 175 Q573 214 613 282 L719 812 Q702 873 663.5 908.5 Q625 944 565 944 Q473 944 406.5 836.5 Q340 729 304 548 L299 527 Z M1292 1420 L1145 1196 L1056 1196 L1151 1427 L1178 1559 L1320 1559 L1292 1420 Z " />
<glyph glyph-name="Emacron" unicode="&#x112;" horiz-adv-x="981" d="M900 676 L389 676 L285 154 L878 154 L847 0 L53 0 L344 1456 L1132 1456 L1101 1300 L514 1300 L420 831 L931 831 L900 676 Z M1060 1652 L450 1652 L471 1784 L1081 1784 L1060 1652 Z " />
<glyph glyph-name="emacron" unicode="&#x113;" horiz-adv-x="899" d="M417 -21 Q239 -21 146 114 Q53 249 87 456 L112 614 Q147 834 275.5 968 Q404 1102 573 1102 Q743 1102 820.5 975 Q898 848 865 639 L843 499 L293 499 L286 456 Q262 310 304 221.5 Q346 133 454 133 Q531 133 594 160 Q657 187 716 237 L759 111 Q701 53 613 16 Q525 -21 417 -21 Z M548 946 Q470 946 406.5 860 Q343 774 316 644 L667 644 L674 685 Q693 804 662.5 875 Q632 946 548 946 Z M908 1331 L298 1331 L319 1463 L929 1463 L908 1331 Z " />
<glyph glyph-name="Ebreve" unicode="&#x114;" horiz-adv-x="981" d="M900 676 L389 676 L285 154 L878 154 L847 0 L53 0 L344 1456 L1132 1456 L1101 1300 L514 1300 L420 831 L931 831 L900 676 Z M1053 1872 L1055 1866 Q1040 1744 955 1672 Q870 1600 744 1600 Q622 1600 558.5 1675 Q495 1750 519 1867 L521 1872 L671 1872 Q660 1803 681.5 1762.5 Q703 1722 764 1722 Q820 1722 855.5 1764.5 Q891 1807 902 1872 L1053 1872 Z " />
<glyph glyph-name="ebreve" unicode="&#x115;" horiz-adv-x="899" d="M417 -21 Q239 -21 146 114 Q53 249 87 456 L112 614 Q147 834 275.5 968 Q404 1102 573 1102 Q743 1102 820.5 975 Q898 848 865 639 L843 499 L293 499 L286 456 Q262 310 304 221.5 Q346 133 454 133 Q531 133 594 160 Q657 187 716 237 L759 111 Q701 53 613 16 Q525 -21 417 -21 Z M548 946 Q470 946 406.5 860 Q343 774 316 644 L667 644 L674 685 Q693 804 662.5 875 Q632 946 548 946 Z M901 1551 L903 1545 Q888 1423 803 1351 Q718 1279 592 1279 Q470 1279 406.5 1354 Q343 1429 367 1546 L369 1551 L519 1551 Q508 1482 529.5 1441.5 Q551 1401 612 1401 Q668 1401 703.5 1443.5 Q739 1486 750 1551 L901 1551 Z " />
<glyph glyph-name="Edotaccent" unicode="&#x116;" horiz-adv-x="981" d="M900 676 L389 676 L285 154 L878 154 L847 0 L53 0 L344 1456 L1132 1456 L1101 1300 L514 1300 L420 831 L931 831 L900 676 Z M851 1616 L638 1616 L678 1816 L891 1816 L851 1616 Z " />
<glyph glyph-name="edotaccent" unicode="&#x117;" horiz-adv-x="899" d="M417 -21 Q239 -21 146 114 Q53 249 87 456 L112 614 Q147 834 275.5 968 Q404 1102 573 1102 Q743 1102 820.5 975 Q898 848 865 639 L843 499 L293 499 L286 456 Q262 310 304 221.5 Q346 133 454 133 Q531 133 594 160 Q657 187 716 237 L759 111 Q701 53 613 16 Q525 -21 417 -21 Z M548 946 Q470 946 406.5 860 Q343 774 316 644 L667 644 L674 685 Q693 804 662.5 875 Q632 946 548 946 Z M699 1295 L486 1295 L526 1495 L739 1495 L699 1295 Z " />
<glyph glyph-name="Eogonek" unicode="&#x118;" horiz-adv-x="981" d="M900 676 L389 676 L285 154 L878 154 L847 0 L53 0 L344 1456 L1132 1456 L1101 1300 L514 1300 L420 831 L931 831 L900 676 Z M651 0 Q591 -55 557 -99 Q523 -143 513 -197 Q505 -231 516 -255 Q527 -279 568 -279 Q589 -279 610.5 -271 Q632 -263 652 -252 L656 -369 Q623 -388 585 -400.5 Q547 -413 498 -413 Q421 -413 377 -361 Q333 -309 350 -218 Q367 -137 422 -70.5 Q477 -4 578 49 L651 0 Z " />
<glyph glyph-name="eogonek" unicode="&#x119;" horiz-adv-x="899" d="M417 -21 Q239 -21 146 114 Q53 249 87 456 L112 614 Q147 834 275.5 968 Q404 1102 573 1102 Q743 1102 820.5 975 Q898 848 865 639 L843 499 L293 499 L286 456 Q262 310 304 221.5 Q346 133 454 133 Q531 133 594 160 Q657 187 716 237 L759 111 Q701 53 613 16 Q525 -21 417 -21 Z M548 946 Q470 946 406.5 860 Q343 774 316 644 L667 644 L674 685 Q693 804 662.5 875 Q632 946 548 946 Z M660 55 Q600 0 566 -44 Q532 -88 522 -142 Q514 -176 525 -200 Q536 -224 577 -224 Q598 -224 619.5 -216 Q641 -208 661 -197 L665 -314 Q632 -333 594 -345.5 Q556 -358 507 -358 Q430 -358 386 -306 Q342 -254 359 -163 Q376 -82 431 -15.5 Q486 51 587 104 L660 55 Z " />
<glyph glyph-name="Ecaron" unicode="&#x11a;" horiz-adv-x="981" d="M900 676 L389 676 L285 154 L878 154 L847 0 L53 0 L344 1456 L1132 1456 L1101 1300 L514 1300 L420 831 L931 831 L900 676 Z M765 1709 L899 1859 L1078 1859 L1074 1842 L808 1602 L677 1602 L509 1841 L513 1859 L689 1859 L765 1709 Z " />
<glyph glyph-name="ecaron" unicode="&#x11b;" horiz-adv-x="899" d="M417 -21 Q239 -21 146 114 Q53 249 87 456 L112 614 Q147 834 275.5 968 Q404 1102 573 1102 Q743 1102 820.5 975 Q898 848 865 639 L843 499 L293 499 L286 456 Q262 310 304 221.5 Q346 133 454 133 Q531 133 594 160 Q657 187 716 237 L759 111 Q701 53 613 16 Q525 -21 417 -21 Z M548 946 Q470 946 406.5 860 Q343 774 316 644 L667 644 L674 685 Q693 804 662.5 875 Q632 946 548 946 Z M613 1388 L747 1538 L926 1538 L922 1521 L656 1281 L525 1281 L357 1520 L361 1538 L537 1538 L613 1388 Z " />
<glyph glyph-name="Gcircumflex" unicode="&#x11c;" horiz-adv-x="1152" d="M973 207 Q908 120 786.5 49.5 Q665 -21 498 -21 Q293 -21 180 120.5 Q67 262 118 514 L204 946 Q257 1216 408 1346.5 Q559 1477 775 1477 Q974 1477 1071 1362 Q1168 1247 1136 1048 L1134 1043 L943 1043 Q965 1179 917.5 1250 Q870 1321 747 1321 Q630 1321 535 1224 Q440 1127 405 948 L318 514 Q278 315 335 224 Q392 133 529 133 Q619 133 683 169.5 Q747 206 783 259 L849 590 L618 590 L647 737 L1079 737 L973 207 Z M1075 1642 L1070 1620 L909 1620 L824 1771 L678 1620 L520 1620 L525 1643 L785 1875 L903 1875 L1075 1642 Z " />
<glyph glyph-name="gcircumflex" unicode="&#x11d;" horiz-adv-x="959" d="M103 548 Q157 824 266.5 963 Q376 1102 542 1102 Q616 1102 674 1065 Q732 1028 766 960 L804 1082 L977 1082 L765 19 Q719 -205 591.5 -321 Q464 -437 271 -437 Q210 -437 137.5 -415.5 Q65 -394 15 -359 L88 -207 Q130 -238 184.5 -255.5 Q239 -273 301 -273 Q398 -273 467 -194.5 Q536 -116 564 20 L575 75 Q526 27 469 3 Q412 -21 348 -21 Q197 -21 124 136.5 Q51 294 98 527 L103 548 Z M299 527 Q263 347 292.5 241.5 Q322 136 423 136 Q480 136 528.5 173.5 Q577 211 616 279 L723 815 Q706 875 667.5 909.5 Q629 944 568 944 Q476 944 408 836 Q340 728 304 548 L299 527 Z M915 1299 L910 1277 L749 1277 L664 1428 L518 1277 L360 1277 L365 1300 L625 1532 L743 1532 L915 1299 Z " />
<glyph glyph-name="Gbreve" unicode="&#x11e;" horiz-adv-x="1152" d="M973 207 Q908 120 786.5 49.5 Q665 -21 498 -21 Q293 -21 180 120.5 Q67 262 118 514 L204 946 Q257 1216 408 1346.5 Q559 1477 775 1477 Q974 1477 1071 1362 Q1168 1247 1136 1048 L1134 1043 L943 1043 Q965 1179 917.5 1250 Q870 1321 747 1321 Q630 1321 535 1224 Q440 1127 405 948 L318 514 Q278 315 335 224 Q392 133 529 133 Q619 133 683 169.5 Q747 206 783 259 L849 590 L618 590 L647 737 L1079 737 L973 207 Z M1104 1893 L1106 1887 Q1091 1765 1006 1693 Q921 1621 795 1621 Q673 1621 609.5 1696 Q546 1771 570 1888 L572 1893 L722 1893 Q711 1824 732.5 1783.5 Q754 1743 815 1743 Q871 1743 906.5 1785.5 Q942 1828 953 1893 L1104 1893 Z " />
<glyph glyph-name="gbreve" unicode="&#x11f;" horiz-adv-x="959" d="M103 548 Q157 824 266.5 963 Q376 1102 542 1102 Q616 1102 674 1065 Q732 1028 766 960 L804 1082 L977 1082 L765 19 Q719 -205 591.5 -321 Q464 -437 271 -437 Q210 -437 137.5 -415.5 Q65 -394 15 -359 L88 -207 Q130 -238 184.5 -255.5 Q239 -273 301 -273 Q398 -273 467 -194.5 Q536 -116 564 20 L575 75 Q526 27 469 3 Q412 -21 348 -21 Q197 -21 124 136.5 Q51 294 98 527 L103 548 Z M299 527 Q263 347 292.5 241.5 Q322 136 423 136 Q480 136 528.5 173.5 Q577 211 616 279 L723 815 Q706 875 667.5 909.5 Q629 944 568 944 Q476 944 408 836 Q340 728 304 548 L299 527 Z M944 1550 L946 1544 Q931 1422 846 1350 Q761 1278 635 1278 Q513 1278 449.5 1353 Q386 1428 410 1545 L412 1550 L562 1550 Q551 1481 572.5 1440.5 Q594 1400 655 1400 Q711 1400 746.5 1442.5 Q782 1485 793 1550 L944 1550 Z " />
<glyph glyph-name="uni0120" unicode="&#x120;" horiz-adv-x="1152" d="M973 207 Q908 120 786.5 49.5 Q665 -21 498 -21 Q293 -21 180 120.5 Q67 262 118 514 L204 946 Q257 1216 408 1346.5 Q559 1477 775 1477 Q974 1477 1071 1362 Q1168 1247 1136 1048 L1134 1043 L943 1043 Q965 1179 917.5 1250 Q870 1321 747 1321 Q630 1321 535 1224 Q440 1127 405 948 L318 514 Q278 315 335 224 Q392 133 529 133 Q619 133 683 169.5 Q747 206 783 259 L849 590 L618 590 L647 737 L1079 737 L973 207 Z M902 1637 L689 1637 L729 1837 L942 1837 L902 1637 Z " />
<glyph glyph-name="uni0121" unicode="&#x121;" horiz-adv-x="959" d="M103 548 Q157 824 266.5 963 Q376 1102 542 1102 Q616 1102 674 1065 Q732 1028 766 960 L804 1082 L977 1082 L765 19 Q719 -205 591.5 -321 Q464 -437 271 -437 Q210 -437 137.5 -415.5 Q65 -394 15 -359 L88 -207 Q130 -238 184.5 -255.5 Q239 -273 301 -273 Q398 -273 467 -194.5 Q536 -116 564 20 L575 75 Q526 27 469 3 Q412 -21 348 -21 Q197 -21 124 136.5 Q51 294 98 527 L103 548 Z M299 527 Q263 347 292.5 241.5 Q322 136 423 136 Q480 136 528.5 173.5 Q577 211 616 279 L723 815 Q706 875 667.5 909.5 Q629 944 568 944 Q476 944 408 836 Q340 728 304 548 L299 527 Z M742 1294 L529 1294 L569 1494 L782 1494 L742 1294 Z " />
<glyph glyph-name="Gcommaaccent" unicode="&#x122;" horiz-adv-x="1152" d="M973 207 Q908 120 786.5 49.5 Q665 -21 498 -21 Q293 -21 180 120.5 Q67 262 118 514 L204 946 Q257 1216 408 1346.5 Q559 1477 775 1477 Q974 1477 1071 1362 Q1168 1247 1136 1048 L1134 1043 L943 1043 Q965 1179 917.5 1250 Q870 1321 747 1321 Q630 1321 535 1224 Q440 1127 405 948 L318 514 Q278 315 335 224 Q392 133 529 133 Q619 133 683 169.5 Q747 206 783 259 L849 590 L618 590 L647 737 L1079 737 L973 207 Z M488 -248 L341 -472 L252 -472 L347 -241 L374 -109 L516 -109 L488 -248 Z " />
<glyph glyph-name="gcommaaccent" unicode="&#x123;" horiz-adv-x="959" d="M103 548 Q157 824 266.5 963 Q376 1102 542 1102 Q616 1102 674 1065 Q732 1028 766 960 L804 1082 L977 1082 L765 19 Q719 -205 591.5 -321 Q464 -437 271 -437 Q210 -437 137.5 -415.5 Q65 -394 15 -359 L88 -207 Q130 -238 184.5 -255.5 Q239 -273 301 -273 Q398 -273 467 -194.5 Q536 -116 564 20 L575 75 Q526 27 469 3 Q412 -21 348 -21 Q197 -21 124 136.5 Q51 294 98 527 L103 548 Z M299 527 Q263 347 292.5 241.5 Q322 136 423 136 Q480 136 528.5 173.5 Q577 211 616 279 L723 815 Q706 875 667.5 909.5 Q629 944 568 944 Q476 944 408 836 Q340 728 304 548 L299 527 Z M568 1411 L710 1649 L815 1649 L744 1405 L714 1259 L537 1259 L568 1411 Z " />
<glyph glyph-name="Hcircumflex" unicode="&#x124;" horiz-adv-x="1198" d="M974 0 L775 0 L903 642 L382 642 L254 0 L53 0 L344 1456 L545 1456 L413 797 L934 797 L1066 1456 L1265 1456 L974 0 Z M1110 1621 L1105 1599 L944 1599 L859 1750 L713 1599 L555 1599 L560 1622 L820 1854 L938 1854 L1110 1621 Z " />
<glyph glyph-name="hcircumflex" unicode="&#x125;" horiz-adv-x="960" d="M418 958 L423 954 Q475 1025 544 1063.5 Q613 1102 690 1102 Q820 1102 880 992.5 Q940 883 896 662 L764 0 L563 0 L696 664 Q728 824 700.5 884 Q673 944 591 944 Q537 944 484 907 Q431 870 388 807 L227 0 L26 0 L338 1560 L539 1560 L418 958 Z M942 1620 L937 1598 L776 1598 L691 1749 L545 1598 L387 1598 L392 1621 L652 1853 L770 1853 L942 1620 Z " />
<glyph glyph-name="Itilde" unicode="&#x128;" horiz-adv-x="502" d="M265 0 L65 0 L356 1456 L556 1456 L265 0 Z M817 1838 Q801 1742 744.5 1681 Q688 1620 614 1620 Q560 1620 499.5 1669 Q439 1718 397 1718 Q367 1718 339.5 1684 Q312 1650 305 1602 L200 1630 Q215 1724 272.5 1787 Q330 1850 404 1850 Q447 1850 513 1800.5 Q579 1751 621 1751 Q651 1751 679 1785.5 Q707 1820 715 1869 L817 1838 Z " />
<glyph glyph-name="itilde" unicode="&#x129;" horiz-adv-x="462" d="M243 0 L42 0 L258 1082 L459 1082 L243 0 Z M727 1495 Q711 1399 654.5 1338 Q598 1277 524 1277 Q470 1277 409.5 1326 Q349 1375 307 1375 Q277 1375 249.5 1341 Q222 1307 215 1259 L110 1287 Q125 1381 182.5 1444 Q240 1507 314 1507 Q357 1507 423 1457.5 Q489 1408 531 1408 Q561 1408 589 1442.5 Q617 1477 625 1526 L727 1495 Z " />
<glyph glyph-name="Imacron" unicode="&#x12a;" horiz-adv-x="502" d="M265 0 L65 0 L356 1456 L556 1456 L265 0 Z M804 1652 L194 1652 L215 1784 L825 1784 L804 1652 Z " />
<glyph glyph-name="imacron" unicode="&#x12b;" horiz-adv-x="462" d="M243 0 L42 0 L258 1082 L459 1082 L243 0 Z M714 1311 L104 1311 L125 1443 L735 1443 L714 1311 Z " />
<glyph glyph-name="Ibreve" unicode="&#x12c;" horiz-adv-x="502" d="M265 0 L65 0 L356 1456 L556 1456 L265 0 Z M797 1872 L799 1866 Q784 1744 699 1672 Q614 1600 488 1600 Q366 1600 302.5 1675 Q239 1750 263 1867 L265 1872 L415 1872 Q404 1803 425.5 1762.5 Q447 1722 508 1722 Q564 1722 599.5 1764.5 Q635 1807 646 1872 L797 1872 Z " />
<glyph glyph-name="ibreve" unicode="&#x12d;" horiz-adv-x="462" d="M243 0 L42 0 L258 1082 L459 1082 L243 0 Z M707 1529 L709 1523 Q694 1401 609 1329 Q524 1257 398 1257 Q276 1257 212.5 1332 Q149 1407 173 1524 L175 1529 L325 1529 Q314 1460 335.5 1419.5 Q357 1379 418 1379 Q474 1379 509.5 1421.5 Q545 1464 556 1529 L707 1529 Z " />
<glyph glyph-name="Iogonek" unicode="&#x12e;" horiz-adv-x="502" d="M265 0 L65 0 L356 1456 L556 1456 L265 0 Z M221 0 Q161 -55 127 -99 Q93 -143 83 -197 Q75 -231 86 -255 Q97 -279 138 -279 Q159 -279 180.5 -271 Q202 -263 222 -252 L226 -369 Q193 -388 155 -400.5 Q117 -413 68 -413 Q-9 -413 -53 -361 Q-97 -309 -80 -218 Q-63 -137 -8 -70.5 Q47 -4 148 49 L221 0 Z " />
<glyph glyph-name="iogonek" unicode="&#x12f;" horiz-adv-x="455" d="M242 0 L42 0 L258 1082 L458 1082 L242 0 Z M515 1366 L315 1366 L354 1560 L554 1560 L515 1366 Z M197 0 Q137 -55 103 -99 Q69 -143 59 -197 Q51 -231 62 -255 Q73 -279 114 -279 Q135 -279 156.5 -271 Q178 -263 198 -252 L202 -369 Q169 -388 131 -400.5 Q93 -413 44 -413 Q-33 -413 -77 -361 Q-121 -309 -104 -218 Q-87 -137 -32 -70.5 Q23 -4 124 49 L197 0 Z " />
<glyph glyph-name="Idotaccent" unicode="&#x130;" horiz-adv-x="502" d="M265 0 L65 0 L356 1456 L556 1456 L265 0 Z M593 1616 L380 1616 L420 1816 L633 1816 L593 1616 Z " />
<glyph glyph-name="IJ" unicode="&#x132;" horiz-adv-x="1456" d="M265 0 L65 0 L356 1456 L556 1456 L265 0 Z M1329 1456 L1529 1456 L1321 417 Q1278 202 1152.5 90.5 Q1027 -21 858 -21 Q691 -21 603 89.5 Q515 200 558 408 L759 408 Q729 261 765 197 Q801 133 889 133 Q960 133 1027.5 211 Q1095 289 1121 417 L1329 1456 Z " />
<glyph glyph-name="ij" unicode="&#x133;" horiz-adv-x="914" d="M242 0 L42 0 L258 1082 L458 1082 L242 0 Z M515 1366 L315 1366 L354 1560 L554 1560 L515 1366 Z M921 1082 L690 -74 Q652 -259 561 -348 Q470 -437 332 -437 Q306 -437 282.5 -432.5 Q259 -428 233 -419 L275 -264 Q290 -270 308.5 -274 Q327 -278 343 -278 Q390 -278 430 -226.5 Q470 -175 490 -74 L721 1082 L921 1082 Z M975 1369 L774 1369 L812 1560 L1013 1560 L975 1369 Z " />
<glyph glyph-name="Jcircumflex" unicode="&#x134;" horiz-adv-x="954" d="M827 1456 L1027 1456 L819 417 Q776 202 650.5 90.5 Q525 -21 356 -21 Q189 -21 101 89.5 Q13 200 56 408 L257 408 Q227 261 263 197 Q299 133 387 133 Q458 133 525.5 211 Q593 289 619 417 L827 1456 Z M1224 1607 L1219 1585 L1058 1585 L973 1736 L827 1585 L669 1585 L674 1608 L934 1840 L1052 1840 L1224 1607 Z " />
<glyph glyph-name="jcircumflex" unicode="&#x135;" horiz-adv-x="472" d="M472 1082 L241 -74 Q203 -259 112 -348 Q21 -437 -117 -437 Q-143 -437 -167.5 -432.5 Q-192 -428 -217 -419 L-175 -268 Q-161 -273 -139.5 -277 Q-118 -281 -100 -281 Q-55 -281 -16.5 -225.5 Q22 -170 42 -74 L273 1082 L472 1082 Z M680 1264 L675 1242 L514 1242 L429 1393 L283 1242 L125 1242 L130 1265 L390 1497 L508 1497 L680 1264 Z " />
<glyph glyph-name="Kcommaaccent" unicode="&#x136;" horiz-adv-x="1089" d="M479 654 L372 654 L242 0 L41 0 L332 1456 L533 1456 L406 824 L522 824 L955 1456 L1215 1456 L655 732 L939 0 L709 0 L479 654 Z M458 -248 L311 -472 L222 -472 L317 -241 L344 -109 L486 -109 L458 -248 Z " />
</font>
</svg>
